<svg width="129" height="19" viewBox="0 0 129 19" fill="none" xmlns="http://www.w3.org/2000/svg">
<path d="M4.94297 8.24097C4.92735 8.11597 4.90391 7.95972 4.87266 7.77222C4.85703 7.56909 4.8336 7.38159 4.80235 7.20972C4.78672 7.02222 4.7711 6.86597 4.75547 6.74097C4.73985 6.61597 4.73203 6.55347 4.73203 6.55347H4.54453L1.87266 7.35034C1.79453 7.47534 1.66172 7.53784 1.47422 7.53784C1.30235 7.53784 1.16953 7.53784 1.07578 7.53784C0.857033 7.53784 0.63047 7.44409 0.396095 7.25659C0.177345 7.05347 0.0679703 6.83472 0.0679703 6.60034C0.0679703 6.42847 0.122658 6.2644 0.232033 6.10815C0.357033 5.93628 0.50547 5.81909 0.677345 5.75659L4.45078 4.56128C4.49766 4.3894 4.5836 4.21753 4.7086 4.04565C4.84922 3.85815 5.02891 3.7644 5.24766 3.7644C5.46641 3.7644 5.6461 3.81909 5.78672 3.92847C5.94297 4.03784 6.11485 4.12378 6.30235 4.18628C6.44297 4.17065 6.67735 4.12378 7.00547 4.04565C7.3336 3.96753 7.67735 3.8894 8.03672 3.81128C8.41172 3.71753 8.76328 3.63159 9.09141 3.55347C9.41953 3.47534 9.6461 3.42065 9.7711 3.3894C9.9586 3.35815 10.0992 3.31909 10.193 3.27222C10.2867 3.22534 10.4352 3.2019 10.6383 3.2019C10.9039 3.2019 11.1773 3.28003 11.4586 3.43628C11.7398 3.59253 11.8805 3.8269 11.8805 4.1394C11.8805 4.34253 11.8102 4.52222 11.6695 4.67847C11.5289 4.81909 11.357 4.91284 11.1539 4.95972L6.70078 6.08472V6.29565C6.70078 6.78003 6.73985 7.25659 6.81797 7.72534C6.91172 8.19409 6.94297 8.66284 6.91172 9.13159L7.7086 16.3738V16.8894C7.7086 17.0769 7.70078 17.2722 7.68516 17.4753C7.68516 17.6628 7.65391 17.8347 7.59141 17.991C7.54453 18.1472 7.4586 18.28 7.3336 18.3894C7.2086 18.4832 7.0211 18.53 6.7711 18.53C6.5836 18.53 6.38047 18.4519 6.16172 18.2957C5.9586 18.1394 5.84922 17.9519 5.8336 17.7332L4.94297 8.42847V8.24097ZM20.693 11.8738C20.6617 12.155 20.6227 12.3738 20.5758 12.53C20.5445 12.6863 20.482 12.8269 20.3883 12.9519C20.2945 13.0769 20.1617 13.2097 19.9898 13.3503C19.818 13.4753 19.5836 13.6628 19.2867 13.9128C18.9898 14.1472 18.6227 14.4597 18.1852 14.8503C17.7477 15.241 17.2164 15.7488 16.5914 16.3738C16.3414 16.6082 16.0836 16.8503 15.818 17.1003C15.5523 17.3503 15.2711 17.5769 14.9742 17.78C14.693 17.9675 14.3961 18.1238 14.0836 18.2488C13.7711 18.3738 13.443 18.4363 13.0992 18.4363C12.4273 18.4363 11.9352 18.2097 11.6227 17.7566C11.3102 17.3035 11.1539 16.78 11.1539 16.1863C11.1539 15.7957 11.1617 15.4675 11.1773 15.2019C11.2086 14.9363 11.2711 14.5925 11.3648 14.1707C11.193 14.0144 11.0445 13.8816 10.9195 13.7722C10.7945 13.6472 10.732 13.4832 10.732 13.28C10.732 13.0925 10.7711 12.9675 10.8492 12.905C10.943 12.8425 11.0445 12.8035 11.1539 12.7878C11.2789 12.7566 11.3961 12.7253 11.5055 12.6941C11.6148 12.6628 11.693 12.6003 11.7398 12.5066C11.7711 12.4128 11.8258 12.241 11.9039 11.991C11.9977 11.741 12.0914 11.4832 12.1852 11.2175C12.2789 10.9363 12.3648 10.6785 12.443 10.4441C12.5367 10.1941 12.5992 10.0222 12.6305 9.92847C12.7398 9.66284 12.857 9.39722 12.982 9.13159C13.1227 8.85034 13.2789 8.60034 13.4508 8.38159C13.6383 8.16284 13.8492 7.98315 14.0836 7.84253C14.3336 7.7019 14.6227 7.63159 14.9508 7.63159C15.1383 7.63159 15.3648 7.71753 15.6305 7.8894C15.9117 8.06128 16.1773 8.27222 16.4273 8.52222C16.6773 8.75659 16.8883 9.00659 17.0602 9.27222C17.232 9.53784 17.318 9.7644 17.318 9.9519C17.318 10.1863 17.2633 10.405 17.1539 10.6082C17.0445 10.7957 16.9039 10.9753 16.732 11.1472C16.5758 11.3035 16.4039 11.4519 16.2164 11.5925C16.0289 11.7332 15.857 11.866 15.7008 11.991C15.6852 11.991 15.6539 12.0066 15.607 12.0378C15.5602 12.0691 15.5211 12.0925 15.4898 12.1082C15.4742 12.1238 15.4352 12.1628 15.3727 12.2253C15.3258 12.2722 15.2711 12.3269 15.2086 12.3894C15.1461 12.4519 15.0836 12.5144 15.0211 12.5769C14.9742 12.6394 14.943 12.6785 14.9273 12.6941C14.8805 12.741 14.7867 12.8191 14.6461 12.9285C14.5211 13.0222 14.3805 13.1316 14.2242 13.2566C14.068 13.366 13.9195 13.4753 13.7789 13.5847C13.6539 13.6785 13.568 13.741 13.5211 13.7722L13.4273 13.9597C13.3961 14.0222 13.3648 14.1628 13.3336 14.3816C13.318 14.5847 13.2945 14.8191 13.2633 15.0847C13.232 15.3503 13.2008 15.6238 13.1695 15.905C13.1539 16.1707 13.1461 16.3894 13.1461 16.5613C13.1461 16.5769 13.1539 16.5925 13.1695 16.6082C13.2008 16.6394 13.2242 16.655 13.2398 16.655C13.3648 16.655 13.482 16.6003 13.5914 16.491C13.7008 16.3816 13.818 16.3035 13.943 16.2566L17.693 12.7878L18.6539 11.3113C18.732 11.2019 18.8805 11.0847 19.0992 10.9597C19.3336 10.8191 19.568 10.7488 19.8023 10.7488C20.0367 10.7332 20.2398 10.8035 20.4117 10.9597C20.5992 11.116 20.693 11.4207 20.693 11.8738ZM15.5367 10.0457C15.6148 9.98315 15.6461 9.8894 15.6305 9.7644C15.6148 9.6394 15.568 9.53003 15.4898 9.43628C15.4273 9.34253 15.3414 9.28784 15.232 9.27222C15.1227 9.24097 15.0211 9.29565 14.9273 9.43628C14.8805 9.49878 14.7945 9.62378 14.6695 9.81128C14.5602 9.99878 14.443 10.1941 14.318 10.3972C14.2086 10.5847 14.1148 10.7488 14.0367 10.8894C13.9586 11.03 13.943 11.0847 13.9898 11.0535L15.5367 10.0457ZM26.7867 11.991C26.6461 12.241 26.482 12.5457 26.2945 12.905C26.1227 13.2488 25.9352 13.6238 25.732 14.03C25.5289 14.4207 25.3023 14.8191 25.0523 15.2253C24.818 15.616 24.568 15.9753 24.3023 16.3035C24.0523 16.6316 23.7867 16.9128 23.5055 17.1472C23.2242 17.366 22.9352 17.4988 22.6383 17.5457C22.5133 17.5457 22.3727 17.5378 22.2164 17.5222C22.0602 17.491 21.9039 17.4519 21.7477 17.405C21.5914 17.3425 21.4586 17.2644 21.3492 17.1707C21.2555 17.0613 21.2086 16.9207 21.2086 16.7488C21.2242 15.155 21.3414 13.7097 21.5602 12.4128C21.7789 11.1003 22.1227 9.9519 22.5914 8.96753C23.0602 7.96753 23.6617 7.1394 24.3961 6.48315C25.1305 5.8269 26.0211 5.35815 27.068 5.0769C27.0992 5.0769 27.1539 5.0769 27.232 5.0769C27.3258 5.06128 27.3883 5.05347 27.4195 5.05347C27.8883 5.03784 28.2242 5.25659 28.4273 5.70972C28.6461 6.14722 28.8023 6.85034 28.8961 7.81909C29.0055 8.77222 29.0758 10.0066 29.107 11.5222C29.1539 13.0222 29.2398 14.8269 29.3648 16.9363C29.4117 17.1082 29.4352 17.2566 29.4352 17.3816C29.4508 17.5066 29.4586 17.655 29.4586 17.8269C29.4586 18.0613 29.3883 18.241 29.2477 18.366C29.107 18.4753 28.9273 18.53 28.7086 18.53C28.2555 18.53 27.9352 18.405 27.7477 18.155C27.5602 17.905 27.4352 17.5691 27.3727 17.1472C27.3727 17.1316 27.357 17.0066 27.3258 16.7722C27.3102 16.5378 27.2789 16.2722 27.232 15.9753C27.2008 15.6628 27.1695 15.3503 27.1383 15.0378C27.107 14.7253 27.0836 14.4675 27.068 14.2644V14.1707C27.0367 14.0144 27.0133 13.8191 26.9977 13.5847C26.9977 13.3503 26.982 13.1238 26.9508 12.905C26.9195 12.6394 26.8961 12.3738 26.8805 12.1082L26.7867 11.991ZM26.2711 7.35034C25.8492 7.66284 25.4352 8.08472 25.0289 8.61597C24.6227 9.14722 24.3336 9.66284 24.1617 10.1628C24.0836 10.3972 23.9977 10.7175 23.9039 11.1238C23.8102 11.53 23.7242 11.9363 23.6461 12.3425C23.5836 12.7332 23.5289 13.1003 23.482 13.4441C23.4352 13.7722 23.4117 13.9832 23.4117 14.0769C23.4273 14.0769 23.443 14.0613 23.4586 14.03C23.4898 13.9988 23.5133 13.9753 23.5289 13.9597C24.4977 13.0222 25.1773 12.0144 25.568 10.9363C25.9742 9.84253 26.2086 8.64722 26.2711 7.35034ZM31.0289 10.8894C30.9977 10.4832 30.9586 10.0769 30.9117 9.67065C30.8805 9.24878 30.8258 8.83472 30.7477 8.42847C30.7477 8.08472 30.857 7.86597 31.0758 7.77222C31.3102 7.67847 31.5602 7.63159 31.8258 7.63159H32.2945C32.5289 7.74097 32.693 7.87378 32.7867 8.03003C32.8805 8.18628 32.943 8.35815 32.9742 8.54565C33.0055 8.73315 33.0133 8.92847 32.9977 9.13159C32.9977 9.33472 33.0055 9.53003 33.0211 9.71753C33.0367 9.79565 33.0445 9.92847 33.0445 10.116C33.0445 10.3035 33.0445 10.4988 33.0445 10.7019C33.0602 10.905 33.0758 11.0925 33.0914 11.2644C33.1227 11.4363 33.1617 11.5457 33.2086 11.5925L35.2711 7.72534C35.3648 7.55347 35.4977 7.41284 35.6695 7.30347C35.857 7.17847 36.0602 7.13159 36.2789 7.16284C36.6227 7.19409 36.8805 7.2644 37.0523 7.37378C37.2242 7.46753 37.3414 7.60034 37.4039 7.77222C37.482 7.92847 37.5211 8.12378 37.5211 8.35815C37.5367 8.59253 37.5523 8.85034 37.568 9.13159C37.568 9.22534 37.5758 9.40503 37.5914 9.67065C37.607 9.92065 37.6227 10.1863 37.6383 10.4675C37.6695 10.7488 37.693 11.0144 37.7086 11.2644C37.7398 11.5144 37.7633 11.6863 37.7789 11.78H37.8727C37.9039 11.6707 37.9586 11.4597 38.0367 11.1472C38.1305 10.8347 38.232 10.5066 38.3414 10.1628C38.4508 9.81909 38.5523 9.49097 38.6461 9.17847C38.7398 8.86597 38.8102 8.64722 38.857 8.52222C38.8727 8.49097 38.9039 8.42847 38.9508 8.33472C38.9977 8.22534 39.0445 8.11597 39.0914 8.00659C39.1383 7.88159 39.1852 7.77222 39.232 7.67847C39.2789 7.56909 39.3102 7.49097 39.3258 7.44409C39.4352 7.27222 39.5445 7.18628 39.6539 7.18628C39.7789 7.17065 39.9117 7.16284 40.0523 7.16284C40.443 7.16284 40.7398 7.2644 40.943 7.46753C41.1617 7.65503 41.318 7.89722 41.4117 8.19409C41.5211 8.49097 41.5992 8.81909 41.6461 9.17847C41.693 9.52222 41.7477 9.84253 41.8102 10.1394C41.8258 10.1394 41.8336 10.155 41.8336 10.1863C41.8336 10.2019 41.8258 10.2175 41.8102 10.2332L43.0992 17.0535C43.1617 17.116 43.193 17.1707 43.193 17.2175C43.2086 17.2644 43.2164 17.3269 43.2164 17.405C43.2164 17.5769 43.1305 17.7488 42.9586 17.9207C42.8023 18.0769 42.6383 18.155 42.4664 18.155C42.232 18.155 41.9586 18.0691 41.6461 17.8972C41.3492 17.7253 41.1773 17.5066 41.1305 17.241L40.0523 11.6863L39.9352 11.4988C39.9039 11.5769 39.8336 11.8035 39.7242 12.1785C39.6305 12.5378 39.5133 12.9988 39.3727 13.5613C39.232 14.1082 39.068 14.7253 38.8805 15.4128C38.7086 16.1003 38.5289 16.8035 38.3414 17.5222C38.3102 17.6628 38.2164 17.7722 38.0602 17.8503C37.9195 17.9128 37.7945 17.9441 37.6852 17.9441C37.357 17.9441 37.0914 17.905 36.8883 17.8269C36.6852 17.7488 36.5289 17.6316 36.4195 17.4753C36.3102 17.3191 36.232 17.1316 36.1852 16.9128C36.1383 16.6941 36.0992 16.4441 36.068 16.1628C36.068 16.1003 36.0523 15.8816 36.0211 15.5066C35.9898 15.116 35.9508 14.6785 35.9039 14.1941C35.8727 13.6941 35.8336 13.1941 35.7867 12.6941C35.7398 12.1941 35.7086 11.7957 35.693 11.4988C35.693 11.4363 35.693 11.3894 35.693 11.3582C35.693 11.3269 35.693 11.3035 35.693 11.2878C35.693 11.2566 35.6852 11.2253 35.6695 11.1941C35.6539 11.1472 35.6227 11.0769 35.5758 10.9832L34.8961 12.6003L33.818 16.5613L33.5836 18.0144C33.568 18.1082 33.5211 18.1941 33.443 18.2722C33.3805 18.3347 33.3023 18.3894 33.2086 18.4363C33.1148 18.4675 33.0211 18.491 32.9273 18.5066C32.8336 18.5222 32.7555 18.53 32.693 18.53C32.3492 18.53 32.0523 18.405 31.8023 18.155C31.568 17.905 31.443 17.6316 31.4273 17.3347C31.4117 17.2253 31.3961 17.0144 31.3805 16.7019C31.3648 16.3738 31.3414 15.991 31.3102 15.5535C31.2789 15.116 31.2477 14.655 31.2164 14.1707C31.2008 13.6863 31.1773 13.2253 31.1461 12.7878C31.1148 12.3503 31.0836 11.9675 31.0523 11.6394C31.0367 11.3113 31.0289 11.0925 31.0289 10.9832V10.8894ZM54.1617 17.8269C54.1305 16.0925 54.0836 14.366 54.0211 12.6472C53.9742 10.9128 53.9508 9.17847 53.9508 7.44409C53.9508 7.31909 53.9508 7.10034 53.9508 6.78784C53.9508 6.45972 53.9508 6.11597 53.9508 5.75659C53.9664 5.39722 53.9742 5.06128 53.9742 4.74878C53.9742 4.43628 53.9742 4.21753 53.9742 4.09253C54.0367 3.84253 54.1305 3.64722 54.2555 3.50659C54.3805 3.35034 54.5758 3.27222 54.8414 3.27222C55.107 3.27222 55.3414 3.35815 55.5445 3.53003C55.7477 3.68628 55.9117 3.87378 56.0367 4.09253L59.4117 10.6082C59.4273 10.6394 59.482 10.7332 59.5758 10.8894C59.6695 11.0457 59.7398 11.155 59.7867 11.2175C59.8023 11.2332 59.8258 11.2488 59.857 11.2644C59.8883 11.28 59.9039 11.2957 59.9039 11.3113L59.9977 11.1003L61.9898 4.09253C62.1305 3.87378 62.232 3.63159 62.2945 3.36597C62.3727 3.08472 62.4508 2.81128 62.5289 2.54565C62.6227 2.28003 62.732 2.03003 62.857 1.79565C62.9977 1.56128 63.2008 1.36597 63.4664 1.20972H63.6539C64.0758 1.20972 64.3883 1.33472 64.5914 1.58472C64.7945 1.81909 64.9352 2.11597 65.0133 2.47534C65.0914 2.81909 65.1227 3.18628 65.107 3.5769C65.107 3.9519 65.1148 4.28003 65.1305 4.56128C65.1305 4.67065 65.1383 4.88159 65.1539 5.19409C65.1852 5.50659 65.2164 5.87378 65.2477 6.29565C65.2789 6.71753 65.3102 7.17065 65.3414 7.65503C65.3727 8.12378 65.3961 8.56909 65.4117 8.99097C65.443 9.41284 65.4664 9.78003 65.482 10.0925C65.5133 10.405 65.5289 10.6082 65.5289 10.7019V10.7957C65.5445 10.9363 65.5758 11.1707 65.6227 11.4988C65.6695 11.8269 65.7164 12.1785 65.7633 12.5535C65.8258 12.9128 65.8805 13.2566 65.9273 13.5847C65.9742 13.9128 66.0133 14.1394 66.0445 14.2644C66.0602 14.3425 66.0836 14.4597 66.1148 14.616C66.1617 14.7722 66.2086 14.9441 66.2555 15.1316C66.318 15.3035 66.3727 15.4675 66.4195 15.6238C66.4664 15.78 66.5055 15.8894 66.5367 15.9519C66.4742 16.3113 66.3805 16.5925 66.2555 16.7957C66.1461 16.9832 65.8961 17.0769 65.5055 17.0769C65.4586 17.0769 65.3883 17.0769 65.2945 17.0769C65.2008 17.0613 65.1461 17.0535 65.1305 17.0535C65.0836 17.0222 64.9898 16.9441 64.8492 16.8191C64.7242 16.6941 64.6539 16.6082 64.6383 16.5613L64.2633 15.2722L63.5602 9.92847V9.71753C63.5445 9.43628 63.5367 9.1394 63.5367 8.8269C63.5367 8.49878 63.5289 8.17065 63.5133 7.84253C63.5133 7.5144 63.4977 7.18628 63.4664 6.85815C63.4352 6.53003 63.3727 6.22534 63.2789 5.94409L63.1617 6.08472L61.4742 12.8816C61.4586 13.0535 61.443 13.241 61.4273 13.4441C61.4117 13.6316 61.3727 13.8191 61.3102 14.0066C61.2477 14.1785 61.1539 14.3269 61.0289 14.4519C60.9039 14.5769 60.7242 14.6472 60.4898 14.6628C60.3961 14.6785 60.2945 14.6628 60.1852 14.616C60.0758 14.5691 59.9664 14.5066 59.857 14.4285C59.7477 14.3503 59.6461 14.2644 59.5523 14.1707C59.4742 14.0613 59.4273 13.9597 59.4117 13.866L56.4352 9.13159L55.943 8.14722V10.1628C55.943 11.116 55.9586 12.0535 55.9898 12.9753C56.0367 13.8816 56.0602 14.8113 56.0602 15.7644C56.0602 15.8425 56.0602 15.9832 56.0602 16.1863C56.0602 16.3738 56.0523 16.5769 56.0367 16.7957C56.0367 17.0144 56.0367 17.2253 56.0367 17.4285C56.0367 17.616 56.0367 17.7488 56.0367 17.8269C55.9742 18.0144 55.8805 18.1785 55.7555 18.3191C55.6461 18.4597 55.482 18.53 55.2633 18.53C54.9664 18.53 54.732 18.4832 54.5602 18.3894C54.4039 18.28 54.2711 18.0925 54.1617 17.8269ZM77.4117 11.8738C77.3805 12.155 77.3414 12.3738 77.2945 12.53C77.2633 12.6863 77.2008 12.8269 77.107 12.9519C77.0133 13.0769 76.8805 13.2097 76.7086 13.3503C76.5367 13.4753 76.3023 13.6628 76.0055 13.9128C75.7086 14.1472 75.3414 14.4597 74.9039 14.8503C74.4664 15.241 73.9352 15.7488 73.3102 16.3738C73.0602 16.6082 72.8023 16.8503 72.5367 17.1003C72.2711 17.3503 71.9898 17.5769 71.693 17.78C71.4117 17.9675 71.1148 18.1238 70.8023 18.2488C70.4898 18.3738 70.1617 18.4363 69.818 18.4363C69.1461 18.4363 68.6539 18.2097 68.3414 17.7566C68.0289 17.3035 67.8727 16.78 67.8727 16.1863C67.8727 15.7957 67.8805 15.4675 67.8961 15.2019C67.9273 14.9363 67.9898 14.5925 68.0836 14.1707C67.9117 14.0144 67.7633 13.8816 67.6383 13.7722C67.5133 13.6472 67.4508 13.4832 67.4508 13.28C67.4508 13.0925 67.4898 12.9675 67.568 12.905C67.6617 12.8425 67.7633 12.8035 67.8727 12.7878C67.9977 12.7566 68.1148 12.7253 68.2242 12.6941C68.3336 12.6628 68.4117 12.6003 68.4586 12.5066C68.4898 12.4128 68.5445 12.241 68.6227 11.991C68.7164 11.741 68.8102 11.4832 68.9039 11.2175C68.9977 10.9363 69.0836 10.6785 69.1617 10.4441C69.2555 10.1941 69.318 10.0222 69.3492 9.92847C69.4586 9.66284 69.5758 9.39722 69.7008 9.13159C69.8414 8.85034 69.9977 8.60034 70.1695 8.38159C70.357 8.16284 70.568 7.98315 70.8023 7.84253C71.0523 7.7019 71.3414 7.63159 71.6695 7.63159C71.857 7.63159 72.0836 7.71753 72.3492 7.8894C72.6305 8.06128 72.8961 8.27222 73.1461 8.52222C73.3961 8.75659 73.607 9.00659 73.7789 9.27222C73.9508 9.53784 74.0367 9.7644 74.0367 9.9519C74.0367 10.1863 73.982 10.405 73.8727 10.6082C73.7633 10.7957 73.6227 10.9753 73.4508 11.1472C73.2945 11.3035 73.1227 11.4519 72.9352 11.5925C72.7477 11.7332 72.5758 11.866 72.4195 11.991C72.4039 11.991 72.3727 12.0066 72.3258 12.0378C72.2789 12.0691 72.2398 12.0925 72.2086 12.1082C72.193 12.1238 72.1539 12.1628 72.0914 12.2253C72.0445 12.2722 71.9898 12.3269 71.9273 12.3894C71.8648 12.4519 71.8023 12.5144 71.7398 12.5769C71.693 12.6394 71.6617 12.6785 71.6461 12.6941C71.5992 12.741 71.5055 12.8191 71.3648 12.9285C71.2398 13.0222 71.0992 13.1316 70.943 13.2566C70.7867 13.366 70.6383 13.4753 70.4977 13.5847C70.3727 13.6785 70.2867 13.741 70.2398 13.7722L70.1461 13.9597C70.1148 14.0222 70.0836 14.1628 70.0523 14.3816C70.0367 14.5847 70.0133 14.8191 69.982 15.0847C69.9508 15.3503 69.9195 15.6238 69.8883 15.905C69.8727 16.1707 69.8648 16.3894 69.8648 16.5613C69.8648 16.5769 69.8727 16.5925 69.8883 16.6082C69.9195 16.6394 69.943 16.655 69.9586 16.655C70.0836 16.655 70.2008 16.6003 70.3102 16.491C70.4195 16.3816 70.5367 16.3035 70.6617 16.2566L74.4117 12.7878L75.3727 11.3113C75.4508 11.2019 75.5992 11.0847 75.818 10.9597C76.0523 10.8191 76.2867 10.7488 76.5211 10.7488C76.7555 10.7332 76.9586 10.8035 77.1305 10.9597C77.318 11.116 77.4117 11.4207 77.4117 11.8738ZM72.2555 10.0457C72.3336 9.98315 72.3648 9.8894 72.3492 9.7644C72.3336 9.6394 72.2867 9.53003 72.2086 9.43628C72.1461 9.34253 72.0602 9.28784 71.9508 9.27222C71.8414 9.24097 71.7398 9.29565 71.6461 9.43628C71.5992 9.49878 71.5133 9.62378 71.3883 9.81128C71.2789 9.99878 71.1617 10.1941 71.0367 10.3972C70.9273 10.5847 70.8336 10.7488 70.7555 10.8894C70.6773 11.03 70.6617 11.0847 70.7086 11.0535L72.2555 10.0457ZM78.3961 10.8894C78.3648 10.4832 78.3258 10.0769 78.2789 9.67065C78.2477 9.24878 78.193 8.83472 78.1148 8.42847C78.1148 8.08472 78.2242 7.86597 78.443 7.77222C78.6773 7.67847 78.9273 7.63159 79.193 7.63159H79.6617C79.8961 7.74097 80.0602 7.87378 80.1539 8.03003C80.2477 8.18628 80.3102 8.35815 80.3414 8.54565C80.3727 8.73315 80.3805 8.92847 80.3648 9.13159C80.3648 9.33472 80.3727 9.53003 80.3883 9.71753C80.4039 9.79565 80.4117 9.92847 80.4117 10.116C80.4117 10.3035 80.4117 10.4988 80.4117 10.7019C80.4273 10.905 80.443 11.0925 80.4586 11.2644C80.4898 11.4363 80.5289 11.5457 80.5758 11.5925L82.6383 7.72534C82.732 7.55347 82.8648 7.41284 83.0367 7.30347C83.2242 7.17847 83.4273 7.13159 83.6461 7.16284C83.9898 7.19409 84.2477 7.2644 84.4195 7.37378C84.5914 7.46753 84.7086 7.60034 84.7711 7.77222C84.8492 7.92847 84.8883 8.12378 84.8883 8.35815C84.9039 8.59253 84.9195 8.85034 84.9352 9.13159C84.9352 9.22534 84.943 9.40503 84.9586 9.67065C84.9742 9.92065 84.9898 10.1863 85.0055 10.4675C85.0367 10.7488 85.0602 11.0144 85.0758 11.2644C85.107 11.5144 85.1305 11.6863 85.1461 11.78H85.2398C85.2711 11.6707 85.3258 11.4597 85.4039 11.1472C85.4977 10.8347 85.5992 10.5066 85.7086 10.1628C85.818 9.81909 85.9195 9.49097 86.0133 9.17847C86.107 8.86597 86.1773 8.64722 86.2242 8.52222C86.2398 8.49097 86.2711 8.42847 86.318 8.33472C86.3648 8.22534 86.4117 8.11597 86.4586 8.00659C86.5055 7.88159 86.5523 7.77222 86.5992 7.67847C86.6461 7.56909 86.6773 7.49097 86.693 7.44409C86.8023 7.27222 86.9117 7.18628 87.0211 7.18628C87.1461 7.17065 87.2789 7.16284 87.4195 7.16284C87.8102 7.16284 88.107 7.2644 88.3102 7.46753C88.5289 7.65503 88.6852 7.89722 88.7789 8.19409C88.8883 8.49097 88.9664 8.81909 89.0133 9.17847C89.0602 9.52222 89.1148 9.84253 89.1773 10.1394C89.193 10.1394 89.2008 10.155 89.2008 10.1863C89.2008 10.2019 89.193 10.2175 89.1773 10.2332L90.4664 17.0535C90.5289 17.116 90.5602 17.1707 90.5602 17.2175C90.5758 17.2644 90.5836 17.3269 90.5836 17.405C90.5836 17.5769 90.4977 17.7488 90.3258 17.9207C90.1695 18.0769 90.0055 18.155 89.8336 18.155C89.5992 18.155 89.3258 18.0691 89.0133 17.8972C88.7164 17.7253 88.5445 17.5066 88.4977 17.241L87.4195 11.6863L87.3023 11.4988C87.2711 11.5769 87.2008 11.8035 87.0914 12.1785C86.9977 12.5378 86.8805 12.9988 86.7398 13.5613C86.5992 14.1082 86.4352 14.7253 86.2477 15.4128C86.0758 16.1003 85.8961 16.8035 85.7086 17.5222C85.6773 17.6628 85.5836 17.7722 85.4273 17.8503C85.2867 17.9128 85.1617 17.9441 85.0523 17.9441C84.7242 17.9441 84.4586 17.905 84.2555 17.8269C84.0523 17.7488 83.8961 17.6316 83.7867 17.4753C83.6773 17.3191 83.5992 17.1316 83.5523 16.9128C83.5055 16.6941 83.4664 16.4441 83.4352 16.1628C83.4352 16.1003 83.4195 15.8816 83.3883 15.5066C83.357 15.116 83.318 14.6785 83.2711 14.1941C83.2398 13.6941 83.2008 13.1941 83.1539 12.6941C83.107 12.1941 83.0758 11.7957 83.0602 11.4988C83.0602 11.4363 83.0602 11.3894 83.0602 11.3582C83.0602 11.3269 83.0602 11.3035 83.0602 11.2878C83.0602 11.2566 83.0523 11.2253 83.0367 11.1941C83.0211 11.1472 82.9898 11.0769 82.943 10.9832L82.2633 12.6003L81.1852 16.5613L80.9508 18.0144C80.9352 18.1082 80.8883 18.1941 80.8102 18.2722C80.7477 18.3347 80.6695 18.3894 80.5758 18.4363C80.482 18.4675 80.3883 18.491 80.2945 18.5066C80.2008 18.5222 80.1227 18.53 80.0602 18.53C79.7164 18.53 79.4195 18.405 79.1695 18.155C78.9352 17.905 78.8102 17.6316 78.7945 17.3347C78.7789 17.2253 78.7633 17.0144 78.7477 16.7019C78.732 16.3738 78.7086 15.991 78.6773 15.5535C78.6461 15.116 78.6148 14.655 78.5836 14.1707C78.568 13.6863 78.5445 13.2253 78.5133 12.7878C78.482 12.3503 78.4508 11.9675 78.4195 11.6394C78.4039 11.3113 78.3961 11.0925 78.3961 10.9832V10.8894ZM91.732 10.7019V10.655C91.732 10.53 91.7711 10.405 91.8492 10.28C91.943 10.1394 92.0367 10.0222 92.1305 9.92847V8.73315C92.1305 7.43628 92.107 6.17065 92.0602 4.93628C92.0289 3.7019 91.9508 2.42847 91.8258 1.11597C91.8258 0.912842 91.8961 0.764404 92.0367 0.670654C92.1773 0.561279 92.3258 0.506592 92.482 0.506592C92.9195 0.428467 93.2477 0.530029 93.4664 0.811279C93.7008 1.09253 93.8648 1.47534 93.9586 1.95972C94.0523 2.44409 94.0992 2.99097 94.0992 3.60034C94.0992 4.19409 94.0836 4.77222 94.0523 5.33472C94.0367 5.89722 94.0289 6.39722 94.0289 6.83472C94.0289 7.27222 94.0836 7.56909 94.193 7.72534C94.3961 7.64722 94.4977 7.61597 94.4977 7.63159C94.5133 7.63159 94.5133 7.6394 94.4977 7.65503C94.4977 7.65503 94.5133 7.6394 94.5445 7.60815C94.5914 7.56128 94.7398 7.44409 94.9898 7.25659C95.3336 6.99097 95.732 6.8269 96.1852 6.7644C96.6539 6.68628 97.0914 6.64722 97.4977 6.64722C98.4508 6.78784 99.1148 7.08472 99.4898 7.53784C99.8648 7.97534 100.029 8.52222 99.982 9.17847C99.9352 9.81909 99.7086 10.5378 99.3023 11.3347C98.9117 12.116 98.4195 12.9285 97.8258 13.7722C97.232 14.6003 96.5758 15.4285 95.857 16.2566C95.1383 17.0691 94.443 17.8347 93.7711 18.5535C93.6305 18.5535 93.4664 18.53 93.2789 18.4832C93.107 18.4363 92.943 18.366 92.7867 18.2722C92.6305 18.1785 92.4977 18.0613 92.3883 17.9207C92.2789 17.78 92.2242 17.616 92.2242 17.4285V11.3113L91.732 10.7019ZM94.193 12.5066C94.193 12.5535 94.193 12.6628 94.193 12.8347C94.2086 13.0066 94.2242 13.1941 94.2398 13.3972C94.2555 13.5847 94.2633 13.7644 94.2633 13.9363C94.2789 14.1082 94.2867 14.2175 94.2867 14.2644C94.2867 14.3113 94.2867 14.3972 94.2867 14.5222C94.2867 14.6316 94.2867 14.7566 94.2867 14.8972C94.3023 15.0222 94.3102 15.1472 94.3102 15.2722C94.3102 15.3816 94.3102 15.4597 94.3102 15.5066C94.482 15.4753 94.7242 15.2566 95.0367 14.8503C95.3492 14.4441 95.6695 13.9753 95.9977 13.4441C96.3258 12.8972 96.6305 12.3503 96.9117 11.8035C97.193 11.2566 97.4039 10.8269 97.5445 10.5144C97.607 10.3582 97.6695 10.1707 97.732 9.9519C97.7945 9.73315 97.8336 9.5144 97.8492 9.29565C97.8805 9.06128 97.8648 8.85034 97.8023 8.66284C97.7555 8.47534 97.6461 8.3269 97.4742 8.21753C97.193 8.21753 96.8883 8.28784 96.5602 8.42847C96.2477 8.56909 95.9352 8.74878 95.6227 8.96753C95.3258 9.18628 95.0523 9.42847 94.8023 9.69409C94.568 9.94409 94.3961 10.1863 94.2867 10.4207C94.2711 10.4988 94.2555 10.6394 94.2398 10.8425C94.2398 11.03 94.232 11.2332 94.2164 11.4519C94.2164 11.6707 94.2086 11.8816 94.193 12.0847C94.193 12.2878 94.193 12.4285 94.193 12.5066ZM110.459 11.8738C110.427 12.155 110.388 12.3738 110.341 12.53C110.31 12.6863 110.248 12.8269 110.154 12.9519C110.06 13.0769 109.927 13.2097 109.755 13.3503C109.584 13.4753 109.349 13.6628 109.052 13.9128C108.755 14.1472 108.388 14.4597 107.951 14.8503C107.513 15.241 106.982 15.7488 106.357 16.3738C106.107 16.6082 105.849 16.8503 105.584 17.1003C105.318 17.3503 105.037 17.5769 104.74 17.78C104.459 17.9675 104.162 18.1238 103.849 18.2488C103.537 18.3738 103.209 18.4363 102.865 18.4363C102.193 18.4363 101.701 18.2097 101.388 17.7566C101.076 17.3035 100.92 16.78 100.92 16.1863C100.92 15.7957 100.927 15.4675 100.943 15.2019C100.974 14.9363 101.037 14.5925 101.13 14.1707C100.959 14.0144 100.81 13.8816 100.685 13.7722C100.56 13.6472 100.498 13.4832 100.498 13.28C100.498 13.0925 100.537 12.9675 100.615 12.905C100.709 12.8425 100.81 12.8035 100.92 12.7878C101.045 12.7566 101.162 12.7253 101.271 12.6941C101.38 12.6628 101.459 12.6003 101.505 12.5066C101.537 12.4128 101.591 12.241 101.67 11.991C101.763 11.741 101.857 11.4832 101.951 11.2175C102.045 10.9363 102.13 10.6785 102.209 10.4441C102.302 10.1941 102.365 10.0222 102.396 9.92847C102.505 9.66284 102.623 9.39722 102.748 9.13159C102.888 8.85034 103.045 8.60034 103.216 8.38159C103.404 8.16284 103.615 7.98315 103.849 7.84253C104.099 7.7019 104.388 7.63159 104.716 7.63159C104.904 7.63159 105.13 7.71753 105.396 7.8894C105.677 8.06128 105.943 8.27222 106.193 8.52222C106.443 8.75659 106.654 9.00659 106.826 9.27222C106.998 9.53784 107.084 9.7644 107.084 9.9519C107.084 10.1863 107.029 10.405 106.92 10.6082C106.81 10.7957 106.67 10.9753 106.498 11.1472C106.341 11.3035 106.17 11.4519 105.982 11.5925C105.795 11.7332 105.623 11.866 105.466 11.991C105.451 11.991 105.42 12.0066 105.373 12.0378C105.326 12.0691 105.287 12.0925 105.255 12.1082C105.24 12.1238 105.201 12.1628 105.138 12.2253C105.091 12.2722 105.037 12.3269 104.974 12.3894C104.912 12.4519 104.849 12.5144 104.787 12.5769C104.74 12.6394 104.709 12.6785 104.693 12.6941C104.646 12.741 104.552 12.8191 104.412 12.9285C104.287 13.0222 104.146 13.1316 103.99 13.2566C103.834 13.366 103.685 13.4753 103.545 13.5847C103.42 13.6785 103.334 13.741 103.287 13.7722L103.193 13.9597C103.162 14.0222 103.13 14.1628 103.099 14.3816C103.084 14.5847 103.06 14.8191 103.029 15.0847C102.998 15.3503 102.966 15.6238 102.935 15.905C102.92 16.1707 102.912 16.3894 102.912 16.5613C102.912 16.5769 102.92 16.5925 102.935 16.6082C102.966 16.6394 102.99 16.655 103.005 16.655C103.13 16.655 103.248 16.6003 103.357 16.491C103.466 16.3816 103.584 16.3035 103.709 16.2566L107.459 12.7878L108.42 11.3113C108.498 11.2019 108.646 11.0847 108.865 10.9597C109.099 10.8191 109.334 10.7488 109.568 10.7488C109.802 10.7332 110.005 10.8035 110.177 10.9597C110.365 11.116 110.459 11.4207 110.459 11.8738ZM105.302 10.0457C105.38 9.98315 105.412 9.8894 105.396 9.7644C105.38 9.6394 105.334 9.53003 105.255 9.43628C105.193 9.34253 105.107 9.28784 104.998 9.27222C104.888 9.24097 104.787 9.29565 104.693 9.43628C104.646 9.49878 104.56 9.62378 104.435 9.81128C104.326 9.99878 104.209 10.1941 104.084 10.3972C103.974 10.5847 103.88 10.7488 103.802 10.8894C103.724 11.03 103.709 11.0847 103.755 11.0535L105.302 10.0457ZM112.146 17.5222C112.115 16.9597 112.06 16.2097 111.982 15.2722C111.92 14.3191 111.841 13.3347 111.748 12.3191C111.67 11.3035 111.584 10.3425 111.49 9.43628C111.396 8.53003 111.318 7.8269 111.255 7.3269C111.255 7.12378 111.349 6.99097 111.537 6.92847C111.724 6.86597 111.904 6.83472 112.076 6.83472C112.295 6.83472 112.521 6.89722 112.755 7.02222C113.005 7.14722 113.162 7.31909 113.224 7.53784C113.224 7.60034 113.232 7.71753 113.248 7.8894C113.263 8.04565 113.271 8.20972 113.271 8.38159C113.287 8.55347 113.302 8.72534 113.318 8.89722C113.334 9.05347 113.341 9.16284 113.341 9.22534C113.341 9.31909 113.341 9.3894 113.341 9.43628C113.341 9.48315 113.341 9.53003 113.341 9.5769C113.341 9.60815 113.349 9.64722 113.365 9.69409C113.38 9.74097 113.404 9.81909 113.435 9.92847C113.466 9.89722 113.498 9.85815 113.529 9.81128C113.576 9.7644 113.607 9.73315 113.623 9.71753C113.873 9.35815 114.115 9.04565 114.349 8.78003C114.584 8.49878 114.826 8.24097 115.076 8.00659C115.326 7.75659 115.599 7.49878 115.896 7.23315C116.209 6.9519 116.568 6.63159 116.974 6.27222C117.068 6.19409 117.138 6.1394 117.185 6.10815C117.232 6.06128 117.271 6.03003 117.302 6.0144C117.349 5.98315 117.396 5.96753 117.443 5.96753C117.49 5.9519 117.552 5.94409 117.63 5.94409C117.896 5.94409 118.162 6.03784 118.427 6.22534C118.709 6.39722 118.849 6.6394 118.849 6.9519C118.849 7.06128 118.81 7.17847 118.732 7.30347C118.654 7.41284 118.56 7.52222 118.451 7.63159C118.341 7.72534 118.224 7.81128 118.099 7.8894C117.99 7.96753 117.888 8.02222 117.795 8.05347C117.388 8.41284 116.959 8.8269 116.505 9.29565C116.052 9.74878 115.63 10.241 115.24 10.7722C114.849 11.3035 114.529 11.8582 114.279 12.4363C114.029 13.0144 113.904 13.5925 113.904 14.1707C113.904 14.7019 113.943 15.2253 114.021 15.741C114.099 16.2566 114.138 16.78 114.138 17.3113V18.1316C114.013 18.2566 113.904 18.3582 113.81 18.4363C113.716 18.5144 113.584 18.5535 113.412 18.5535C113.146 18.5535 112.888 18.4441 112.638 18.2253C112.388 17.991 112.224 17.7566 112.146 17.5222ZM122.998 17.6394C122.998 17.5613 122.998 17.491 122.998 17.4285C123.013 17.366 123.052 17.3035 123.115 17.241C123.302 17.0066 123.513 16.7644 123.748 16.5144C123.982 16.2488 124.209 15.991 124.427 15.741C124.646 15.4753 124.849 15.2019 125.037 14.9207C125.224 14.6394 125.38 14.3582 125.505 14.0769V13.9363L122.435 14.5691H122.084C121.865 14.5691 121.591 14.5535 121.263 14.5222C120.951 14.491 120.638 14.4285 120.326 14.3347C120.029 14.2253 119.771 14.0769 119.552 13.8894C119.349 13.7019 119.248 13.4519 119.248 13.1394C119.263 12.78 119.451 12.3816 119.81 11.9441C120.17 11.5066 120.591 11.0769 121.076 10.655C121.56 10.2332 122.045 9.84253 122.529 9.48315C123.029 9.12378 123.427 8.84253 123.724 8.6394C124.052 8.4519 124.443 8.30347 124.896 8.19409C125.349 8.06909 125.763 8.00659 126.138 8.00659C126.451 8.00659 126.724 8.06909 126.959 8.19409C127.193 8.30347 127.31 8.53003 127.31 8.87378C127.31 9.0144 127.295 9.14722 127.263 9.27222C127.248 9.39722 127.154 9.48315 126.982 9.53003C126.482 9.48315 126.013 9.52222 125.576 9.64722C125.138 9.75659 124.724 9.92847 124.334 10.1628C123.943 10.3972 123.576 10.6785 123.232 11.0066C122.888 11.3191 122.552 11.6472 122.224 11.991C122.13 12.1003 122.013 12.2566 121.873 12.4597C121.732 12.6472 121.662 12.7566 121.662 12.7878V12.8113C122.068 12.8113 122.466 12.7722 122.857 12.6941C123.263 12.616 123.662 12.5378 124.052 12.4597C124.459 12.366 124.857 12.28 125.248 12.2019C125.654 12.1238 126.068 12.0847 126.49 12.0847C126.646 12.0847 126.818 12.1003 127.005 12.1316C127.193 12.1472 127.365 12.1941 127.521 12.2722C127.693 12.3503 127.826 12.4597 127.92 12.6003C128.029 12.7253 128.084 12.8894 128.084 13.0925C128.084 13.3894 128.005 13.6785 127.849 13.9597C127.709 14.2253 127.49 14.5535 127.193 14.9441C126.912 15.3191 126.545 15.78 126.091 16.3269C125.654 16.8738 125.13 17.5769 124.521 18.4363C124.49 18.4832 124.412 18.5144 124.287 18.53C124.177 18.5457 124.084 18.5535 124.005 18.5535C123.787 18.5535 123.56 18.4597 123.326 18.2722C123.107 18.0847 122.998 17.8738 122.998 17.6394Z" fill="#EEC044"/>
</svg>
