<svg width="60" height="61" viewBox="0 0 60 61" fill="none" xmlns="http://www.w3.org/2000/svg">
<path d="M59.4727 57.7031L44.8828 43.1133C46.8359 40.8477 48.3691 38.2891 49.4824 35.4375C50.5957 32.5859 51.1523 29.5586 51.1523 26.3555C51.1523 22.8008 50.4883 19.4805 49.1602 16.3945C47.832 13.2695 46.0059 10.5547 43.6816 8.25C41.3574 5.94531 38.6328 4.10938 35.5078 2.74219C32.4219 1.41406 29.1211 0.75 25.6055 0.75C22.0508 0.75 18.7305 1.41406 15.6445 2.74219C12.5195 4.10938 9.80469 5.94531 7.5 8.25C5.19531 10.5547 3.35938 13.2695 1.99219 16.3945C0.664063 19.4805 0 22.8008 0 26.3555C0 29.8711 0.664063 33.1719 1.99219 36.2578C3.35938 39.3828 5.19531 42.0977 7.5 44.4023C9.80469 46.707 12.5195 48.543 15.6445 49.9102C18.7305 51.2383 22.0508 51.9023 25.6055 51.9023C28.8086 51.9023 31.8359 51.3457 34.6875 50.2324C37.5391 49.1191 40.0977 47.5859 42.3633 45.6328L56.9531 60.2227C57.1094 60.3789 57.3047 60.5059 57.5391 60.6035C57.7734 60.7012 57.9883 60.75 58.1836 60.75C58.418 60.75 58.6523 60.7109 58.8867 60.6328C59.1211 60.5547 59.3164 60.418 59.4727 60.2227C59.8242 59.8711 60 59.4512 60 58.9629C60 58.4746 59.8242 58.0547 59.4727 57.7031ZM3.57422 26.3555C3.57422 23.3086 4.16016 20.457 5.33203 17.8008C6.46484 15.1055 8.02734 12.7617 10.0195 10.7695C12.0117 8.77734 14.3555 7.21484 17.0508 6.08203C19.707 4.91016 22.5586 4.32422 25.6055 4.32422C28.6133 4.32422 31.4648 4.91016 34.1602 6.08203C36.8164 7.21484 39.1406 8.77734 41.1328 10.7695C43.125 12.7617 44.6875 15.1055 45.8203 17.8008C46.9922 20.457 47.5781 23.3086 47.5781 26.3555C47.5781 29.3633 46.9922 32.2148 45.8203 34.9102C44.6875 37.5664 43.125 39.8906 41.1328 41.8828C39.1406 43.875 36.8164 45.457 34.1602 46.6289C31.4648 47.7617 28.6133 48.3281 25.6055 48.3281C22.5586 48.3281 19.707 47.7617 17.0508 46.6289C14.3555 45.457 12.0117 43.875 10.0195 41.8828C8.02734 39.8906 6.46484 37.5664 5.33203 34.9102C4.16016 32.2148 3.57422 29.3633 3.57422 26.3555Z" fill="white"/>
</svg>
