<svg width="15" height="12" viewBox="0 0 15 12" fill="none" xmlns="http://www.w3.org/2000/svg">
<path d="M10.5993 4.12445C10.5993 4.68324 10.4596 5.21239 10.1802 5.71191C9.90926 6.20296 9.53462 6.63263 9.05627 7.00092C8.57791 7.36921 8.01701 7.65919 7.37356 7.87085C6.73011 8.08251 6.04433 8.18834 5.31622 8.18834C4.79977 8.18834 4.30236 8.13331 3.82401 8.02325C3.34566 7.91318 2.89905 7.75655 2.4842 7.55336C2.21327 7.71422 1.88731 7.86027 1.50632 7.9915C1.12533 8.12273 0.702012 8.18834 0.236358 8.18834C0.194026 8.18834 0.155927 8.17776 0.122061 8.15659C0.0881957 8.13543 0.0627964 8.10368 0.0458635 8.06135C0.0289307 8.02748 0.0246974 7.98938 0.0331639 7.94705C0.0416303 7.90472 0.0585632 7.87085 0.0839625 7.84545C0.0924289 7.84545 0.204609 7.70999 0.420503 7.43906C0.636397 7.16814 0.829009 6.84218 0.998338 6.46119C0.693546 6.131 0.456486 5.76694 0.287157 5.36902C0.117828 4.9711 0.0331639 4.55624 0.0331639 4.12445C0.0331639 3.56567 0.17286 3.03652 0.452252 2.537C0.723178 2.04594 1.09782 1.61627 1.57617 1.24798C2.05453 0.879691 2.61543 0.589716 3.25888 0.378055C3.90232 0.166394 4.58811 0.060564 5.31622 0.060564C6.04433 0.060564 6.73011 0.166394 7.37356 0.378055C8.01701 0.589716 8.57791 0.879691 9.05627 1.24798C9.53462 1.61627 9.90926 2.04594 10.1802 2.537C10.4596 3.03652 10.5993 3.56567 10.5993 4.12445ZM13.698 9.7123C13.8673 10.0933 14.0599 10.4192 14.2758 10.6902C14.4917 10.9611 14.6039 11.0966 14.6124 11.0966C14.6378 11.1304 14.6547 11.1664 14.6632 11.2045C14.6716 11.2426 14.6674 11.2786 14.6505 11.3125C14.6335 11.3548 14.6081 11.3865 14.5743 11.4077C14.5404 11.4289 14.5023 11.4395 14.46 11.4395C13.9943 11.4395 13.571 11.3738 13.19 11.2426C12.809 11.1114 12.4831 10.9653 12.2121 10.8045C11.7973 11.0077 11.3528 11.1643 10.8787 11.2744C10.4045 11.3844 9.90503 11.4395 9.38011 11.4395C8.82979 11.4395 8.30487 11.3802 7.80535 11.2617C7.30583 11.1347 6.84441 10.9611 6.42109 10.741C5.99777 10.5208 5.62524 10.2584 5.30352 9.95359C4.97333 9.6488 4.71087 9.31438 4.51614 8.95032C4.64314 8.96725 4.77437 8.97995 4.90983 8.98842C5.04529 8.99689 5.18076 9.00112 5.31622 9.00112C6.1544 9.00112 6.94601 8.87412 7.69105 8.62013C8.42763 8.36614 9.07108 8.0169 9.6214 7.57241C10.1717 7.12792 10.6077 6.60935 10.9295 6.0167C11.2512 5.42405 11.4121 4.7933 11.4121 4.12445C11.4121 4.03979 11.4099 3.95512 11.4057 3.87046C11.4015 3.7858 11.3909 3.70113 11.374 3.61647C11.8565 3.76886 12.301 3.96782 12.7074 4.21335C13.1053 4.46734 13.4503 4.75732 13.7424 5.08328C14.0345 5.40923 14.261 5.76694 14.4219 6.1564C14.5827 6.54585 14.6632 6.95224 14.6632 7.37556C14.6632 7.80735 14.5785 8.22221 14.4092 8.62013C14.2398 9.01805 14.0028 9.38211 13.698 9.7123Z" fill="#EEC044"/>
</svg>
