<svg width="13" height="14" viewBox="0 0 13 14" fill="none" xmlns="http://www.w3.org/2000/svg">
<path d="M6.295 0.455013C7.16649 0.455013 7.98297 0.620004 8.74447 0.949984C9.50596 1.27996 10.1723 1.73051 10.7434 2.30163C11.3145 2.87275 11.765 3.53906 12.095 4.30055C12.425 5.06204 12.59 5.87853 12.59 6.75001C12.59 7.6215 12.425 8.43799 12.095 9.19948C11.765 9.96097 11.3145 10.6273 10.7434 11.1984C10.1723 11.7695 9.50596 12.2201 8.74447 12.55C7.98297 12.88 7.16649 13.045 6.295 13.045C5.42351 13.045 4.60703 12.88 3.84553 12.55C3.08404 12.2201 2.41774 11.7695 1.84662 11.1984C1.2755 10.6273 0.82495 9.96097 0.49497 9.19948C0.16499 8.43799 0 7.6215 0 6.75001C0 5.87853 0.16499 5.06204 0.49497 4.30055C0.82495 3.53906 1.2755 2.87275 1.84662 2.30163C2.41774 1.73051 3.08404 1.27996 3.84553 0.949984C4.60703 0.620004 5.42351 0.455013 6.295 0.455013ZM6.295 2.89179C5.67735 2.89179 5.15065 3.10966 4.7149 3.5454C4.27916 3.98114 4.06129 4.50784 4.06129 5.1255C4.06129 5.74315 4.27916 6.26985 4.7149 6.70559C5.15065 7.14134 5.67735 7.35921 6.295 7.35921C6.91265 7.35921 7.43935 7.14134 7.8751 6.70559C8.31084 6.26985 8.52871 5.74315 8.52871 5.1255C8.52871 4.50784 8.31084 3.98114 7.8751 3.5454C7.43935 3.10966 6.91265 2.89179 6.295 2.89179ZM6.295 11.6236C6.66728 11.6236 7.02688 11.5813 7.37378 11.4966C7.72914 11.4205 8.06335 11.3063 8.37641 11.154C8.68947 11.0017 8.98561 10.8198 9.26482 10.6082C9.54403 10.3967 9.79363 10.1598 10.0136 9.89751C9.77671 9.44908 9.43615 9.08314 8.99195 8.7997C8.54775 8.51625 8.05489 8.37453 7.51339 8.37453C7.47954 8.37453 7.44781 8.37664 7.4182 8.38088C7.38859 8.38511 7.36109 8.39145 7.33571 8.39991C7.16649 8.45068 6.99515 8.49298 6.8217 8.52683C6.64825 8.56067 6.47268 8.57759 6.295 8.57759C6.11732 8.57759 5.94175 8.56067 5.7683 8.52683C5.59485 8.49298 5.42351 8.45068 5.25429 8.39991C5.22891 8.39145 5.20141 8.38511 5.1718 8.38088C5.14219 8.37664 5.11046 8.37453 5.07661 8.37453C4.53511 8.37453 4.04225 8.51625 3.59805 8.7997C3.15385 9.08314 2.81329 9.44908 2.57638 9.89751C2.79637 10.1598 3.04597 10.3967 3.32518 10.6082C3.6044 10.8198 3.90053 11.0017 4.21359 11.154C4.52665 11.3063 4.86086 11.4205 5.21622 11.4966C5.56312 11.5813 5.92272 11.6236 6.295 11.6236Z" fill="#EEC044"/>
</svg>
