<svg width="14" height="13" viewBox="0 0 14 13" fill="none" xmlns="http://www.w3.org/2000/svg">
<path d="M6.98535 3.60547C7.42285 3.60547 7.83301 3.6875 8.21582 3.85156C8.59863 4.01562 8.93132 4.23893 9.21387 4.52148C9.49642 4.80404 9.71973 5.13672 9.88379 5.51953C10.0479 5.90234 10.1299 6.3125 10.1299 6.75C10.1299 7.17839 10.0479 7.58398 9.88379 7.9668C9.71973 8.34961 9.49642 8.68457 9.21387 8.97168C8.93132 9.25879 8.59863 9.48438 8.21582 9.64844C7.83301 9.8125 7.42285 9.89453 6.98535 9.89453C6.55697 9.89453 6.15137 9.8125 5.76855 9.64844C5.38574 9.48438 5.05078 9.25879 4.76367 8.97168C4.47656 8.68457 4.25098 8.34961 4.08691 7.9668C3.92285 7.58398 3.84082 7.17839 3.84082 6.75C3.84082 6.3125 3.92285 5.90234 4.08691 5.51953C4.25098 5.13672 4.47656 4.80404 4.76367 4.52148C5.05078 4.23893 5.38574 4.01562 5.76855 3.85156C6.15137 3.6875 6.55697 3.60547 6.98535 3.60547ZM6.98535 8.78711C7.55046 8.78711 8.03353 8.58887 8.43457 8.19238C8.83561 7.7959 9.03613 7.3151 9.03613 6.75C9.03613 6.1849 8.83561 5.70182 8.43457 5.30078C8.03353 4.89974 7.55046 4.69922 6.98535 4.69922C6.42025 4.69922 5.93945 4.89974 5.54297 5.30078C5.14648 5.70182 4.94824 6.1849 4.94824 6.75C4.94824 7.3151 5.14876 7.7959 5.5498 8.19238C5.95085 8.58887 6.42936 8.78711 6.98535 8.78711ZM10.9912 3.48242C10.9912 3.68294 10.9206 3.85384 10.7793 3.99512C10.638 4.13639 10.4626 4.20703 10.2529 4.20703C10.0524 4.20703 9.88151 4.13639 9.74023 3.99512C9.59896 3.85384 9.52832 3.68294 9.52832 3.48242C9.52832 3.27279 9.59896 3.09733 9.74023 2.95605C9.88151 2.81478 10.0524 2.74414 10.2529 2.74414C10.4626 2.74414 10.638 2.81478 10.7793 2.95605C10.9206 3.09733 10.9912 3.27279 10.9912 3.48242ZM13.0693 4.2207C13.0876 4.47591 13.1012 4.83594 13.1104 5.30078C13.1104 5.75651 13.1104 6.2373 13.1104 6.74316C13.1104 7.24902 13.1104 7.73438 13.1104 8.19922C13.1012 8.66406 13.0876 9.02409 13.0693 9.2793C13.0511 9.76237 12.9714 10.2204 12.8301 10.6533C12.6888 11.0863 12.4404 11.4805 12.085 11.8359C11.7295 12.2005 11.3353 12.4512 10.9023 12.5879C10.4694 12.7246 10.0068 12.8066 9.51465 12.834C9.25944 12.8431 8.89941 12.8522 8.43457 12.8613C7.97884 12.8704 7.49805 12.875 6.99219 12.875C6.48633 12.875 6.00098 12.8704 5.53613 12.8613C5.07129 12.8522 4.71126 12.8431 4.45605 12.834C3.96387 12.8066 3.50358 12.7246 3.0752 12.5879C2.64681 12.4512 2.25033 12.2005 1.88574 11.8359C1.53027 11.4805 1.28418 11.0863 1.14746 10.6533C1.01074 10.2204 0.928711 9.76237 0.901367 9.2793C0.883138 9.02409 0.874023 8.66406 0.874023 8.19922C0.864909 7.73438 0.860352 7.24902 0.860352 6.74316C0.860352 6.2373 0.864909 5.75195 0.874023 5.28711C0.874023 4.83138 0.883138 4.47591 0.901367 4.2207C0.928711 3.72852 1.01074 3.26595 1.14746 2.83301C1.28418 2.40007 1.53027 2.00586 1.88574 1.65039C2.25033 1.29492 2.64909 1.04655 3.08203 0.905273C3.51497 0.763997 3.97298 0.684245 4.45605 0.666016C4.71126 0.647786 5.07129 0.634114 5.53613 0.625C6.00098 0.625 6.48633 0.625 6.99219 0.625C7.49805 0.625 7.97884 0.625 8.43457 0.625C8.89941 0.634114 9.25944 0.647786 9.51465 0.666016C10.0068 0.693359 10.4694 0.775391 10.9023 0.912109C11.3353 1.04883 11.7295 1.29492 12.085 1.65039C12.4404 2.01497 12.6888 2.41146 12.8301 2.83984C12.9714 3.26823 13.0511 3.72852 13.0693 4.2207ZM11.7705 10.3594C11.8434 10.1589 11.8981 9.89909 11.9346 9.58008C11.971 9.26107 11.9961 8.92839 12.0098 8.58203C12.0234 8.23568 12.0257 7.89844 12.0166 7.57031C12.0166 7.24219 12.0166 6.96875 12.0166 6.75C12.0166 6.52214 12.0166 6.24414 12.0166 5.91602C12.0257 5.58789 12.0234 5.25065 12.0098 4.9043C11.9961 4.55794 11.971 4.22982 11.9346 3.91992C11.8981 3.60091 11.8434 3.34115 11.7705 3.14062C11.6611 2.86719 11.5062 2.63021 11.3057 2.42969C11.1051 2.22917 10.8682 2.07422 10.5947 1.96484C10.3942 1.89193 10.1344 1.83724 9.81543 1.80078C9.50553 1.76432 9.17741 1.73926 8.83105 1.72559C8.4847 1.71191 8.14746 1.70964 7.81934 1.71875C7.49121 1.71875 7.21322 1.71875 6.98535 1.71875C6.7666 1.71875 6.49316 1.71875 6.16504 1.71875C5.83691 1.70964 5.49967 1.71191 5.15332 1.72559C4.80697 1.73926 4.47428 1.76432 4.15527 1.80078C3.83626 1.83724 3.5765 1.89193 3.37598 1.96484C3.10254 2.07422 2.86556 2.22917 2.66504 2.42969C2.46452 2.63021 2.31413 2.86719 2.21387 3.14062C2.13184 3.34115 2.07259 3.60091 2.03613 3.91992C1.99967 4.22982 1.97689 4.55794 1.96777 4.9043C1.95866 5.25065 1.9541 5.58789 1.9541 5.91602C1.96322 6.24414 1.96777 6.52214 1.96777 6.75C1.96777 6.96875 1.96322 7.24219 1.9541 7.57031C1.9541 7.89844 1.95866 8.23568 1.96777 8.58203C1.97689 8.92839 1.99967 9.26107 2.03613 9.58008C2.07259 9.89909 2.13184 10.1589 2.21387 10.3594C2.32324 10.6328 2.47819 10.8675 2.67871 11.0635C2.87923 11.2594 3.11165 11.4121 3.37598 11.5215C3.5765 11.6035 3.83626 11.6628 4.15527 11.6992C4.47428 11.7357 4.80697 11.7585 5.15332 11.7676C5.49967 11.7767 5.83691 11.7812 6.16504 11.7812C6.49316 11.7721 6.7666 11.7676 6.98535 11.7676C7.21322 11.7676 7.49121 11.7721 7.81934 11.7812C8.14746 11.7812 8.4847 11.7767 8.83105 11.7676C9.17741 11.7585 9.50553 11.7357 9.81543 11.6992C10.1344 11.6628 10.3942 11.6035 10.5947 11.5215C10.8682 11.4121 11.1051 11.2572 11.3057 11.0566C11.5062 10.8561 11.6611 10.6237 11.7705 10.3594Z" fill="#1F1E17"/>
</svg>
