<svg width="15" height="12" viewBox="0 0 15 12" fill="none" xmlns="http://www.w3.org/2000/svg">
<path d="M13.4248 2.89258C13.4248 2.95638 13.4248 3.02018 13.4248 3.08398C13.4248 3.14779 13.4248 3.21159 13.4248 3.27539C13.4248 4.22331 13.2471 5.18034 12.8916 6.14648C12.5361 7.11263 12.0143 7.98763 11.3262 8.77148C10.638 9.55534 9.78353 10.1979 8.7627 10.6992C7.75098 11.1914 6.58431 11.4375 5.2627 11.4375C4.86165 11.4375 4.46517 11.4102 4.07324 11.3555C3.68132 11.2917 3.30078 11.2051 2.93164 11.0957C2.5625 10.9863 2.20475 10.8542 1.8584 10.6992C1.51204 10.5352 1.17936 10.3529 0.860352 10.1523C0.978841 10.1615 1.09505 10.1683 1.20898 10.1729C1.32292 10.1774 1.43913 10.1797 1.55762 10.1797C2.22298 10.1797 2.85872 10.0726 3.46484 9.8584C4.07096 9.64421 4.62012 9.3457 5.1123 8.96289C4.4834 8.94466 3.92513 8.7487 3.4375 8.375C2.94987 8.0013 2.61491 7.5319 2.43262 6.9668C2.52376 6.97591 2.61263 6.98503 2.69922 6.99414C2.78581 7.00326 2.87923 7.00781 2.97949 7.00781C3.1071 7.00781 3.2347 7.00098 3.3623 6.9873C3.48991 6.97363 3.61296 6.94857 3.73145 6.91211C3.0752 6.77539 2.52832 6.44727 2.09082 5.92773C1.65332 5.4082 1.43457 4.79753 1.43457 4.0957V4.06836C1.62598 4.16862 1.83105 4.25065 2.0498 4.31445C2.26855 4.37826 2.49186 4.41471 2.71973 4.42383C2.33691 4.16862 2.0293 3.83138 1.79688 3.41211C1.56445 2.99284 1.44824 2.53255 1.44824 2.03125C1.44824 1.76693 1.48242 1.514 1.55078 1.27246C1.61914 1.03092 1.71257 0.805339 1.83105 0.595703C2.18652 1.02409 2.58301 1.41602 3.02051 1.77148C3.45801 2.12695 3.92741 2.43457 4.42871 2.69434C4.93001 2.9541 5.46322 3.16146 6.02832 3.31641C6.58431 3.47135 7.15853 3.5625 7.75098 3.58984C7.73275 3.48047 7.7168 3.37109 7.70312 3.26172C7.68945 3.15234 7.68262 3.04297 7.68262 2.93359C7.68262 2.54167 7.75553 2.16797 7.90137 1.8125C8.05631 1.46615 8.26367 1.16309 8.52344 0.90332C8.7832 0.643555 9.08626 0.440755 9.43262 0.294922C9.77897 0.139974 10.1527 0.0625 10.5537 0.0625C10.9639 0.0625 11.349 0.144531 11.709 0.308594C12.069 0.472656 12.3812 0.691406 12.6455 0.964844C12.9736 0.910156 13.2904 0.823567 13.5957 0.705078C13.901 0.586589 14.1904 0.445312 14.4639 0.28125C14.3636 0.609375 14.2041 0.910156 13.9854 1.18359C13.7666 1.45703 13.5068 1.68034 13.2061 1.85352C13.4977 1.82617 13.7826 1.77376 14.0605 1.69629C14.3385 1.61882 14.6051 1.52539 14.8604 1.41602C14.6689 1.69857 14.4502 1.96517 14.2041 2.21582C13.958 2.46647 13.6982 2.69206 13.4248 2.89258Z" fill="#1F1E17"/>
</svg>
