<svg width="541" height="248" viewBox="0 0 541 248" fill="none" xmlns="http://www.w3.org/2000/svg">
<path d="M0.929688 85.1172C0.929688 80.4297 1.24219 75.7812 1.86719 71.1719C2.49219 66.5625 3.03906 61.9531 3.50781 57.3438C3.50781 57.1094 3.54688 56.6016 3.625 55.8203C3.70312 54.9609 3.78125 54.0625 3.85938 53.125C4.01562 52.1875 4.13281 51.3281 4.21094 50.5469C4.36719 49.6875 4.44531 49.1406 4.44531 48.9062V48.4375L9.36719 11.875C9.21094 10.3125 9.44531 8.94531 10.0703 7.77344C10.7734 6.52344 12.0234 5.89844 13.8203 5.89844C15.7734 5.66406 17.375 5.9375 18.625 6.71875C19.9531 7.42188 21.0469 8.35938 21.9062 9.53125C22.7656 10.7031 23.4688 11.9922 24.0156 13.3984C24.5625 14.8047 25.1484 16.0938 25.7734 17.2656C26.1641 18.3594 26.6328 19.6484 27.1797 21.1328C27.8047 22.6172 28.5078 24.4922 29.2891 26.7578C30.1484 29.0234 31.125 31.7969 32.2188 35.0781C33.3906 38.3594 34.7188 42.3438 36.2031 47.0312L36.6719 47.5C37.2188 47.1875 38.2344 46.6797 39.7188 45.9766C41.2812 45.2734 42.8828 44.5312 44.5234 43.75C46.2422 42.9688 47.8438 42.2266 49.3281 41.5234C50.8125 40.8203 51.8672 40.3516 52.4922 40.1172C52.5703 39.9609 52.7656 39.8438 53.0781 39.7656C53.4688 39.6094 53.7422 39.4922 53.8984 39.4141H54.1328C54.9141 39.4141 55.5 39.7266 55.8906 40.3516C56.2812 40.8984 56.4766 41.4453 56.4766 41.9922C56.4766 42.8516 56.2812 43.5938 55.8906 44.2188C55.5 44.8438 55.0312 45.4297 54.4844 45.9766C54.0156 46.4453 53.4688 46.9141 52.8438 47.3828C52.2969 47.8516 51.8672 48.3594 51.5547 48.9062L39.9531 54.7656C39.6406 55.1562 39.4844 55.4688 39.4844 55.7031C39.4844 56.3281 39.7969 57.3047 40.4219 58.6328C41.125 59.9609 41.6719 61.0156 42.0625 61.7969C42.2969 62.2656 42.6875 63.125 43.2344 64.375C43.7812 65.625 44.3672 66.9141 44.9922 68.2422C45.6172 69.5703 46.2031 70.8594 46.75 72.1094C47.375 73.2812 47.8047 74.1016 48.0391 74.5703V74.9219C48.0391 77.7344 46.6328 79.1406 43.8203 79.1406C42.9609 79.1406 42.0625 79.0625 41.125 78.9062C40.1875 78.6719 39.4844 78.0859 39.0156 77.1484L31.1641 60.3906H30.1094C27.1406 62.6562 23.9766 64.8828 20.6172 67.0703C17.2578 69.2578 13.8203 71.1328 10.3047 72.6953C9.75781 75.5078 9.40625 78.3594 9.25 81.25C9.17188 84.1406 9.21094 87.0312 9.36719 89.9219C8.74219 90.7812 8.11719 91.4453 7.49219 91.9141C6.86719 92.3047 6.00781 92.5 4.91406 92.5C3.82031 92.5 3 92.2656 2.45312 91.7969C1.90625 91.25 1.51562 90.625 1.28125 89.9219C1.04688 89.1406 0.929688 88.3203 0.929688 87.4609C0.929688 86.6016 0.929688 85.8203 0.929688 85.1172ZM11.3594 62.3828C13.7031 61.4453 15.9688 60.1953 18.1562 58.6328C20.4219 57.0703 22.5703 55.625 24.6016 54.2969C24.8359 54.1406 25.1094 53.9844 25.4219 53.8281C25.8125 53.6719 26.1641 53.4766 26.4766 53.2422C26.7891 53.0078 27.1797 52.7344 27.6484 52.4219V51.4844L16.8672 20.7812L16.3984 20.3125C16.1641 20.7812 15.8516 22.1094 15.4609 24.2969C15.1484 26.4844 14.7578 29.3359 14.2891 32.8516C13.8984 36.2891 13.4297 40.2734 12.8828 44.8047C12.4141 49.3359 11.9062 54.1797 11.3594 59.3359V62.3828ZM66.0859 133.398C65.7734 132.539 65.7734 131.562 66.0859 130.469C66.4766 129.375 67.2188 128.672 68.3125 128.359C70.1094 129.141 71.9844 129.648 73.9375 129.883C75.8906 130.117 77.8438 130.156 79.7969 130C81.8281 129.844 83.8203 129.531 85.7734 129.062C87.7266 128.594 89.6016 128.047 91.3984 127.422C93.1953 125.938 94.4453 123.984 95.1484 121.562C95.8516 119.219 96.125 115.977 95.9688 111.836C95.8125 107.773 95.2656 102.656 94.3281 96.4844C93.4688 90.3906 92.3359 82.8906 90.9297 73.9844C90.9297 73.75 90.9297 73.3984 90.9297 72.9297C91.0078 72.4609 91.0078 72.0312 90.9297 71.6406C90.8516 71.1719 90.6953 70.8203 90.4609 70.5859C90.3047 70.3516 90.0703 70.3516 89.7578 70.5859C88.7422 72.5391 87.5312 74.6875 86.125 77.0312C84.7969 79.2969 83.2344 81.4453 81.4375 83.4766C79.7188 85.4297 77.7656 87.0703 75.5781 88.3984C73.4688 89.7266 71.0859 90.3906 68.4297 90.3906C66.0859 90.3906 64.0156 89.7266 62.2188 88.3984C60.5 86.9922 59.6406 85 59.6406 82.4219C59.6406 80.4688 60.0312 78.0078 60.8125 75.0391C61.6719 72.0703 62.8047 68.9453 64.2109 65.6641C65.6172 62.3047 67.2578 58.9844 69.1328 55.7031C71.0078 52.4219 72.9609 49.4531 74.9922 46.7969C77.0234 44.1406 79.0938 41.9922 81.2031 40.3516C83.3125 38.6328 85.3438 37.7734 87.2969 37.7734C88.0781 37.7734 89.0938 37.9297 90.3438 38.2422C91.6719 38.4766 92.9219 38.8672 94.0938 39.4141C95.3438 39.9609 96.3984 40.5859 97.2578 41.2891C98.1953 41.9922 98.6641 42.8125 98.6641 43.75V53.2422L106.281 108.555C106.281 111.68 106.203 114.648 106.047 117.461C105.969 120.352 105.461 123.008 104.523 125.43C103.664 127.852 102.258 130 100.305 131.875C98.3516 133.75 95.5391 135.273 91.8672 136.445C91.3984 136.68 90.4219 136.875 88.9375 137.031C87.4531 137.188 85.7344 137.305 83.7812 137.383C81.9062 137.461 79.875 137.461 77.6875 137.383C75.5781 137.305 73.625 137.109 71.8281 136.797C70.1094 136.562 68.7031 136.172 67.6094 135.625C66.5156 135.078 66.0078 134.336 66.0859 133.398ZM84.3672 48.2031C83.5859 49.0625 82.5312 50.4297 81.2031 52.3047C79.9531 54.1797 78.6641 56.25 77.3359 58.5156C76.0078 60.7812 74.6797 63.1641 73.3516 65.6641C72.1016 68.0859 71.0859 70.3516 70.3047 72.4609C69.5234 74.5703 69.0156 76.3672 68.7812 77.8516C68.625 79.3359 68.9766 80.2344 69.8359 80.5469C71.4766 79.6875 73.2344 78.2812 75.1094 76.3281C76.9844 74.2969 78.7422 72.0703 80.3828 69.6484C82.1016 67.1484 83.5859 64.6094 84.8359 62.0312C86.1641 59.375 87.0625 56.9922 87.5312 54.8828C88.0781 52.7734 88.1172 51.0938 87.6484 49.8438C87.2578 48.5156 86.1641 47.9688 84.3672 48.2031ZM114.367 87.4609C114.211 84.6484 113.938 80.8984 113.547 76.2109C113.234 71.4453 112.844 66.5234 112.375 61.4453C111.984 56.3672 111.555 51.5625 111.086 47.0312C110.617 42.5 110.227 38.9844 109.914 36.4844C109.914 35.4688 110.383 34.8047 111.32 34.4922C112.258 34.1797 113.156 34.0234 114.016 34.0234C115.109 34.0234 116.242 34.3359 117.414 34.9609C118.664 35.5859 119.445 36.4453 119.758 37.5391C119.758 37.8516 119.797 38.4375 119.875 39.2969C119.953 40.0781 119.992 40.8984 119.992 41.7578C120.07 42.6172 120.148 43.4766 120.227 44.3359C120.305 45.1172 120.344 45.6641 120.344 45.9766C120.344 46.4453 120.344 46.7969 120.344 47.0312C120.344 47.2656 120.344 47.5 120.344 47.7344C120.344 47.8906 120.383 48.0859 120.461 48.3203C120.539 48.5547 120.656 48.9453 120.812 49.4922C120.969 49.3359 121.125 49.1406 121.281 48.9062C121.516 48.6719 121.672 48.5156 121.75 48.4375C123 46.6406 124.211 45.0781 125.383 43.75C126.555 42.3438 127.766 41.0547 129.016 39.8828C130.266 38.6328 131.633 37.3438 133.117 36.0156C134.68 34.6094 136.477 33.0078 138.508 31.2109C138.977 30.8203 139.328 30.5469 139.562 30.3906C139.797 30.1562 139.992 30 140.148 29.9219C140.383 29.7656 140.617 29.6875 140.852 29.6875C141.086 29.6094 141.398 29.5703 141.789 29.5703C143.117 29.5703 144.445 30.0391 145.773 30.9766C147.18 31.8359 147.883 33.0469 147.883 34.6094C147.883 35.1562 147.688 35.7422 147.297 36.3672C146.906 36.9141 146.438 37.4609 145.891 38.0078C145.344 38.4766 144.758 38.9062 144.133 39.2969C143.586 39.6875 143.078 39.9609 142.609 40.1172C140.578 41.9141 138.43 43.9844 136.164 46.3281C133.898 48.5938 131.789 51.0547 129.836 53.7109C127.883 56.3672 126.281 59.1406 125.031 62.0312C123.781 64.9219 123.156 67.8125 123.156 70.7031C123.156 73.3594 123.352 75.9766 123.742 78.5547C124.133 81.1328 124.328 83.75 124.328 86.4062V90.5078C123.703 91.1328 123.156 91.6406 122.688 92.0312C122.219 92.4219 121.555 92.6172 120.695 92.6172C119.367 92.6172 118.078 92.0703 116.828 90.9766C115.578 89.8047 114.758 88.6328 114.367 87.4609ZM156.438 88.0469C155.656 80.2344 154.992 73.5547 154.445 68.0078C153.898 62.4609 153.43 57.8125 153.039 54.0625C152.648 50.3125 152.297 47.3438 151.984 45.1562C151.75 42.8906 151.555 41.2109 151.398 40.1172C151.242 38.9453 151.125 38.1641 151.047 37.7734C150.969 37.3828 150.93 37.1484 150.93 37.0703V36.6016C150.93 35.7422 151.281 35.0391 151.984 34.4922C152.766 33.8672 153.547 33.5547 154.328 33.5547C155.5 33.5547 156.75 33.75 158.078 34.1406C159.484 34.5312 160.422 35.3516 160.891 36.6016C161.594 40.4297 162.062 44.2969 162.297 48.2031C162.609 52.1094 162.844 56.0156 163 59.9219C163.234 63.75 163.508 67.6172 163.82 71.5234C164.211 75.4297 164.875 79.2969 165.812 83.125C165.812 83.2812 165.852 83.5938 165.93 84.0625C166.086 84.5312 166.203 85.0391 166.281 85.5859C166.438 86.1328 166.555 86.6406 166.633 87.1094C166.711 87.5781 166.75 87.8906 166.75 88.0469V88.2812C166.75 88.3594 166.789 88.4375 166.867 88.5156C166.867 89.4531 166.438 90.3906 165.578 91.3281C164.719 92.2656 163.82 92.6562 162.883 92.5C162.648 92.4219 162.062 92.3047 161.125 92.1484C160.266 91.9141 159.68 91.7188 159.367 91.5625C159.133 91.4844 158.82 91.3281 158.43 91.0938C158.039 90.7812 157.648 90.4688 157.258 90.1562C156.945 89.8438 156.672 89.4922 156.438 89.1016C156.203 88.7109 156.203 88.3594 156.438 88.0469ZM149.875 2.61719C149.875 2.07031 150.305 1.60156 151.164 1.21094C152.102 0.742188 152.805 0.507812 153.273 0.507812C154.445 0.507812 155.734 0.859375 157.141 1.5625C158.625 2.1875 159.367 3.16406 159.367 4.49219C159.367 5.82031 159.172 6.71875 158.781 7.1875C158.469 7.65625 157.648 7.89062 156.32 7.89062C154.914 7.89062 153.469 7.42188 151.984 6.48438C150.578 5.54688 149.875 4.25781 149.875 2.61719ZM171.203 78.4375C170.656 76.0938 170.656 73.3203 171.203 70.1172C171.828 66.9141 172.766 63.7109 174.016 60.5078C175.344 57.2266 176.945 54.1406 178.82 51.25C180.773 48.3594 182.805 46.0547 184.914 44.3359C187.102 42.6172 189.289 41.6797 191.477 41.5234C193.742 41.2891 195.891 42.2656 197.922 44.4531C197.922 44.5312 197.961 44.7266 198.039 45.0391C198.117 45.3516 198.195 46.0156 198.273 47.0312C198.352 47.9688 198.391 49.3359 198.391 51.1328C198.469 52.8516 198.508 55.2344 198.508 58.2812C198.586 58.4375 198.664 58.7109 198.742 59.1016C198.898 59.4141 198.977 59.6484 198.977 59.8047C198.742 60.6641 198.273 61.4844 197.57 62.2656C196.945 62.9688 196.125 63.3203 195.109 63.3203C193.781 63.3203 192.688 63.125 191.828 62.7344C191.047 62.2656 190.461 61.2109 190.07 59.5703C190.227 59.3359 190.266 58.8672 190.188 58.1641C190.109 57.3828 189.953 56.5234 189.719 55.5859C189.562 54.6484 189.406 53.7109 189.25 52.7734C189.094 51.8359 189.016 51.0938 189.016 50.5469C188.938 50.5469 188.82 50.625 188.664 50.7812C188.586 50.8594 188.508 50.9375 188.43 51.0156C187.102 53.3594 185.852 55.9766 184.68 58.8672C183.586 61.6797 182.727 64.5703 182.102 67.5391C181.555 70.4297 181.359 73.3203 181.516 76.2109C181.75 79.1016 182.609 81.7188 184.094 84.0625C185.188 84.0625 186.203 83.6328 187.141 82.7734C188.078 81.8359 188.859 80.9766 189.484 80.1953C190.812 78.6328 192.102 77.0312 193.352 75.3906C194.68 73.75 195.891 72.0312 196.984 70.2344C197.453 69.4531 197.805 68.75 198.039 68.125C198.273 67.5 198.547 66.9922 198.859 66.6016C199.25 66.2109 199.719 65.8984 200.266 65.6641C200.812 65.4297 201.633 65.3125 202.727 65.3125C203.977 65.3125 205.148 65.625 206.242 66.25C207.336 66.7969 207.883 67.7344 207.883 69.0625C207.883 70.8594 207.062 73.125 205.422 75.8594C203.859 78.5156 201.906 81.0938 199.562 83.5938C197.297 86.0938 194.875 88.2422 192.297 90.0391C189.719 91.7578 187.453 92.6172 185.5 92.6172C183.625 92.6172 181.789 92.2656 179.992 91.5625C178.273 90.7812 176.75 89.7656 175.422 88.5156C174.172 87.2656 173.156 85.7812 172.375 84.0625C171.594 82.3438 171.203 80.4688 171.203 78.4375ZM235.891 81.3672C235.344 82.5391 234.797 83.8281 234.25 85.2344C233.703 86.5625 233.078 87.7734 232.375 88.8672C231.672 89.9609 230.812 90.8984 229.797 91.6797C228.781 92.3828 227.492 92.7344 225.93 92.7344C223.195 92.7344 220.93 92.0703 219.133 90.7422C217.336 89.3359 215.852 87.6172 214.68 85.5859C213.586 83.4766 212.805 81.2109 212.336 78.7891C211.867 76.3672 211.633 74.1016 211.633 71.9922L212.57 43.6328C212.492 43.0859 212.609 42.5391 212.922 41.9922C213.312 41.3672 213.781 40.8203 214.328 40.3516C214.953 39.8047 215.617 39.375 216.32 39.0625C217.102 38.75 217.805 38.5938 218.43 38.5938C220.227 38.5938 221.75 39.1797 223 40.3516C224.25 41.4453 224.875 42.8906 224.875 44.6875V45.8594C224.016 47.2656 223.273 49.1016 222.648 51.3672C222.023 53.6328 221.516 56.0938 221.125 58.75C220.812 61.3281 220.617 63.9844 220.539 66.7188C220.461 69.4531 220.539 71.9531 220.773 74.2188C221.086 76.4844 221.555 78.4375 222.18 80.0781C222.805 81.6406 223.625 82.5781 224.641 82.8906C225.031 82.8906 225.617 82.6953 226.398 82.3047C227.258 81.9141 228.156 81.1719 229.094 80.0781C230.031 78.9844 231.008 77.4609 232.023 75.5078C233.039 73.4766 233.938 70.8203 234.719 67.5391C235.5 64.2578 236.086 60.2734 236.477 55.5859C236.867 50.8984 236.984 45.2734 236.828 38.7109C237.141 37.8516 237.57 37.3828 238.117 37.3047C238.742 37.2266 239.367 37.1875 239.992 37.1875C240.695 37.1875 241.281 37.2266 241.75 37.3047C242.219 37.3047 242.727 37.5781 243.273 38.125C243.664 38.5156 244.094 39.1016 244.562 39.8828C245.031 40.6641 245.266 41.0938 245.266 41.1719L247.258 93.0859C247.258 94.2578 246.945 95.2344 246.32 96.0156C245.695 96.7969 244.797 97.1875 243.625 97.1875C243.234 97.1875 242.766 97.1484 242.219 97.0703C241.672 96.9922 241.125 96.8359 240.578 96.6016C240.031 96.3672 239.523 96.0547 239.055 95.6641C238.664 95.3516 238.43 94.9609 238.352 94.4922L236.359 82.7734L235.891 81.3672ZM254.641 84.2969C254.641 81.0156 254.719 77.8125 254.875 74.6875C255.031 71.5625 255.109 68.3594 255.109 65.0781C254.875 56.1719 254.797 47.4609 254.875 38.9453C254.953 30.3516 254.562 21.5625 253.703 12.5781C253.703 11.0938 254.055 10.1172 254.758 9.64844C255.461 9.10156 256.516 8.82812 257.922 8.82812C259.719 8.82812 261.242 9.375 262.492 10.4688C263.82 11.4844 264.523 12.9297 264.602 14.8047C264.445 25.8984 264.562 36.9141 264.953 47.8516C265.422 58.7109 265.656 69.7266 265.656 80.8984V89.9219C265.188 90.5469 264.523 91.1719 263.664 91.7969C262.805 92.4219 261.945 92.6562 261.086 92.5C258.82 92.1094 257.18 91.2109 256.164 89.8047C255.148 88.3203 254.641 86.4844 254.641 84.2969ZM282.883 58.2812C281.789 58.2812 280.812 58.5547 279.953 59.1016C279.094 59.6484 278.078 59.9219 276.906 59.9219C276.75 59.9219 276.32 59.9219 275.617 59.9219C274.992 59.8438 274.602 59.8047 274.445 59.8047C274.133 59.4141 273.781 59.1016 273.391 58.8672C273 58.6328 272.609 58.3984 272.219 58.1641C271.828 57.8516 271.477 57.5 271.164 57.1094C270.93 56.7188 270.812 56.1719 270.812 55.4688C270.812 54.2969 271.281 53.3594 272.219 52.6562C273.156 51.875 274.25 51.2109 275.5 50.6641C276.75 50.1172 278 49.6094 279.25 49.1406C280.578 48.6719 281.633 48.125 282.414 47.5V42.3438C282.414 36.5625 282.141 30.7813 281.594 25C281.047 19.1406 280.773 13.3594 280.773 7.65625C280.773 6.09375 281.164 5.07812 281.945 4.60938C282.727 4.14062 283.781 3.90625 285.109 3.90625C286.672 3.90625 287.805 4.375 288.508 5.3125C289.289 6.17188 289.836 7.26562 290.148 8.59375C290.461 9.84375 290.617 11.2109 290.617 12.6953C290.617 14.1016 290.656 15.3125 290.734 16.3281C290.734 17.3437 290.812 19.1406 290.969 21.7188C291.125 24.2969 291.281 27.0313 291.438 29.9219C291.594 32.8125 291.75 35.5469 291.906 38.125C292.062 40.7031 292.18 42.5 292.258 43.5156C292.57 43.4375 293.156 43.2422 294.016 42.9297C294.953 42.5391 295.93 42.1875 296.945 41.875C297.961 41.4844 298.898 41.1328 299.758 40.8203C300.695 40.5078 301.359 40.2734 301.75 40.1172C303.781 39.2578 305.891 38.3203 308.078 37.3047C310.266 36.2109 312.492 35.6641 314.758 35.6641C316.32 35.6641 317.492 36.2109 318.273 37.3047C319.133 38.3203 319.562 39.5312 319.562 40.9375C319.562 41.9531 319.172 42.6953 318.391 43.1641C317.609 43.6328 316.789 44.0625 315.93 44.4531L294.602 52.4219C294.367 52.5781 294.133 52.7344 293.898 52.8906C293.664 52.9688 293.43 53.125 293.195 53.3594V57.1094C293.195 59.8438 293.234 62.6953 293.312 65.6641C293.469 68.5547 293.742 71.3672 294.133 74.1016C294.523 76.4453 294.953 78.75 295.422 81.0156C295.891 83.2812 296.125 85.5859 296.125 87.9297C296.125 88.6328 295.891 89.5703 295.422 90.7422C294.953 91.9141 294.211 92.5 293.195 92.5C291.086 92.5 289.367 91.875 288.039 90.625C286.711 89.375 285.969 87.6953 285.812 85.5859C285.422 81.5234 284.992 77.0703 284.523 72.2266C284.133 67.3828 283.742 62.7344 283.352 58.2812H282.883ZM346.516 81.3672C345.969 82.5391 345.422 83.8281 344.875 85.2344C344.328 86.5625 343.703 87.7734 343 88.8672C342.297 89.9609 341.438 90.8984 340.422 91.6797C339.406 92.3828 338.117 92.7344 336.555 92.7344C333.82 92.7344 331.555 92.0703 329.758 90.7422C327.961 89.3359 326.477 87.6172 325.305 85.5859C324.211 83.4766 323.43 81.2109 322.961 78.7891C322.492 76.3672 322.258 74.1016 322.258 71.9922L323.195 43.6328C323.117 43.0859 323.234 42.5391 323.547 41.9922C323.938 41.3672 324.406 40.8203 324.953 40.3516C325.578 39.8047 326.242 39.375 326.945 39.0625C327.727 38.75 328.43 38.5938 329.055 38.5938C330.852 38.5938 332.375 39.1797 333.625 40.3516C334.875 41.4453 335.5 42.8906 335.5 44.6875V45.8594C334.641 47.2656 333.898 49.1016 333.273 51.3672C332.648 53.6328 332.141 56.0938 331.75 58.75C331.438 61.3281 331.242 63.9844 331.164 66.7188C331.086 69.4531 331.164 71.9531 331.398 74.2188C331.711 76.4844 332.18 78.4375 332.805 80.0781C333.43 81.6406 334.25 82.5781 335.266 82.8906C335.656 82.8906 336.242 82.6953 337.023 82.3047C337.883 81.9141 338.781 81.1719 339.719 80.0781C340.656 78.9844 341.633 77.4609 342.648 75.5078C343.664 73.4766 344.562 70.8203 345.344 67.5391C346.125 64.2578 346.711 60.2734 347.102 55.5859C347.492 50.8984 347.609 45.2734 347.453 38.7109C347.766 37.8516 348.195 37.3828 348.742 37.3047C349.367 37.2266 349.992 37.1875 350.617 37.1875C351.32 37.1875 351.906 37.2266 352.375 37.3047C352.844 37.3047 353.352 37.5781 353.898 38.125C354.289 38.5156 354.719 39.1016 355.188 39.8828C355.656 40.6641 355.891 41.0938 355.891 41.1719L357.883 93.0859C357.883 94.2578 357.57 95.2344 356.945 96.0156C356.32 96.7969 355.422 97.1875 354.25 97.1875C353.859 97.1875 353.391 97.1484 352.844 97.0703C352.297 96.9922 351.75 96.8359 351.203 96.6016C350.656 96.3672 350.148 96.0547 349.68 95.6641C349.289 95.3516 349.055 94.9609 348.977 94.4922L346.984 82.7734L346.516 81.3672ZM369.602 87.4609C369.445 84.6484 369.172 80.8984 368.781 76.2109C368.469 71.4453 368.078 66.5234 367.609 61.4453C367.219 56.3672 366.789 51.5625 366.32 47.0312C365.852 42.5 365.461 38.9844 365.148 36.4844C365.148 35.4688 365.617 34.8047 366.555 34.4922C367.492 34.1797 368.391 34.0234 369.25 34.0234C370.344 34.0234 371.477 34.3359 372.648 34.9609C373.898 35.5859 374.68 36.4453 374.992 37.5391C374.992 37.8516 375.031 38.4375 375.109 39.2969C375.188 40.0781 375.227 40.8984 375.227 41.7578C375.305 42.6172 375.383 43.4766 375.461 44.3359C375.539 45.1172 375.578 45.6641 375.578 45.9766C375.578 46.4453 375.578 46.7969 375.578 47.0312C375.578 47.2656 375.578 47.5 375.578 47.7344C375.578 47.8906 375.617 48.0859 375.695 48.3203C375.773 48.5547 375.891 48.9453 376.047 49.4922C376.203 49.3359 376.359 49.1406 376.516 48.9062C376.75 48.6719 376.906 48.5156 376.984 48.4375C378.234 46.6406 379.445 45.0781 380.617 43.75C381.789 42.3438 383 41.0547 384.25 39.8828C385.5 38.6328 386.867 37.3438 388.352 36.0156C389.914 34.6094 391.711 33.0078 393.742 31.2109C394.211 30.8203 394.562 30.5469 394.797 30.3906C395.031 30.1562 395.227 30 395.383 29.9219C395.617 29.7656 395.852 29.6875 396.086 29.6875C396.32 29.6094 396.633 29.5703 397.023 29.5703C398.352 29.5703 399.68 30.0391 401.008 30.9766C402.414 31.8359 403.117 33.0469 403.117 34.6094C403.117 35.1562 402.922 35.7422 402.531 36.3672C402.141 36.9141 401.672 37.4609 401.125 38.0078C400.578 38.4766 399.992 38.9062 399.367 39.2969C398.82 39.6875 398.312 39.9609 397.844 40.1172C395.812 41.9141 393.664 43.9844 391.398 46.3281C389.133 48.5938 387.023 51.0547 385.07 53.7109C383.117 56.3672 381.516 59.1406 380.266 62.0312C379.016 64.9219 378.391 67.8125 378.391 70.7031C378.391 73.3594 378.586 75.9766 378.977 78.5547C379.367 81.1328 379.562 83.75 379.562 86.4062V90.5078C378.938 91.1328 378.391 91.6406 377.922 92.0312C377.453 92.4219 376.789 92.6172 375.93 92.6172C374.602 92.6172 373.312 92.0703 372.062 90.9766C370.812 89.8047 369.992 88.6328 369.602 87.4609ZM455.148 59.2188C454.992 60.625 454.797 61.7188 454.562 62.5C454.406 63.2812 454.094 63.9844 453.625 64.6094C453.156 65.2344 452.492 65.8984 451.633 66.6016C450.773 67.2266 449.602 68.1641 448.117 69.4141C446.633 70.5859 444.797 72.1484 442.609 74.1016C440.422 76.0547 437.766 78.5938 434.641 81.7188C433.391 82.8906 432.102 84.1016 430.773 85.3516C429.445 86.6016 428.039 87.7344 426.555 88.75C425.148 89.6875 423.664 90.4688 422.102 91.0938C420.539 91.7188 418.898 92.0312 417.18 92.0312C413.82 92.0312 411.359 90.8984 409.797 88.6328C408.234 86.3672 407.453 83.75 407.453 80.7812C407.453 78.8281 407.492 77.1875 407.57 75.8594C407.727 74.5312 408.039 72.8125 408.508 70.7031C407.648 69.9219 406.906 69.2578 406.281 68.7109C405.656 68.0859 405.344 67.2656 405.344 66.25C405.344 65.3125 405.539 64.6875 405.93 64.375C406.398 64.0625 406.906 63.8672 407.453 63.7891C408.078 63.6328 408.664 63.4766 409.211 63.3203C409.758 63.1641 410.148 62.8516 410.383 62.3828C410.539 61.9141 410.812 61.0547 411.203 59.8047C411.672 58.5547 412.141 57.2656 412.609 55.9375C413.078 54.5312 413.508 53.2422 413.898 52.0703C414.367 50.8203 414.68 49.9609 414.836 49.4922C415.383 48.1641 415.969 46.8359 416.594 45.5078C417.297 44.1016 418.078 42.8516 418.938 41.7578C419.875 40.6641 420.93 39.7656 422.102 39.0625C423.352 38.3594 424.797 38.0078 426.438 38.0078C427.375 38.0078 428.508 38.4375 429.836 39.2969C431.242 40.1562 432.57 41.2109 433.82 42.4609C435.07 43.6328 436.125 44.8828 436.984 46.2109C437.844 47.5391 438.273 48.6719 438.273 49.6094C438.273 50.7812 438 51.875 437.453 52.8906C436.906 53.8281 436.203 54.7266 435.344 55.5859C434.562 56.3672 433.703 57.1094 432.766 57.8125C431.828 58.5156 430.969 59.1797 430.188 59.8047C430.109 59.8047 429.953 59.8828 429.719 60.0391C429.484 60.1953 429.289 60.3125 429.133 60.3906C429.055 60.4688 428.859 60.6641 428.547 60.9766C428.312 61.2109 428.039 61.4844 427.727 61.7969C427.414 62.1094 427.102 62.4219 426.789 62.7344C426.555 63.0469 426.398 63.2422 426.32 63.3203C426.086 63.5547 425.617 63.9453 424.914 64.4922C424.289 64.9609 423.586 65.5078 422.805 66.1328C422.023 66.6797 421.281 67.2266 420.578 67.7734C419.953 68.2422 419.523 68.5547 419.289 68.7109L418.82 69.6484C418.664 69.9609 418.508 70.6641 418.352 71.7578C418.273 72.7734 418.156 73.9453 418 75.2734C417.844 76.6016 417.688 77.9688 417.531 79.375C417.453 80.7031 417.414 81.7969 417.414 82.6562C417.414 82.7344 417.453 82.8125 417.531 82.8906C417.688 83.0469 417.805 83.125 417.883 83.125C418.508 83.125 419.094 82.8516 419.641 82.3047C420.188 81.7578 420.773 81.3672 421.398 81.1328L440.148 63.7891L444.953 56.4062C445.344 55.8594 446.086 55.2734 447.18 54.6484C448.352 53.9453 449.523 53.5938 450.695 53.5938C451.867 53.5156 452.883 53.8672 453.742 54.6484C454.68 55.4297 455.148 56.9531 455.148 59.2188ZM429.367 50.0781C429.758 49.7656 429.914 49.2969 429.836 48.6719C429.758 48.0469 429.523 47.5 429.133 47.0312C428.82 46.5625 428.391 46.2891 427.844 46.2109C427.297 46.0547 426.789 46.3281 426.32 47.0312C426.086 47.3438 425.656 47.9688 425.031 48.9062C424.484 49.8438 423.898 50.8203 423.273 51.8359C422.727 52.7734 422.258 53.5938 421.867 54.2969C421.477 55 421.398 55.2734 421.633 55.1172L429.367 50.0781ZM7.14062 199.922C6.35938 196.797 5.77344 193.867 5.38281 191.133C4.99219 188.32 4.71875 185.352 4.5625 182.227C4.48438 180.43 4.48438 178.906 4.5625 177.656C4.64062 176.328 4.48438 174.883 4.09375 173.32C4.01562 173.008 3.82031 172.773 3.50781 172.617C3.27344 172.461 3 172.266 2.6875 172.031C2.45312 171.797 2.21875 171.523 1.98438 171.211C1.75 170.82 1.63281 170.234 1.63281 169.453C1.63281 168.828 1.75 168.281 1.98438 167.812C2.29688 167.344 2.57031 166.914 2.80469 166.523C3.11719 166.055 3.39062 165.586 3.625 165.117C3.9375 164.57 4.09375 163.945 4.09375 163.242V161.484C4.09375 160.703 4.01562 159.375 3.85938 157.5C3.70312 155.625 3.54688 153.633 3.39062 151.523C3.23438 149.414 3.07812 147.422 2.92188 145.547C2.84375 143.672 2.76562 142.383 2.6875 141.68C2.60938 140.352 2.25781 139.18 1.63281 138.164C1.00781 137.148 0.695312 135.977 0.695312 134.648C0.695312 132.148 1.20312 130.391 2.21875 129.375C3.23438 128.359 5.03125 127.852 7.60938 127.852C8.15625 127.852 8.58594 128.086 8.89844 128.555C9.28906 129.023 9.71875 129.258 10.1875 129.258H10.6562C10.8906 129.18 11.2422 129.102 11.7109 129.023C12.1797 128.867 12.4922 128.789 12.6484 128.789C19.2109 125.977 24.3281 123.789 28 122.227C31.6719 120.664 34.4453 119.531 36.3203 118.828C38.1953 118.125 39.4453 117.734 40.0703 117.656C40.7734 117.578 41.3594 117.656 41.8281 117.891C42.7656 118.047 43.3906 118.359 43.7031 118.828C44.0938 119.219 44.2891 119.844 44.2891 120.703C44.2891 121.484 44.1719 122.266 43.9375 123.047C43.7031 123.828 43.1562 124.414 42.2969 124.805L26.9453 132.188L26.4766 132.656L13.5859 138.164C13.1172 138.32 12.8438 138.711 12.7656 139.336C12.6875 139.961 12.6484 140.469 12.6484 140.859C12.6484 141.484 12.7266 142.617 12.8828 144.258C13.0391 145.898 13.1953 147.617 13.3516 149.414C13.5078 151.133 13.6641 152.695 13.8203 154.102C14.0547 155.43 14.2109 156.094 14.2891 156.094H14.4062C14.4062 156.094 14.4453 156.055 14.5234 155.977C15.3828 155.352 16.75 154.297 18.625 152.812C20.5 151.25 22.4141 149.688 24.3672 148.125C26.3203 146.562 28.0391 145.195 29.5234 144.023C31.0078 142.773 31.7891 142.148 31.8672 142.148C32.7266 142.148 33.5078 142.578 34.2109 143.438C34.9141 144.297 35.2656 145.195 35.2656 146.133C35.2656 147.07 35.0703 148.125 34.6797 149.297C34.2891 150.469 33.6641 151.367 32.8047 151.992L14.5234 168.281C14.5234 168.281 14.5234 168.477 14.5234 168.867C14.5234 169.258 14.4844 169.688 14.4062 170.156C14.4062 170.625 14.4062 171.133 14.4062 171.68C14.4062 172.148 14.4062 172.539 14.4062 172.852C14.4062 175.664 14.6016 178.477 14.9922 181.289C15.3828 184.023 15.5781 186.797 15.5781 189.609H16.0469C16.125 189.609 16.4766 189.297 17.1016 188.672C17.7266 188.047 18.1953 187.539 18.5078 187.148C18.6641 186.914 19.0156 186.406 19.5625 185.625C20.1875 184.844 21.2031 183.555 22.6094 181.758C24.0156 179.961 25.8906 177.578 28.2344 174.609C30.5781 171.641 33.5859 167.891 37.2578 163.359C37.5703 163.047 38 162.578 38.5469 161.953C39.1719 161.328 39.5625 161.016 39.7188 161.016C39.9531 160.781 40.4219 160.703 41.125 160.781C41.9062 160.781 42.4531 160.859 42.7656 161.016C43.1562 161.172 43.6641 161.602 44.2891 162.305C44.9141 163.008 45.2266 163.672 45.2266 164.297C45.2266 165.234 44.7188 166.484 43.7031 168.047C42.7656 169.531 41.6328 171.094 40.3047 172.734C38.9766 174.375 37.6484 175.977 36.3203 177.539C34.9922 179.023 33.9766 180.234 33.2734 181.172C32.1797 182.891 30.8516 185 29.2891 187.5C27.8047 189.922 26.1641 192.266 24.3672 194.531C22.5703 196.719 20.5781 198.633 18.3906 200.273C16.2812 201.836 14.0156 202.617 11.5938 202.617C10.4219 202.617 9.5625 202.422 9.01562 202.031C8.54688 201.641 7.92188 200.938 7.14062 199.922ZM50.1484 188.438C49.6016 186.094 49.6016 183.32 50.1484 180.117C50.7734 176.914 51.7109 173.711 52.9609 170.508C54.2891 167.227 55.8906 164.141 57.7656 161.25C59.7188 158.359 61.75 156.055 63.8594 154.336C66.0469 152.617 68.2344 151.68 70.4219 151.523C72.6875 151.289 74.8359 152.266 76.8672 154.453C76.8672 154.531 76.9062 154.727 76.9844 155.039C77.0625 155.352 77.1406 156.016 77.2188 157.031C77.2969 157.969 77.3359 159.336 77.3359 161.133C77.4141 162.852 77.4531 165.234 77.4531 168.281C77.5312 168.438 77.6094 168.711 77.6875 169.102C77.8438 169.414 77.9219 169.648 77.9219 169.805C77.6875 170.664 77.2188 171.484 76.5156 172.266C75.8906 172.969 75.0703 173.32 74.0547 173.32C72.7266 173.32 71.6328 173.125 70.7734 172.734C69.9922 172.266 69.4062 171.211 69.0156 169.57C69.1719 169.336 69.2109 168.867 69.1328 168.164C69.0547 167.383 68.8984 166.523 68.6641 165.586C68.5078 164.648 68.3516 163.711 68.1953 162.773C68.0391 161.836 67.9609 161.094 67.9609 160.547C67.8828 160.547 67.7656 160.625 67.6094 160.781C67.5312 160.859 67.4531 160.938 67.375 161.016C66.0469 163.359 64.7969 165.977 63.625 168.867C62.5312 171.68 61.6719 174.57 61.0469 177.539C60.5 180.43 60.3047 183.32 60.4609 186.211C60.6953 189.102 61.5547 191.719 63.0391 194.062C64.1328 194.062 65.1484 193.633 66.0859 192.773C67.0234 191.836 67.8047 190.977 68.4297 190.195C69.7578 188.633 71.0469 187.031 72.2969 185.391C73.625 183.75 74.8359 182.031 75.9297 180.234C76.3984 179.453 76.75 178.75 76.9844 178.125C77.2188 177.5 77.4922 176.992 77.8047 176.602C78.1953 176.211 78.6641 175.898 79.2109 175.664C79.7578 175.43 80.5781 175.312 81.6719 175.312C82.9219 175.312 84.0938 175.625 85.1875 176.25C86.2812 176.797 86.8281 177.734 86.8281 179.062C86.8281 180.859 86.0078 183.125 84.3672 185.859C82.8047 188.516 80.8516 191.094 78.5078 193.594C76.2422 196.094 73.8203 198.242 71.2422 200.039C68.6641 201.758 66.3984 202.617 64.4453 202.617C62.5703 202.617 60.7344 202.266 58.9375 201.562C57.2188 200.781 55.6953 199.766 54.3672 198.516C53.1172 197.266 52.1016 195.781 51.3203 194.062C50.5391 192.344 50.1484 190.469 50.1484 188.438ZM91.9844 184.57L96.3203 154.453C96.4766 153.438 96.9062 152.695 97.6094 152.227C98.3906 151.758 99.25 151.523 100.188 151.523C101.906 151.523 103.273 152.031 104.289 153.047C105.305 153.984 106.164 155.156 106.867 156.562H106.984C107.922 156.562 108.742 156.406 109.445 156.094C110.227 155.703 111.164 155.508 112.258 155.508C114.758 155.508 116.867 156.289 118.586 157.852C120.383 159.414 121.828 161.328 122.922 163.594C124.016 165.781 124.797 168.164 125.266 170.742C125.812 173.32 126.086 175.586 126.086 177.539C126.086 179.883 125.461 182.5 124.211 185.391C123.039 188.281 121.438 191.016 119.406 193.594C117.453 196.172 115.227 198.32 112.727 200.039C110.227 201.758 107.688 202.617 105.109 202.617C102.766 202.617 100.734 202.07 99.0156 200.977C97.375 199.883 96.0078 198.516 94.9141 196.875C93.8984 195.156 93.1562 193.242 92.6875 191.133C92.2188 189.023 91.9844 186.953 91.9844 184.922V184.57ZM101.828 185.273C101.984 186.055 102.141 186.953 102.297 187.969C102.453 188.984 102.688 189.922 103 190.781C103.312 191.562 103.742 192.188 104.289 192.656C104.914 193.047 105.773 193.047 106.867 192.656C107.883 191.719 108.977 190.664 110.148 189.492C111.32 188.32 112.414 187.07 113.43 185.742C114.523 184.414 115.422 183.008 116.125 181.523C116.828 180.039 117.18 178.477 117.18 176.836C117.492 174.18 117.297 171.758 116.594 169.57C115.891 167.305 114.875 165.703 113.547 164.766C112.297 163.75 110.852 163.633 109.211 164.414C107.57 165.117 105.93 167.109 104.289 170.391C103.352 172.422 102.688 174.805 102.297 177.539C101.984 180.195 101.828 182.656 101.828 184.922V185.273ZM180.578 173.32C180.578 172.617 180.656 172.031 180.812 171.562C181.047 171.094 181.281 170.664 181.516 170.273C181.828 169.805 182.062 169.375 182.219 168.984C182.453 168.516 182.57 167.969 182.57 167.344C182.57 165 182.414 162.695 182.102 160.43C181.789 158.086 181.438 155.742 181.047 153.398C180.734 151.055 180.422 148.75 180.109 146.484C179.797 144.141 179.641 141.797 179.641 139.453C179.641 137.812 179.914 136.68 180.461 136.055C181.086 135.43 182.258 135.117 183.977 135.117C185.305 135.117 186.398 135.469 187.258 136.172C188.195 136.797 189.094 137.617 189.953 138.633H190.539C191.086 138.32 192.102 137.734 193.586 136.875C195.07 136.016 196.633 135.117 198.273 134.18C199.992 133.242 201.594 132.383 203.078 131.602C204.641 130.742 205.734 130.117 206.359 129.727C207.688 129.023 208.977 128.438 210.227 127.969C211.477 127.5 212.844 127.266 214.328 127.266C215.109 127.266 215.695 127.383 216.086 127.617C216.477 127.852 216.672 128.477 216.672 129.492V129.727C216.359 131.289 215.812 132.578 215.031 133.594C214.25 134.531 213.312 135.352 212.219 136.055C211.203 136.758 210.109 137.383 208.938 137.93C207.844 138.398 206.789 138.945 205.773 139.57C203.43 141.211 201.438 142.539 199.797 143.555C198.234 144.57 196.867 145.391 195.695 146.016C194.602 146.641 193.703 147.188 193 147.656C192.375 148.047 191.867 148.477 191.477 148.945C191.477 149.18 191.438 149.648 191.359 150.352C191.359 150.977 191.359 151.367 191.359 151.523C191.359 153.867 191.398 156.211 191.477 158.555C191.555 160.898 192.023 163.164 192.883 165.352L220.188 152.461C220.734 152.227 221.125 152.109 221.359 152.109C221.672 152.031 222.102 151.992 222.648 151.992C222.961 151.992 223.469 152.109 224.172 152.344C224.875 152.578 225.227 152.891 225.227 153.281C225.227 155.078 224.602 156.68 223.352 158.086C222.18 159.492 220.734 160.781 219.016 161.953C217.297 163.125 215.5 164.141 213.625 165C211.75 165.859 210.109 166.641 208.703 167.344C208.391 167.5 208.039 167.617 207.648 167.695C207.258 167.773 206.984 167.969 206.828 168.281L194.523 174.727C194.133 174.961 193.898 175.195 193.82 175.43C193.82 175.586 193.82 175.859 193.82 176.25C193.82 176.406 193.82 176.602 193.82 176.836C193.898 177.07 193.938 177.227 193.938 177.305L196.398 196.523C196.633 198.398 196.164 199.883 194.992 200.977C193.898 202.07 192.531 202.617 190.891 202.617C190.578 202.617 190.188 202.578 189.719 202.5C189.25 202.344 188.781 202.188 188.312 202.031C187.844 201.797 187.414 201.523 187.023 201.211C186.711 200.82 186.516 200.391 186.438 199.922L183.508 176.836C183.508 176.523 183.352 176.25 183.039 176.016C182.727 175.781 182.375 175.547 181.984 175.312C181.672 175.078 181.359 174.805 181.047 174.492C180.734 174.18 180.578 173.789 180.578 173.32ZM256.633 169.805C255.93 171.055 255.109 172.578 254.172 174.375C253.312 176.094 252.375 177.969 251.359 180C250.344 181.953 249.211 183.945 247.961 185.977C246.789 187.93 245.539 189.727 244.211 191.367C242.961 193.008 241.633 194.414 240.227 195.586C238.82 196.68 237.375 197.344 235.891 197.578C235.266 197.578 234.562 197.539 233.781 197.461C233 197.305 232.219 197.109 231.438 196.875C230.656 196.562 229.992 196.172 229.445 195.703C228.977 195.156 228.742 194.453 228.742 193.594C228.82 185.625 229.406 178.398 230.5 171.914C231.594 165.352 233.312 159.609 235.656 154.688C238 149.688 241.008 145.547 244.68 142.266C248.352 138.984 252.805 136.641 258.039 135.234C258.195 135.234 258.469 135.234 258.859 135.234C259.328 135.156 259.641 135.117 259.797 135.117C262.141 135.039 263.82 136.133 264.836 138.398C265.93 140.586 266.711 144.102 267.18 148.945C267.727 153.711 268.078 159.883 268.234 167.461C268.469 174.961 268.898 183.984 269.523 194.531C269.758 195.391 269.875 196.133 269.875 196.758C269.953 197.383 269.992 198.125 269.992 198.984C269.992 200.156 269.641 201.055 268.938 201.68C268.234 202.227 267.336 202.5 266.242 202.5C263.977 202.5 262.375 201.875 261.438 200.625C260.5 199.375 259.875 197.695 259.562 195.586C259.562 195.508 259.484 194.883 259.328 193.711C259.25 192.539 259.094 191.211 258.859 189.727C258.703 188.164 258.547 186.602 258.391 185.039C258.234 183.477 258.117 182.188 258.039 181.172V180.703C257.883 179.922 257.766 178.945 257.688 177.773C257.688 176.602 257.609 175.469 257.453 174.375C257.297 173.047 257.18 171.719 257.102 170.391L256.633 169.805ZM254.055 146.602C251.945 148.164 249.875 150.273 247.844 152.93C245.812 155.586 244.367 158.164 243.508 160.664C243.117 161.836 242.688 163.438 242.219 165.469C241.75 167.5 241.32 169.531 240.93 171.562C240.617 173.516 240.344 175.352 240.109 177.07C239.875 178.711 239.758 179.766 239.758 180.234C239.836 180.234 239.914 180.156 239.992 180C240.148 179.844 240.266 179.727 240.344 179.648C245.188 174.961 248.586 169.922 250.539 164.531C252.57 159.062 253.742 153.086 254.055 146.602ZM281.359 197.461C281.203 194.648 280.93 190.898 280.539 186.211C280.227 181.445 279.836 176.523 279.367 171.445C278.977 166.367 278.547 161.562 278.078 157.031C277.609 152.5 277.219 148.984 276.906 146.484C276.906 145.469 277.375 144.805 278.312 144.492C279.25 144.18 280.148 144.023 281.008 144.023C282.102 144.023 283.234 144.336 284.406 144.961C285.656 145.586 286.438 146.445 286.75 147.539C286.75 147.852 286.789 148.438 286.867 149.297C286.945 150.078 286.984 150.898 286.984 151.758C287.062 152.617 287.141 153.477 287.219 154.336C287.297 155.117 287.336 155.664 287.336 155.977C287.336 156.445 287.336 156.797 287.336 157.031C287.336 157.266 287.336 157.5 287.336 157.734C287.336 157.891 287.375 158.086 287.453 158.32C287.531 158.555 287.648 158.945 287.805 159.492C287.961 159.336 288.117 159.141 288.273 158.906C288.508 158.672 288.664 158.516 288.742 158.438C289.992 156.641 291.203 155.078 292.375 153.75C293.547 152.344 294.758 151.055 296.008 149.883C297.258 148.633 298.625 147.344 300.109 146.016C301.672 144.609 303.469 143.008 305.5 141.211C305.969 140.82 306.32 140.547 306.555 140.391C306.789 140.156 306.984 140 307.141 139.922C307.375 139.766 307.609 139.688 307.844 139.688C308.078 139.609 308.391 139.57 308.781 139.57C310.109 139.57 311.438 140.039 312.766 140.977C314.172 141.836 314.875 143.047 314.875 144.609C314.875 145.156 314.68 145.742 314.289 146.367C313.898 146.914 313.43 147.461 312.883 148.008C312.336 148.477 311.75 148.906 311.125 149.297C310.578 149.688 310.07 149.961 309.602 150.117C307.57 151.914 305.422 153.984 303.156 156.328C300.891 158.594 298.781 161.055 296.828 163.711C294.875 166.367 293.273 169.141 292.023 172.031C290.773 174.922 290.148 177.812 290.148 180.703C290.148 183.359 290.344 185.977 290.734 188.555C291.125 191.133 291.32 193.75 291.32 196.406V200.508C290.695 201.133 290.148 201.641 289.68 202.031C289.211 202.422 288.547 202.617 287.688 202.617C286.359 202.617 285.07 202.07 283.82 200.977C282.57 199.805 281.75 198.633 281.359 197.461ZM319.68 164.297C319.523 162.266 319.328 160.234 319.094 158.203C318.938 156.094 318.664 154.023 318.273 151.992C318.273 150.273 318.82 149.18 319.914 148.711C321.086 148.242 322.336 148.008 323.664 148.008H326.008C327.18 148.555 328 149.219 328.469 150C328.938 150.781 329.25 151.641 329.406 152.578C329.562 153.516 329.602 154.492 329.523 155.508C329.523 156.523 329.562 157.5 329.641 158.438C329.719 158.828 329.758 159.492 329.758 160.43C329.758 161.367 329.758 162.344 329.758 163.359C329.836 164.375 329.914 165.312 329.992 166.172C330.148 167.031 330.344 167.578 330.578 167.812L340.891 148.477C341.359 147.617 342.023 146.914 342.883 146.367C343.82 145.742 344.836 145.508 345.93 145.664C347.648 145.82 348.938 146.172 349.797 146.719C350.656 147.188 351.242 147.852 351.555 148.711C351.945 149.492 352.141 150.469 352.141 151.641C352.219 152.812 352.297 154.102 352.375 155.508C352.375 155.977 352.414 156.875 352.492 158.203C352.57 159.453 352.648 160.781 352.727 162.188C352.883 163.594 353 164.922 353.078 166.172C353.234 167.422 353.352 168.281 353.43 168.75H353.898C354.055 168.203 354.328 167.148 354.719 165.586C355.188 164.023 355.695 162.383 356.242 160.664C356.789 158.945 357.297 157.305 357.766 155.742C358.234 154.18 358.586 153.086 358.82 152.461C358.898 152.305 359.055 151.992 359.289 151.523C359.523 150.977 359.758 150.43 359.992 149.883C360.227 149.258 360.461 148.711 360.695 148.242C360.93 147.695 361.086 147.305 361.164 147.07C361.711 146.211 362.258 145.781 362.805 145.781C363.43 145.703 364.094 145.664 364.797 145.664C366.75 145.664 368.234 146.172 369.25 147.188C370.344 148.125 371.125 149.336 371.594 150.82C372.141 152.305 372.531 153.945 372.766 155.742C373 157.461 373.273 159.062 373.586 160.547C373.664 160.547 373.703 160.625 373.703 160.781C373.703 160.859 373.664 160.938 373.586 161.016L380.031 195.117C380.344 195.43 380.5 195.703 380.5 195.938C380.578 196.172 380.617 196.484 380.617 196.875C380.617 197.734 380.188 198.594 379.328 199.453C378.547 200.234 377.727 200.625 376.867 200.625C375.695 200.625 374.328 200.195 372.766 199.336C371.281 198.477 370.422 197.383 370.188 196.055L364.797 168.281L364.211 167.344C364.055 167.734 363.703 168.867 363.156 170.742C362.688 172.539 362.102 174.844 361.398 177.656C360.695 180.391 359.875 183.477 358.938 186.914C358.078 190.352 357.18 193.867 356.242 197.461C356.086 198.164 355.617 198.711 354.836 199.102C354.133 199.414 353.508 199.57 352.961 199.57C351.32 199.57 349.992 199.375 348.977 198.984C347.961 198.594 347.18 198.008 346.633 197.227C346.086 196.445 345.695 195.508 345.461 194.414C345.227 193.32 345.031 192.07 344.875 190.664C344.875 190.352 344.797 189.258 344.641 187.383C344.484 185.43 344.289 183.242 344.055 180.82C343.898 178.32 343.703 175.82 343.469 173.32C343.234 170.82 343.078 168.828 343 167.344C343 167.031 343 166.797 343 166.641C343 166.484 343 166.367 343 166.289C343 166.133 342.961 165.977 342.883 165.82C342.805 165.586 342.648 165.234 342.414 164.766L339.016 172.852L333.625 192.656L332.453 199.922C332.375 200.391 332.141 200.82 331.75 201.211C331.438 201.523 331.047 201.797 330.578 202.031C330.109 202.188 329.641 202.305 329.172 202.383C328.703 202.461 328.312 202.5 328 202.5C326.281 202.5 324.797 201.875 323.547 200.625C322.375 199.375 321.75 198.008 321.672 196.523C321.594 195.977 321.516 194.922 321.438 193.359C321.359 191.719 321.242 189.805 321.086 187.617C320.93 185.43 320.773 183.125 320.617 180.703C320.539 178.281 320.422 175.977 320.266 173.789C320.109 171.602 319.953 169.688 319.797 168.047C319.719 166.406 319.68 165.312 319.68 164.766V164.297ZM391.516 198.047C390.734 190.234 390.07 183.555 389.523 178.008C388.977 172.461 388.508 167.812 388.117 164.062C387.727 160.312 387.375 157.344 387.062 155.156C386.828 152.891 386.633 151.211 386.477 150.117C386.32 148.945 386.203 148.164 386.125 147.773C386.047 147.383 386.008 147.148 386.008 147.07V146.602C386.008 145.742 386.359 145.039 387.062 144.492C387.844 143.867 388.625 143.555 389.406 143.555C390.578 143.555 391.828 143.75 393.156 144.141C394.562 144.531 395.5 145.352 395.969 146.602C396.672 150.43 397.141 154.297 397.375 158.203C397.688 162.109 397.922 166.016 398.078 169.922C398.312 173.75 398.586 177.617 398.898 181.523C399.289 185.43 399.953 189.297 400.891 193.125C400.891 193.281 400.93 193.594 401.008 194.062C401.164 194.531 401.281 195.039 401.359 195.586C401.516 196.133 401.633 196.641 401.711 197.109C401.789 197.578 401.828 197.891 401.828 198.047V198.281C401.828 198.359 401.867 198.438 401.945 198.516C401.945 199.453 401.516 200.391 400.656 201.328C399.797 202.266 398.898 202.656 397.961 202.5C397.727 202.422 397.141 202.305 396.203 202.148C395.344 201.914 394.758 201.719 394.445 201.562C394.211 201.484 393.898 201.328 393.508 201.094C393.117 200.781 392.727 200.469 392.336 200.156C392.023 199.844 391.75 199.492 391.516 199.102C391.281 198.711 391.281 198.359 391.516 198.047ZM384.953 112.617C384.953 112.07 385.383 111.602 386.242 111.211C387.18 110.742 387.883 110.508 388.352 110.508C389.523 110.508 390.812 110.859 392.219 111.562C393.703 112.188 394.445 113.164 394.445 114.492C394.445 115.82 394.25 116.719 393.859 117.188C393.547 117.656 392.727 117.891 391.398 117.891C389.992 117.891 388.547 117.422 387.062 116.484C385.656 115.547 384.953 114.258 384.953 112.617ZM439.68 198.516C438.586 196.953 437.648 194.805 436.867 192.07C436.164 189.258 435.461 186.328 434.758 183.281C434.133 180.156 433.547 177.148 433 174.258C432.453 171.289 431.867 168.945 431.242 167.227C430.695 165.43 430.07 164.414 429.367 164.18C428.664 163.945 427.844 165 426.906 167.344L416.711 198.75C416.32 199.844 415.852 200.625 415.305 201.094C414.758 201.484 413.859 201.68 412.609 201.68C411.984 201.68 411.32 201.602 410.617 201.445C409.914 201.211 409.25 200.898 408.625 200.508C408 200.117 407.453 199.648 406.984 199.102C406.594 198.555 406.359 197.93 406.281 197.227C406.516 196.289 406.711 194.57 406.867 192.07C407.102 189.57 407.258 186.68 407.336 183.398C407.414 180.117 407.453 176.68 407.453 173.086C407.531 169.414 407.531 166.016 407.453 162.891C407.453 159.688 407.414 156.953 407.336 154.688C407.258 152.344 407.18 150.82 407.102 150.117C407.102 149.336 407.102 148.555 407.102 147.773C407.18 146.914 407.297 146.133 407.453 145.43C407.688 144.727 408.039 144.18 408.508 143.789C409.055 143.32 409.875 143.086 410.969 143.086C412.453 143.086 413.82 143.711 415.07 144.961C416.398 146.211 417.062 147.539 417.062 148.945C417.062 150.977 416.945 153.008 416.711 155.039C416.555 156.992 416.477 158.984 416.477 161.016C416.477 162.266 416.477 163.32 416.477 164.18C416.477 165.039 416.633 166.094 416.945 167.344C417.18 166.719 417.57 165.625 418.117 164.062C418.664 162.5 419.25 160.859 419.875 159.141C420.578 157.422 421.203 155.82 421.75 154.336C422.297 152.773 422.688 151.68 422.922 151.055C423.469 149.492 424.289 148.008 425.383 146.602C426.477 145.117 427.922 144.297 429.719 144.141C430.891 144.062 431.945 144.375 432.883 145.078C433.898 145.781 434.758 146.719 435.461 147.891C436.164 148.984 436.75 150.156 437.219 151.406C437.688 152.578 438.039 153.594 438.273 154.453L444.602 183.633L449.523 196.992C449.602 197.07 449.641 197.305 449.641 197.695C449.641 198.008 449.641 198.242 449.641 198.398C449.641 199.336 449.406 200.273 448.938 201.211C448.547 202.07 447.805 202.5 446.711 202.5C445.383 202.5 444.016 202.148 442.609 201.445C441.203 200.664 440.227 199.688 439.68 198.516ZM460.539 243.398C460.227 242.539 460.227 241.562 460.539 240.469C460.93 239.375 461.672 238.672 462.766 238.359C464.562 239.141 466.438 239.648 468.391 239.883C470.344 240.117 472.297 240.156 474.25 240C476.281 239.844 478.273 239.531 480.227 239.062C482.18 238.594 484.055 238.047 485.852 237.422C487.648 235.938 488.898 233.984 489.602 231.562C490.305 229.219 490.578 225.977 490.422 221.836C490.266 217.773 489.719 212.656 488.781 206.484C487.922 200.391 486.789 192.891 485.383 183.984C485.383 183.75 485.383 183.398 485.383 182.93C485.461 182.461 485.461 182.031 485.383 181.641C485.305 181.172 485.148 180.82 484.914 180.586C484.758 180.352 484.523 180.352 484.211 180.586C483.195 182.539 481.984 184.688 480.578 187.031C479.25 189.297 477.688 191.445 475.891 193.477C474.172 195.43 472.219 197.07 470.031 198.398C467.922 199.727 465.539 200.391 462.883 200.391C460.539 200.391 458.469 199.727 456.672 198.398C454.953 196.992 454.094 195 454.094 192.422C454.094 190.469 454.484 188.008 455.266 185.039C456.125 182.07 457.258 178.945 458.664 175.664C460.07 172.305 461.711 168.984 463.586 165.703C465.461 162.422 467.414 159.453 469.445 156.797C471.477 154.141 473.547 151.992 475.656 150.352C477.766 148.633 479.797 147.773 481.75 147.773C482.531 147.773 483.547 147.93 484.797 148.242C486.125 148.477 487.375 148.867 488.547 149.414C489.797 149.961 490.852 150.586 491.711 151.289C492.648 151.992 493.117 152.812 493.117 153.75V163.242L500.734 218.555C500.734 221.68 500.656 224.648 500.5 227.461C500.422 230.352 499.914 233.008 498.977 235.43C498.117 237.852 496.711 240 494.758 241.875C492.805 243.75 489.992 245.273 486.32 246.445C485.852 246.68 484.875 246.875 483.391 247.031C481.906 247.188 480.188 247.305 478.234 247.383C476.359 247.461 474.328 247.461 472.141 247.383C470.031 247.305 468.078 247.109 466.281 246.797C464.562 246.562 463.156 246.172 462.062 245.625C460.969 245.078 460.461 244.336 460.539 243.398ZM478.82 158.203C478.039 159.062 476.984 160.43 475.656 162.305C474.406 164.18 473.117 166.25 471.789 168.516C470.461 170.781 469.133 173.164 467.805 175.664C466.555 178.086 465.539 180.352 464.758 182.461C463.977 184.57 463.469 186.367 463.234 187.852C463.078 189.336 463.43 190.234 464.289 190.547C465.93 189.688 467.688 188.281 469.562 186.328C471.438 184.297 473.195 182.07 474.836 179.648C476.555 177.148 478.039 174.609 479.289 172.031C480.617 169.375 481.516 166.992 481.984 164.883C482.531 162.773 482.57 161.094 482.102 159.844C481.711 158.516 480.617 157.969 478.82 158.203Z" fill="white"/>
<path d="M539.875 66.7188C540.109 67.1094 540.109 67.6562 539.875 68.3594C539.719 68.9844 539.445 69.6484 539.055 70.3516C538.742 71.0547 538.352 71.6797 537.883 72.2266C537.492 72.7734 537.102 73.0859 536.711 73.1641C534.68 73.7891 532.492 73.8672 530.148 73.3984C525.695 72.6172 521.828 71.2891 518.547 69.4141C515.344 67.4609 512.648 64.6875 510.461 61.0938C510.227 60.8594 509.875 60.3125 509.406 59.4531C509.016 58.5938 508.781 58.0859 508.703 57.9297C507.844 55.6641 507.844 53.5156 508.703 51.4844C509.562 49.4531 511.164 48.0469 513.508 47.2656C513.82 47.1094 514.289 46.9922 514.914 46.9141C515.539 46.7578 516.242 46.6406 517.023 46.5625C517.805 46.4062 518.547 46.2891 519.25 46.2109C519.953 46.0547 520.539 45.8984 521.008 45.7422C519.68 44.1016 518.078 42.6953 516.203 41.5234C514.406 40.2734 512.453 38.6328 510.344 36.6016C510.188 36.4453 510.031 36.25 509.875 36.0156C509.797 35.7812 509.719 35.625 509.641 35.5469C508.391 33.4375 508.82 32.0703 510.93 31.4453C511.633 30.8203 512.727 30.1953 514.211 29.5703C515.773 28.8672 517.492 28.2812 519.367 27.8125C521.242 27.2656 523.195 26.9141 525.227 26.7578C527.336 26.5234 529.289 26.5625 531.086 26.875C532.883 27.1094 534.445 27.6953 535.773 28.6328C537.18 29.4922 538.117 30.7813 538.586 32.5C539.289 33.3594 539.328 34.1406 538.703 34.8438C538.078 35.4688 537.375 35.9375 536.594 36.25C535.578 36.6406 534.562 36.8359 533.547 36.8359C532.609 36.7578 531.594 36.6797 530.5 36.6016C529.484 36.5234 528.43 36.4844 527.336 36.4844C526.242 36.4844 525.07 36.6797 523.82 37.0703L523.117 37.4219C524.289 38.3594 525.578 39.2969 526.984 40.2344C528.469 41.0938 529.875 41.9922 531.203 42.9297C532.609 43.7891 533.859 44.6484 534.953 45.5078C536.125 46.3672 537.023 47.2266 537.648 48.0859C538.117 48.7891 538.234 49.5312 538 50.3125C537.844 51.0938 537.336 51.6016 536.477 51.8359C535.07 52.3047 533.781 52.6172 532.609 52.7734C531.438 52.9297 530.266 53.0469 529.094 53.125C527.922 53.2031 526.75 53.3203 525.578 53.4766C524.406 53.5547 523.117 53.8281 521.711 54.2969C520.383 54.9219 519.914 55.7812 520.305 56.875C520.695 57.9688 521.516 59.1016 522.766 60.2734C524.016 61.4453 525.461 62.5391 527.102 63.5547C528.742 64.4922 530.188 65.1172 531.438 65.4297C532.141 65.6641 533.352 65.6641 535.07 65.4297C535.148 65.4297 535.5 65.3906 536.125 65.3125C536.828 65.2344 537.219 65.1562 537.297 65.0781C538.078 65.0781 538.586 65.2344 538.82 65.5469C539.133 65.7812 539.484 66.1719 539.875 66.7188ZM522.297 94.4922C521.984 92.9297 521.711 91.0547 521.477 88.8672C521.242 86.6797 520.93 84.8047 520.539 83.2422C520.695 82.2266 521.086 81.3672 521.711 80.6641C522.414 79.9609 523.273 79.4922 524.289 79.2578C526.242 78.9453 527.727 79.2969 528.742 80.3125C529.758 81.3281 530.383 82.6562 530.617 84.2969C530.773 85 530.969 86.0938 531.203 87.5781C531.516 89.0625 531.672 90.5469 531.672 92.0312C531.75 93.5156 531.594 94.8047 531.203 95.8984C530.891 97.0703 530.227 97.6562 529.211 97.6562C527.961 97.6562 526.945 97.6562 526.164 97.6562C525.383 97.6562 524.719 97.5781 524.172 97.4219C523.625 97.2656 523.195 96.9531 522.883 96.4844C522.648 96.0156 522.453 95.3516 522.297 94.4922ZM517.609 14.3359C517.531 13.6328 517.492 13.0859 517.492 12.6953C517.492 12.3047 517.492 11.9531 517.492 11.6406C517.492 11.25 517.492 10.8594 517.492 10.4688C517.57 10 517.57 9.375 517.492 8.59375C517.57 7.57813 517.961 6.71875 518.664 6.01562C519.367 5.23438 520.227 4.76563 521.242 4.60938C523.273 4.29688 524.719 4.64844 525.578 5.66406C526.516 6.60156 527.18 7.85156 527.57 9.41406C527.648 10.1953 527.766 11.3281 527.922 12.8125C528.078 14.2969 528.117 15.8203 528.039 17.3828C528.039 18.8672 527.805 20.1953 527.336 21.3672C526.945 22.4609 526.242 23.0078 525.227 23.0078C523.898 23.0078 522.805 22.6953 521.945 22.0703C521.086 21.4453 520.344 20.7031 519.719 19.8438C519.172 18.9844 518.742 18.0859 518.43 17.1484C518.117 16.1328 517.844 15.1953 517.609 14.3359Z" fill="#EEC044"/>
</svg>
