<svg width="15" height="16" viewBox="0 0 15 16" fill="none" xmlns="http://www.w3.org/2000/svg">
<path d="M13.6719 4.03369C14.0052 4.59619 14.2526 5.17952 14.4141 5.78369C14.5755 6.38786 14.6562 7.02327 14.6562 7.68994C14.6562 8.35661 14.5755 8.99202 14.4141 9.59619C14.2526 10.2004 14.0052 10.7837 13.6719 11.3462C13.3281 11.9191 12.9375 12.4243 12.5 12.8618C12.0625 13.2993 11.5573 13.6899 10.9844 14.0337C10.4219 14.367 9.83854 14.6144 9.23438 14.7759C8.63021 14.9373 7.99479 15.0181 7.32812 15.0181C6.66146 15.0181 6.02604 14.9373 5.42188 14.7759C4.81771 14.6144 4.23438 14.367 3.67188 14.0337C3.09896 13.6899 2.59375 13.2993 2.15625 12.8618C1.71875 12.4243 1.32812 11.9191 0.984375 11.3462C0.661458 10.7837 0.416667 10.2004 0.25 9.59619C0.0833333 8.99202 0 8.35661 0 7.68994C0 7.02327 0.0833333 6.38786 0.25 5.78369C0.416667 5.17952 0.661458 4.59619 0.984375 4.03369C1.31771 3.46077 1.70573 2.95557 2.14844 2.51807C2.59115 2.08057 3.09896 1.68994 3.67188 1.34619C4.23438 1.01286 4.81771 0.765462 5.42188 0.604004C6.02604 0.442546 6.66146 0.361816 7.32812 0.361816C7.99479 0.361816 8.63021 0.442546 9.23438 0.604004C9.83854 0.765462 10.4219 1.01286 10.9844 1.34619C11.5573 1.68994 12.0625 2.08057 12.5 2.51807C12.9375 2.95557 13.3281 3.46077 13.6719 4.03369ZM5.59375 9.42432L3.85938 7.68994C3.73438 7.55452 3.56771 7.48682 3.35938 7.48682C3.15104 7.48682 2.96354 7.55452 2.79688 7.68994C2.66146 7.82536 2.59375 7.99463 2.59375 8.19775C2.59375 8.40088 2.66146 8.59098 2.79688 8.76807L5.0625 11.0181C5.19792 11.1535 5.36458 11.2212 5.5625 11.2212C5.76042 11.2212 5.92708 11.1535 6.0625 11.0181L11.7969 5.48682C11.9323 5.3514 12 5.18213 12 4.979C12 4.77588 11.9323 4.59098 11.7969 4.42432C11.6615 4.2889 11.4896 4.22119 11.2812 4.22119C11.0729 4.22119 10.8906 4.2889 10.7344 4.42432L5.59375 9.42432Z" fill="#C5CE38"/>
</svg>
