<svg width="16" height="13" viewBox="0 0 16 13" fill="none" xmlns="http://www.w3.org/2000/svg">
<path d="M5.4375 12.6744L0.234375 7.47125C0.078125 7.315 0 7.1275 0 6.90875C0 6.69 0.078125 6.5025 0.234375 6.34625L1.35938 5.20563C1.51562 5.04938 1.70573 4.97125 1.92969 4.97125C2.15365 4.97125 2.34375 5.04938 2.5 5.20563L6 8.70563L13.5 1.20563C13.6562 1.04938 13.8464 0.971252 14.0703 0.971252C14.2943 0.971252 14.4844 1.04938 14.6406 1.20563L15.7656 2.34625C15.9219 2.5025 16 2.69 16 2.90875C16 3.1275 15.9219 3.315 15.7656 3.47125L6.5625 12.6744C6.40625 12.8306 6.21875 12.9088 6 12.9088C5.78125 12.9088 5.59375 12.8306 5.4375 12.6744Z" fill="#C5CE38"/>
</svg>
