<svg width="15" height="12" viewBox="0 0 15 12" fill="none" xmlns="http://www.w3.org/2000/svg">
<path d="M14.2207 4.22266C14.2663 4.17708 14.321 4.17025 14.3848 4.20215C14.4486 4.23405 14.4805 4.2819 14.4805 4.3457V9.9375C14.4805 10.3021 14.3529 10.612 14.0977 10.8672C13.8424 11.1224 13.5326 11.25 13.168 11.25H1.79297C1.42839 11.25 1.11849 11.1224 0.863281 10.8672C0.608073 10.612 0.480469 10.3021 0.480469 9.9375V4.3457C0.480469 4.2819 0.510091 4.23405 0.569336 4.20215C0.628581 4.17025 0.685547 4.17708 0.740234 4.22266C1.05013 4.45964 1.48307 4.7832 2.03906 5.19336C2.59505 5.60352 3.57031 6.31445 4.96484 7.32617C5.2474 7.53581 5.61654 7.80697 6.07227 8.13965C6.52799 8.47233 6.9974 8.63411 7.48047 8.625C7.97266 8.63411 8.44661 8.47005 8.90234 8.13281C9.35807 7.79557 9.72721 7.52669 10.0098 7.32617C11.4043 6.31445 12.3773 5.60352 12.9287 5.19336C13.4801 4.7832 13.9108 4.45964 14.2207 4.22266ZM7.48047 7.75C7.16146 7.75911 6.80371 7.61328 6.40723 7.3125C6.01074 7.01172 5.69857 6.7793 5.4707 6.61523C3.6569 5.30273 2.51758 4.47103 2.05273 4.12012C1.58789 3.76921 1.14583 3.42969 0.726562 3.10156C0.653646 3.03776 0.594401 2.96029 0.548828 2.86914C0.503255 2.778 0.480469 2.68229 0.480469 2.58203V2.0625C0.480469 1.69792 0.608073 1.38802 0.863281 1.13281C1.11849 0.877604 1.42839 0.75 1.79297 0.75H13.168C13.5326 0.75 13.8424 0.877604 14.0977 1.13281C14.3529 1.38802 14.4805 1.69792 14.4805 2.0625V2.58203C14.4805 2.68229 14.4577 2.778 14.4121 2.86914C14.3665 2.96029 14.3073 3.03776 14.2344 3.10156C13.8151 3.42969 13.373 3.76921 12.9082 4.12012C12.4434 4.47103 11.304 5.30273 9.49023 6.61523C9.26237 6.7793 8.9502 7.01172 8.55371 7.3125C8.15723 7.61328 7.79948 7.75911 7.48047 7.75Z" fill="#EEC044"/>
</svg>
