<svg width="15" height="15" viewBox="0 0 15 15" fill="none" xmlns="http://www.w3.org/2000/svg">
<g clip-path="url(#clip0_4138_1006)">
<path d="M14.4229 7.75C14.4229 8.59766 14.277 9.39974 13.9854 10.1562C13.6937 10.9128 13.2904 11.5872 12.7754 12.1797C12.2604 12.7721 11.6566 13.2689 10.9639 13.6699C10.262 14.0618 9.51009 14.3216 8.70801 14.4492V9.70508H10.2803L10.5811 7.75H8.70801V6.47852C8.70801 6.20508 8.78548 5.95898 8.94043 5.74023C9.09538 5.52148 9.38249 5.41211 9.80176 5.41211H10.6631V3.74414C10.6631 3.74414 10.5036 3.72363 10.1846 3.68262C9.86556 3.6416 9.51921 3.62109 9.14551 3.62109C8.37077 3.62109 7.7487 3.84668 7.2793 4.29785C6.8099 4.74902 6.5752 5.403 6.5752 6.25977V7.75H4.85254V9.70508H6.5752V14.4492C5.77311 14.3216 5.02116 14.0618 4.31934 13.6699C3.62663 13.2689 3.02279 12.7721 2.50781 12.1797C1.99284 11.5872 1.58952 10.9128 1.29785 10.1562C1.00618 9.39974 0.860352 8.59766 0.860352 7.75C0.860352 6.8112 1.03809 5.93164 1.39355 5.11133C1.74902 4.29102 2.23438 3.57324 2.84961 2.95801C3.46484 2.34277 4.18262 1.85742 5.00293 1.50195C5.82324 1.14648 6.7028 0.96875 7.6416 0.96875C8.5804 0.96875 9.45996 1.14648 10.2803 1.50195C11.1006 1.85742 11.8184 2.34277 12.4336 2.95801C13.0488 3.57324 13.5342 4.29102 13.8896 5.11133C14.2451 5.93164 14.4229 6.8112 14.4229 7.75Z" fill="#1F1E17"/>
</g>
<defs>
<clipPath id="clip0_4138_1006">
<rect width="14" height="14" fill="white" transform="matrix(1 0 0 -1 0.860352 14.75)"/>
</clipPath>
</defs>
</svg>
