<svg width="15" height="15" viewBox="0 0 15 15" fill="none" xmlns="http://www.w3.org/2000/svg">
<g clip-path="url(#clip0_4138_1012)">
<path d="M6.98535 4.60547C7.42285 4.60547 7.83301 4.6875 8.21582 4.85156C8.59863 5.01562 8.93132 5.23893 9.21387 5.52148C9.49642 5.80404 9.71973 6.13672 9.88379 6.51953C10.0479 6.90234 10.1299 7.3125 10.1299 7.75C10.1299 8.17839 10.0479 8.58398 9.88379 8.9668C9.71973 9.34961 9.49642 9.68457 9.21387 9.97168C8.93132 10.2588 8.59863 10.4844 8.21582 10.6484C7.83301 10.8125 7.42285 10.8945 6.98535 10.8945C6.55697 10.8945 6.15137 10.8125 5.76855 10.6484C5.38574 10.4844 5.05078 10.2588 4.76367 9.97168C4.47656 9.68457 4.25098 9.34961 4.08691 8.9668C3.92285 8.58398 3.84082 8.17839 3.84082 7.75C3.84082 7.3125 3.92285 6.90234 4.08691 6.51953C4.25098 6.13672 4.47656 5.80404 4.76367 5.52148C5.05078 5.23893 5.38574 5.01562 5.76855 4.85156C6.15137 4.6875 6.55697 4.60547 6.98535 4.60547ZM6.98535 9.78711C7.55046 9.78711 8.03353 9.58887 8.43457 9.19238C8.83561 8.7959 9.03613 8.3151 9.03613 7.75C9.03613 7.1849 8.83561 6.70182 8.43457 6.30078C8.03353 5.89974 7.55046 5.69922 6.98535 5.69922C6.42025 5.69922 5.93945 5.89974 5.54297 6.30078C5.14648 6.70182 4.94824 7.1849 4.94824 7.75C4.94824 8.3151 5.14876 8.7959 5.5498 9.19238C5.95085 9.58887 6.42936 9.78711 6.98535 9.78711ZM10.9912 4.48242C10.9912 4.68294 10.9206 4.85384 10.7793 4.99512C10.638 5.13639 10.4626 5.20703 10.2529 5.20703C10.0524 5.20703 9.88151 5.13639 9.74023 4.99512C9.59896 4.85384 9.52832 4.68294 9.52832 4.48242C9.52832 4.27279 9.59896 4.09733 9.74023 3.95605C9.88151 3.81478 10.0524 3.74414 10.2529 3.74414C10.4626 3.74414 10.638 3.81478 10.7793 3.95605C10.9206 4.09733 10.9912 4.27279 10.9912 4.48242ZM13.0693 5.2207C13.0876 5.47591 13.1012 5.83594 13.1104 6.30078C13.1104 6.75651 13.1104 7.2373 13.1104 7.74316C13.1104 8.24902 13.1104 8.73438 13.1104 9.19922C13.1012 9.66406 13.0876 10.0241 13.0693 10.2793C13.0511 10.7624 12.9714 11.2204 12.8301 11.6533C12.6888 12.0863 12.4404 12.4805 12.085 12.8359C11.7295 13.2005 11.3353 13.4512 10.9023 13.5879C10.4694 13.7246 10.0068 13.8066 9.51465 13.834C9.25944 13.8431 8.89941 13.8522 8.43457 13.8613C7.97884 13.8704 7.49805 13.875 6.99219 13.875C6.48633 13.875 6.00098 13.8704 5.53613 13.8613C5.07129 13.8522 4.71126 13.8431 4.45605 13.834C3.96387 13.8066 3.50358 13.7246 3.0752 13.5879C2.64681 13.4512 2.25033 13.2005 1.88574 12.8359C1.53027 12.4805 1.28418 12.0863 1.14746 11.6533C1.01074 11.2204 0.928711 10.7624 0.901367 10.2793C0.883138 10.0241 0.874023 9.66406 0.874023 9.19922C0.864909 8.73438 0.860352 8.24902 0.860352 7.74316C0.860352 7.2373 0.864909 6.75195 0.874023 6.28711C0.874023 5.83138 0.883138 5.47591 0.901367 5.2207C0.928711 4.72852 1.01074 4.26595 1.14746 3.83301C1.28418 3.40007 1.53027 3.00586 1.88574 2.65039C2.25033 2.29492 2.64909 2.04655 3.08203 1.90527C3.51497 1.764 3.97298 1.68425 4.45605 1.66602C4.71126 1.64779 5.07129 1.63411 5.53613 1.625C6.00098 1.625 6.48633 1.625 6.99219 1.625C7.49805 1.625 7.97884 1.625 8.43457 1.625C8.89941 1.63411 9.25944 1.64779 9.51465 1.66602C10.0068 1.69336 10.4694 1.77539 10.9023 1.91211C11.3353 2.04883 11.7295 2.29492 12.085 2.65039C12.4404 3.01497 12.6888 3.41146 12.8301 3.83984C12.9714 4.26823 13.0511 4.72852 13.0693 5.2207ZM11.7705 11.3594C11.8434 11.1589 11.8981 10.8991 11.9346 10.5801C11.971 10.2611 11.9961 9.92839 12.0098 9.58203C12.0234 9.23568 12.0257 8.89844 12.0166 8.57031C12.0166 8.24219 12.0166 7.96875 12.0166 7.75C12.0166 7.52214 12.0166 7.24414 12.0166 6.91602C12.0257 6.58789 12.0234 6.25065 12.0098 5.9043C11.9961 5.55794 11.971 5.22982 11.9346 4.91992C11.8981 4.60091 11.8434 4.34115 11.7705 4.14062C11.6611 3.86719 11.5062 3.63021 11.3057 3.42969C11.1051 3.22917 10.8682 3.07422 10.5947 2.96484C10.3942 2.89193 10.1344 2.83724 9.81543 2.80078C9.50553 2.76432 9.17741 2.73926 8.83105 2.72559C8.4847 2.71191 8.14746 2.70964 7.81934 2.71875C7.49121 2.71875 7.21322 2.71875 6.98535 2.71875C6.7666 2.71875 6.49316 2.71875 6.16504 2.71875C5.83691 2.70964 5.49967 2.71191 5.15332 2.72559C4.80697 2.73926 4.47428 2.76432 4.15527 2.80078C3.83626 2.83724 3.5765 2.89193 3.37598 2.96484C3.10254 3.07422 2.86556 3.22917 2.66504 3.42969C2.46452 3.63021 2.31413 3.86719 2.21387 4.14062C2.13184 4.34115 2.07259 4.60091 2.03613 4.91992C1.99967 5.22982 1.97689 5.55794 1.96777 5.9043C1.95866 6.25065 1.9541 6.58789 1.9541 6.91602C1.96322 7.24414 1.96777 7.52214 1.96777 7.75C1.96777 7.96875 1.96322 8.24219 1.9541 8.57031C1.9541 8.89844 1.95866 9.23568 1.96777 9.58203C1.97689 9.92839 1.99967 10.2611 2.03613 10.5801C2.07259 10.8991 2.13184 11.1589 2.21387 11.3594C2.32324 11.6328 2.47819 11.8675 2.67871 12.0635C2.87923 12.2594 3.11165 12.4121 3.37598 12.5215C3.5765 12.6035 3.83626 12.6628 4.15527 12.6992C4.47428 12.7357 4.80697 12.7585 5.15332 12.7676C5.49967 12.7767 5.83691 12.7812 6.16504 12.7812C6.49316 12.7721 6.7666 12.7676 6.98535 12.7676C7.21322 12.7676 7.49121 12.7721 7.81934 12.7812C8.14746 12.7812 8.4847 12.7767 8.83105 12.7676C9.17741 12.7585 9.50553 12.7357 9.81543 12.6992C10.1344 12.6628 10.3942 12.6035 10.5947 12.5215C10.8682 12.4121 11.1051 12.2572 11.3057 12.0566C11.5062 11.8561 11.6611 11.6237 11.7705 11.3594Z" fill="#1F1E17"/>
</g>
<defs>
<clipPath id="clip0_4138_1012">
<rect width="14" height="14" fill="white" transform="matrix(1 0 0 -1 0.860352 14.75)"/>
</clipPath>
</defs>
</svg>
