<svg width="24" height="25" viewBox="0 0 24 25" fill="none" xmlns="http://www.w3.org/2000/svg">
<g clip-path="url(#clip0_4138_1061)">
<path d="M6.34881 16.2969H19.591C20.341 16.2969 20.9816 16.0312 21.5129 15.5C22.0441 14.9688 22.3097 14.3281 22.3097 13.5781V8.02344C22.3097 8.02344 22.3097 8.01953 22.3097 8.01172C22.3097 8.00391 22.3097 8 22.3097 8C22.3097 7.98438 22.3097 7.97656 22.3097 7.97656C22.3097 7.97656 22.3097 7.96875 22.3097 7.95312C22.3097 7.95312 22.3097 7.94922 22.3097 7.94141C22.3097 7.93359 22.3097 7.92969 22.3097 7.92969C22.3097 7.92969 22.3058 7.92578 22.298 7.91797C22.2902 7.91016 22.2863 7.89844 22.2863 7.88281C22.2863 7.88281 22.2863 7.87891 22.2863 7.87109C22.2863 7.86328 22.2863 7.85938 22.2863 7.85938C22.2863 7.85938 22.2863 7.85547 22.2863 7.84766C22.2863 7.83984 22.2863 7.83594 22.2863 7.83594C22.2863 7.82031 22.2824 7.8125 22.2746 7.8125C22.2668 7.8125 22.2629 7.80469 22.2629 7.78906C22.2629 7.78906 22.2629 7.78516 22.2629 7.77734C22.2629 7.76953 22.2629 7.76562 22.2629 7.76562C22.2629 7.76562 22.259 7.76172 22.2511 7.75391C22.2433 7.74609 22.2394 7.74219 22.2394 7.74219C22.2394 7.72656 22.2394 7.71875 22.2394 7.71875C22.2238 7.70312 22.216 7.69531 22.216 7.69531C22.216 7.69531 22.216 7.6875 22.216 7.67188C22.216 7.67188 22.2082 7.66406 22.1926 7.64844C22.1926 7.64844 22.1926 7.64453 22.1926 7.63672C22.1926 7.62891 22.1926 7.625 22.1926 7.625C22.1769 7.625 22.1691 7.62109 22.1691 7.61328C22.1691 7.60547 22.1691 7.60156 22.1691 7.60156C22.1691 7.60156 22.1652 7.59766 22.1574 7.58984C22.1496 7.58203 22.1457 7.57812 22.1457 7.57812C22.1457 7.57812 22.1418 7.57422 22.134 7.56641C22.1261 7.55859 22.1222 7.55469 22.1222 7.55469C22.1222 7.55469 22.1183 7.55078 22.1105 7.54297C22.1027 7.53516 22.0988 7.53125 22.0988 7.53125C22.0988 7.53125 22.0949 7.52734 22.0871 7.51953C22.0793 7.51172 22.0754 7.50781 22.0754 7.50781C22.0754 7.50781 22.0715 7.50391 22.0636 7.49609C22.0558 7.48828 22.0519 7.48438 22.0519 7.48438C22.0519 7.48438 22.048 7.48047 22.0402 7.47266C22.0324 7.46484 22.0285 7.46094 22.0285 7.46094C22.0129 7.46094 22.0051 7.46094 22.0051 7.46094C21.9894 7.46094 21.9816 7.45703 21.9816 7.44922C21.9816 7.44141 21.9738 7.4375 21.9582 7.4375C21.9582 7.4375 21.9582 7.43359 21.9582 7.42578C21.9582 7.41797 21.9504 7.41406 21.9347 7.41406C21.9347 7.41406 21.9308 7.41406 21.923 7.41406C21.9152 7.41406 21.9113 7.41406 21.9113 7.41406C21.9113 7.39844 21.9074 7.39062 21.8996 7.39062C21.8918 7.39062 21.8879 7.39062 21.8879 7.39062C21.8722 7.39062 21.8644 7.39062 21.8644 7.39062C21.8644 7.39062 21.8566 7.39062 21.841 7.39062C21.841 7.375 21.8371 7.36719 21.8293 7.36719C21.8215 7.36719 21.8176 7.36719 21.8176 7.36719C21.8176 7.36719 21.8136 7.36719 21.8058 7.36719C21.798 7.36719 21.7941 7.36719 21.7941 7.36719C21.7941 7.36719 21.7902 7.36719 21.7824 7.36719C21.7746 7.36719 21.7629 7.36719 21.7472 7.36719C21.7472 7.36719 21.7472 7.36328 21.7472 7.35547C21.7472 7.34766 21.7394 7.34375 21.7238 7.34375L4.96599 5.04688V2.70312C4.96599 2.6875 4.96599 2.67578 4.96599 2.66797C4.96599 2.66016 4.96599 2.64844 4.96599 2.63281C4.96599 2.63281 4.96599 2.625 4.96599 2.60938C4.96599 2.60938 4.96599 2.60547 4.96599 2.59766C4.96599 2.58984 4.96599 2.57812 4.96599 2.5625C4.95037 2.5625 4.94256 2.55859 4.94256 2.55078C4.94256 2.54297 4.94256 2.53906 4.94256 2.53906C4.94256 2.52344 4.94256 2.51562 4.94256 2.51562C4.94256 2.5 4.94256 2.48828 4.94256 2.48047C4.94256 2.47266 4.93474 2.46875 4.91912 2.46875C4.91912 2.46875 4.91912 2.46484 4.91912 2.45703C4.91912 2.44922 4.91912 2.44531 4.91912 2.44531C4.91912 2.42969 4.91912 2.42188 4.91912 2.42188C4.91912 2.42188 4.91131 2.41406 4.89568 2.39844C4.89568 2.39844 4.89568 2.39453 4.89568 2.38672C4.89568 2.37891 4.89568 2.375 4.89568 2.375C4.89568 2.375 4.89177 2.37109 4.88396 2.36328C4.87615 2.35547 4.87224 2.35156 4.87224 2.35156C4.87224 2.35156 4.87224 2.34766 4.87224 2.33984C4.87224 2.33203 4.86443 2.32812 4.84881 2.32812C4.84881 2.32812 4.84881 2.32422 4.84881 2.31641C4.84881 2.30859 4.84881 2.30469 4.84881 2.30469C4.84881 2.30469 4.8449 2.30078 4.83709 2.29297C4.82927 2.28516 4.82537 2.28125 4.82537 2.28125C4.82537 2.28125 4.82146 2.27734 4.81365 2.26953C4.80584 2.26172 4.80193 2.25781 4.80193 2.25781C4.80193 2.25781 4.79802 2.25391 4.79021 2.24609C4.7824 2.23828 4.77849 2.23438 4.77849 2.23438C4.77849 2.23438 4.77849 2.23047 4.77849 2.22266C4.77849 2.21484 4.77068 2.21094 4.75506 2.21094C4.75506 2.21094 4.75115 2.20703 4.74334 2.19922C4.73552 2.19141 4.73162 2.1875 4.73162 2.1875C4.73162 2.1875 4.72771 2.18359 4.7199 2.17578C4.71209 2.16797 4.70818 2.16406 4.70818 2.16406C4.70818 2.16406 4.70427 2.16406 4.69646 2.16406C4.68865 2.16406 4.68474 2.15625 4.68474 2.14062C4.66912 2.14062 4.6574 2.13672 4.64959 2.12891C4.64177 2.12109 4.63787 2.11719 4.63787 2.11719C4.62224 2.10156 4.60662 2.09375 4.59099 2.09375C4.57537 2.09375 4.56756 2.08594 4.56756 2.07031L0.934743 0.546875C0.762868 0.484375 0.590993 0.488281 0.419118 0.558594C0.247243 0.628906 0.122243 0.742188 0.0441176 0.898438C-0.0183824 1.07031 -0.0144761 1.24219 0.0558364 1.41406C0.126149 1.58594 0.247243 1.71094 0.419118 1.78906L3.63006 3.14844V17.7266C3.63006 18.4141 3.86052 19.0156 4.32146 19.5312C4.7824 20.0469 5.34099 20.3438 5.99724 20.4219C5.88787 20.625 5.79802 20.8438 5.72771 21.0781C5.6574 21.3125 5.62224 21.5547 5.62224 21.8047C5.62224 22.5547 5.88396 23.1914 6.4074 23.7148C6.93084 24.2383 7.56756 24.5 8.31756 24.5C9.05193 24.5 9.68084 24.2383 10.2043 23.7148C10.7277 23.1914 10.9894 22.5547 10.9894 21.8047C10.9894 21.5703 10.9582 21.3359 10.8957 21.1016C10.8332 20.8672 10.7472 20.6484 10.6379 20.4453H16.6144C16.5051 20.6484 16.4152 20.8672 16.3449 21.1016C16.2746 21.3359 16.2394 21.5703 16.2394 21.8047C16.2394 22.5547 16.5051 23.1914 17.0363 23.7148C17.5676 24.2383 18.2004 24.5 18.9347 24.5C19.6691 24.5 20.3019 24.2383 20.8332 23.7148C21.3644 23.1914 21.6301 22.5547 21.6301 21.8047C21.6301 21.0703 21.3644 20.4414 20.8332 19.918C20.3019 19.3945 19.6691 19.1328 18.9347 19.1328H6.34881C5.97381 19.1328 5.64959 18.9961 5.37615 18.7227C5.10271 18.4492 4.96599 18.1172 4.96599 17.7266V15.9219C5.16912 16.0469 5.38787 16.1406 5.62224 16.2031C5.85662 16.2656 6.0988 16.2969 6.34881 16.2969ZM9.67693 21.8047C9.67693 22.1797 9.54412 22.5 9.27849 22.7656C9.01287 23.0312 8.69256 23.1641 8.31756 23.1641C7.94256 23.1641 7.62224 23.0312 7.35662 22.7656C7.09099 22.5 6.95818 22.1797 6.95818 21.8047C6.95818 21.4297 7.09099 21.1094 7.35662 20.8438C7.62224 20.5781 7.94256 20.4453 8.31756 20.4453C8.69256 20.4453 9.01287 20.5781 9.27849 20.8438C9.54412 21.1094 9.67693 21.4297 9.67693 21.8047ZM20.2941 21.8047C20.2941 22.1797 20.1613 22.5 19.8957 22.7656C19.6301 23.0312 19.3097 23.1641 18.9347 23.1641C18.5597 23.1641 18.2394 23.0312 17.9738 22.7656C17.7082 22.5 17.5754 22.1797 17.5754 21.8047C17.5754 21.4297 17.7082 21.1094 17.9738 20.8438C18.2394 20.5781 18.5597 20.4453 18.9347 20.4453C19.3097 20.4453 19.6301 20.5781 19.8957 20.8438C20.1613 21.1094 20.2941 21.4297 20.2941 21.8047ZM19.591 14.9609H6.34881C5.97381 14.9609 5.64959 14.8281 5.37615 14.5625C5.10271 14.2969 4.96599 13.9688 4.96599 13.5781V6.38281L20.9738 8.58594V13.5781C20.9738 13.9688 20.8371 14.2969 20.5636 14.5625C20.2902 14.8281 19.966 14.9609 19.591 14.9609Z" fill="#1F1E17"/>
</g>
<defs>
<clipPath id="clip0_4138_1061">
<rect width="24" height="24" fill="white" transform="matrix(1 0 0 -1 0 24.5)"/>
</clipPath>
</defs>
</svg>
