<svg width="49" height="49" viewBox="0 0 49 49" fill="none" xmlns="http://www.w3.org/2000/svg">
<g clip-path="url(#clip0_4138_1025)">
<path d="M12.4215 38.0625C12.2653 38.0625 12.1246 38.0156 11.9996 37.9219C11.8746 37.8281 11.7809 37.7188 11.7184 37.5938C11.2184 36.1875 10.5309 34.8984 9.65589 33.7266C8.78089 32.5547 7.85902 31.3906 6.89027 30.2344C6.01527 29.1719 5.14808 28.0781 4.2887 26.9531C3.42933 25.8281 2.70277 24.6094 2.10902 23.2969C2.04652 23.1094 2.05433 22.9141 2.13245 22.7109C2.21058 22.5078 2.34339 22.375 2.53089 22.3125C2.71839 22.2188 2.90589 22.2109 3.09339 22.2891C3.28089 22.3672 3.42152 22.5 3.51527 22.6875C4.04652 23.9062 4.71058 25.0391 5.50745 26.0859C6.30433 27.1328 7.14027 28.1875 8.01527 29.25C9.01527 30.4375 9.9762 31.6562 10.8981 32.9062C11.82 34.1562 12.5621 35.5469 13.1246 37.0781C13.1871 37.2656 13.1793 37.4531 13.1012 37.6406C13.0231 37.8281 12.8903 37.9531 12.7028 38.0156C12.6403 38.0469 12.5856 38.0625 12.5387 38.0625C12.4918 38.0625 12.4528 38.0625 12.4215 38.0625ZM12.4215 38.0625C12.3903 38.0625 12.3512 38.0625 12.3043 38.0625C12.2575 38.0625 12.2184 38.0469 12.1871 38.0156C11.9684 37.9531 11.82 37.8281 11.7418 37.6406C11.6637 37.4531 11.6559 37.2656 11.7184 37.0781C12.2809 35.5469 13.0231 34.1562 13.945 32.9062C14.8668 31.6562 15.8278 30.4375 16.8278 29.25C17.7028 28.1875 18.5387 27.1328 19.3356 26.0859C20.1325 25.0391 20.7965 23.9062 21.3278 22.6875C21.4215 22.5 21.5621 22.3672 21.7496 22.2891C21.9371 22.2109 22.1403 22.2188 22.359 22.3125C22.5465 22.375 22.6715 22.5078 22.734 22.7109C22.7965 22.9141 22.7965 23.1094 22.734 23.2969C22.1403 24.6094 21.4215 25.8281 20.5778 26.9531C19.734 28.0781 18.859 29.1719 17.9528 30.2344C16.984 31.3906 16.0621 32.5547 15.1871 33.7266C14.3121 34.8984 13.6246 36.1875 13.1246 37.5938C13.0621 37.7188 12.9684 37.8281 12.8434 37.9219C12.7184 38.0156 12.5778 38.0625 12.4215 38.0625ZM12.4215 24.75C10.7965 24.75 9.39027 24.1562 8.20277 22.9688C7.01527 21.7812 6.42152 20.375 6.42152 18.75C6.42152 17.125 7.01527 15.7188 8.20277 14.5312C9.39027 13.3438 10.7965 12.75 12.4215 12.75C14.0465 12.75 15.4528 13.3438 16.6403 14.5312C17.8278 15.7188 18.4215 17.125 18.4215 18.75C18.4215 20.375 17.8278 21.7812 16.6403 22.9688C15.4528 24.1562 14.0465 24.75 12.4215 24.75ZM12.4215 14.25C11.2028 14.25 10.1481 14.6953 9.25745 15.5859C8.36683 16.4766 7.92152 17.5312 7.92152 18.75C7.92152 19.9688 8.36683 21.0234 9.25745 21.9141C10.1481 22.8047 11.2028 23.25 12.4215 23.25C13.6403 23.25 14.695 22.8047 15.5856 21.9141C16.4762 21.0234 16.9215 19.9688 16.9215 18.75C16.9215 17.5312 16.4762 16.4766 15.5856 15.5859C14.695 14.6953 13.6403 14.25 12.4215 14.25ZM22.0309 23.7188C21.9684 23.7188 21.9137 23.7188 21.8668 23.7188C21.82 23.7188 21.7809 23.7031 21.7496 23.6719C21.5621 23.5781 21.4293 23.4375 21.3512 23.25C21.2731 23.0625 21.2653 22.875 21.3278 22.6875C21.9528 21.25 22.2184 19.7656 22.1246 18.2344C22.0309 16.7031 21.5934 15.25 20.8121 13.875C19.9996 12.5 18.945 11.3906 17.6481 10.5469C16.3512 9.70312 14.9371 9.20312 13.4059 9.04688C11.9059 8.89062 10.4371 9.08594 8.99964 9.63281C7.56214 10.1797 6.32777 11.0156 5.29652 12.1406C3.98402 13.5469 3.1637 15.2188 2.83558 17.1562C2.50745 19.0938 2.73402 20.9375 3.51527 22.6875C3.57777 22.875 3.57777 23.0625 3.51527 23.25C3.45277 23.4375 3.32777 23.5781 3.14027 23.6719C2.92152 23.7656 2.71839 23.7734 2.53089 23.6953C2.34339 23.6172 2.20277 23.4844 2.10902 23.2969C1.23402 21.2656 0.984017 19.1328 1.35902 16.8984C1.73402 14.6641 2.67152 12.7344 4.17152 11.1094C5.35902 9.82812 6.78089 8.875 8.43714 8.25C10.0934 7.625 11.7965 7.39062 13.5465 7.54688C15.3278 7.73438 16.9684 8.3125 18.4684 9.28125C19.9684 10.25 21.1715 11.5312 22.0778 13.125C23.0153 14.7188 23.5387 16.3984 23.6481 18.1641C23.7575 19.9297 23.4528 21.6406 22.734 23.2969C22.6715 23.4219 22.5778 23.5234 22.4528 23.6016C22.3278 23.6797 22.1871 23.7188 22.0309 23.7188ZM12.4684 42C11.1871 42 9.79652 41.9219 8.29652 41.7656C6.79652 41.6094 5.34339 41.2812 3.93714 40.7812C3.37464 40.5938 2.50745 40.1719 1.33558 39.5156C0.163705 38.8594 -0.219108 37.9062 0.187142 36.6562C0.280892 36.3125 0.468392 35.9844 0.749642 35.6719C1.03089 35.3594 1.39027 35.0781 1.82777 34.8281C2.51527 34.3906 3.23402 34.0547 3.98402 33.8203C4.73402 33.5859 5.43714 33.3906 6.09339 33.2344C6.28089 33.2031 6.46839 33.2422 6.65589 33.3516C6.84339 33.4609 6.95277 33.6094 6.98402 33.7969C7.04652 34.0156 7.02308 34.2109 6.9137 34.3828C6.80433 34.5547 6.64027 34.6562 6.42152 34.6875C5.67152 34.875 4.98402 35.0703 4.35902 35.2734C3.73402 35.4766 3.15589 35.75 2.62464 36.0938C2.34339 36.25 2.11683 36.4141 1.94495 36.5859C1.77308 36.7578 1.65589 36.9375 1.59339 37.125C1.49964 37.5 1.68714 37.875 2.15589 38.25C2.62464 38.625 3.39027 39 4.45277 39.375C5.92152 39.9062 7.45277 40.2266 9.04652 40.3359C10.6403 40.4453 12.0778 40.5 13.359 40.5C15.1403 40.4688 16.7184 40.3203 18.0934 40.0547C19.4684 39.7891 20.6715 39.3906 21.7028 38.8594C22.0153 38.7031 22.3903 38.4531 22.8278 38.1094C23.2653 37.7656 23.3903 37.3906 23.2028 36.9844C22.859 36.2969 22.2028 35.7969 21.234 35.4844C20.2653 35.1719 19.4059 34.9375 18.6559 34.7812L18.4215 34.6875C18.234 34.6562 18.0778 34.5547 17.9528 34.3828C17.8278 34.2109 17.7965 34.0156 17.859 33.7969C17.8903 33.6094 17.9996 33.4609 18.1871 33.3516C18.3746 33.2422 18.5621 33.2031 18.7496 33.2344L18.984 33.2812C19.8903 33.5 20.9137 33.8125 22.0543 34.2188C23.195 34.625 24.0153 35.3125 24.5153 36.2812C24.859 37 24.8434 37.7031 24.4684 38.3906C24.0934 39.0781 23.4059 39.6719 22.4059 40.1719C21.2496 40.7656 19.9293 41.2109 18.445 41.5078C16.9606 41.8047 15.2809 41.9688 13.4059 42C13.2496 42 13.0934 42 12.9371 42C12.7809 42 12.6246 42 12.4684 42Z" fill="#4BAF47"/>
</g>
<defs>
<clipPath id="clip0_4138_1025">
<rect width="48" height="48" fill="white" transform="matrix(1 0 0 -1 0.0302734 48.75)"/>
</clipPath>
</defs>
</svg>
