<svg width="137" height="20" viewBox="0 0 137 20" fill="none" xmlns="http://www.w3.org/2000/svg">
<path d="M0.261169 14.7915C0.276794 14.6978 0.276794 14.4478 0.261169 14.0415C0.245544 13.6353 0.237732 13.1353 0.237732 12.5415C0.253357 11.9321 0.268982 11.2681 0.284607 10.5493C0.315857 9.83057 0.370544 9.104 0.448669 8.36963C0.542419 7.63525 0.667419 6.93213 0.823669 6.26025C0.995544 5.57275 1.21429 4.979 1.47992 4.479C1.57367 4.05713 1.80023 3.76807 2.15961 3.61182C2.51898 3.43994 3.02679 3.33838 3.68304 3.30713C4.10492 3.30713 4.46429 3.4165 4.76117 3.63525C5.05804 3.854 5.30804 4.12744 5.51117 4.45557C5.72992 4.76807 5.91742 5.11182 6.07367 5.48682C6.22992 5.86182 6.37054 6.19775 6.49554 6.49463V6.61182C6.60492 6.92432 6.68304 7.39307 6.72992 8.01807C6.79242 8.62744 6.83148 9.27588 6.84711 9.96338C6.87836 10.6353 6.89398 11.2837 6.89398 11.9087C6.89398 12.5337 6.89398 13.0103 6.89398 13.3384C6.89398 13.8071 6.83148 14.3696 6.70648 15.0259C6.58148 15.6665 6.37836 16.2759 6.09711 16.854C5.83148 17.4321 5.47992 17.9243 5.04242 18.3306C4.60492 18.7368 4.08148 18.9399 3.47211 18.9399C2.95648 18.9399 2.49554 18.8071 2.08929 18.5415C1.69867 18.2759 1.36273 17.9399 1.08148 17.5337C0.815857 17.1118 0.612732 16.6587 0.472107 16.1743C0.331482 15.6899 0.261169 15.229 0.261169 14.7915ZM2.53461 16.3618C2.56586 16.5337 2.65179 16.7134 2.79242 16.9009C2.94867 17.0728 3.12836 17.1587 3.33148 17.1587H3.51898C4.17523 16.5649 4.60492 15.8853 4.80804 15.1196C5.01117 14.3384 5.11273 13.5181 5.11273 12.6587C5.11273 12.4556 5.10492 12.1431 5.08929 11.7212C5.07367 11.2993 5.04242 10.8306 4.99554 10.3149C4.96429 9.78369 4.91742 9.229 4.85492 8.65088C4.79242 8.07275 4.71429 7.53369 4.62054 7.03369C4.52679 6.51807 4.41742 6.07275 4.29242 5.69775C4.16742 5.32275 4.01898 5.06494 3.84711 4.92432C3.83148 4.93994 3.80804 4.97119 3.77679 5.01807C3.76117 5.06494 3.75336 5.09619 3.75336 5.11182C3.42523 5.51807 3.12836 6.07275 2.86273 6.77588C2.59711 7.479 2.39398 8.31494 2.25336 9.28369C2.12836 10.2368 2.07367 11.3149 2.08929 12.5181C2.12054 13.7056 2.26898 14.9868 2.53461 16.3618ZM12.6596 16.7134C12.5502 16.9478 12.4409 17.2056 12.3315 17.4868C12.2221 17.7524 12.0971 17.9946 11.9565 18.2134C11.8159 18.4321 11.644 18.6196 11.4409 18.7759C11.2377 18.9165 10.9799 18.9868 10.6674 18.9868C10.1205 18.9868 9.66742 18.854 9.30804 18.5884C8.94867 18.3071 8.65179 17.9634 8.41742 17.5571C8.19867 17.1353 8.04242 16.6821 7.94867 16.1978C7.85492 15.7134 7.80804 15.2603 7.80804 14.8384L7.99554 9.1665C7.97992 9.05713 8.00336 8.94775 8.06586 8.83838C8.14398 8.71338 8.23773 8.604 8.34711 8.51025C8.47211 8.40088 8.60492 8.31494 8.74554 8.25244C8.90179 8.18994 9.04242 8.15869 9.16742 8.15869C9.52679 8.15869 9.83148 8.27588 10.0815 8.51025C10.3315 8.729 10.4565 9.01807 10.4565 9.37744V9.61182C10.2846 9.89307 10.1362 10.2603 10.0112 10.7134C9.88617 11.1665 9.78461 11.6587 9.70648 12.1899C9.64398 12.7056 9.60492 13.2368 9.58929 13.7837C9.57367 14.3306 9.58929 14.8306 9.63617 15.2837C9.69867 15.7368 9.79242 16.1274 9.91742 16.4556C10.0424 16.7681 10.2065 16.9556 10.4096 17.0181C10.4877 17.0181 10.6049 16.979 10.7612 16.9009C10.933 16.8228 11.1127 16.6743 11.3002 16.4556C11.4877 16.2368 11.683 15.9321 11.8862 15.5415C12.0893 15.1353 12.269 14.604 12.4252 13.9478C12.5815 13.2915 12.6987 12.4946 12.7768 11.5571C12.8549 10.6196 12.8784 9.49463 12.8471 8.18213C12.9096 8.01025 12.9955 7.9165 13.1049 7.90088C13.2299 7.88525 13.3549 7.87744 13.4799 7.87744C13.6205 7.87744 13.7377 7.88525 13.8315 7.90088C13.9252 7.90088 14.0268 7.95557 14.1362 8.06494C14.2143 8.14307 14.3002 8.26025 14.394 8.4165C14.4877 8.57275 14.5346 8.65869 14.5346 8.67432L14.933 19.0571C14.933 19.2915 14.8705 19.4868 14.7455 19.6431C14.6205 19.7993 14.4409 19.8774 14.2065 19.8774C14.1284 19.8774 14.0346 19.8696 13.9252 19.854C13.8159 19.8384 13.7065 19.8071 13.5971 19.7603C13.4877 19.7134 13.3862 19.6509 13.2924 19.5728C13.2143 19.5103 13.1674 19.4321 13.1518 19.3384L12.7534 16.9946L12.6596 16.7134ZM17.2768 17.9321C17.2455 17.3696 17.1909 16.6196 17.1127 15.6821C17.0502 14.729 16.9721 13.7446 16.8784 12.729C16.8002 11.7134 16.7143 10.7524 16.6205 9.84619C16.5268 8.93994 16.4487 8.23682 16.3862 7.73682C16.3862 7.53369 16.4799 7.40088 16.6674 7.33838C16.8549 7.27588 17.0346 7.24463 17.2065 7.24463C17.4252 7.24463 17.6518 7.30713 17.8862 7.43213C18.1362 7.55713 18.2924 7.729 18.3549 7.94775C18.3549 8.01025 18.3627 8.12744 18.3784 8.29932C18.394 8.45557 18.4018 8.61963 18.4018 8.7915C18.4174 8.96338 18.433 9.13525 18.4487 9.30713C18.4643 9.46338 18.4721 9.57275 18.4721 9.63525C18.4721 9.729 18.4721 9.79932 18.4721 9.84619C18.4721 9.89307 18.4721 9.93994 18.4721 9.98682C18.4721 10.0181 18.4799 10.0571 18.4955 10.104C18.5112 10.1509 18.5346 10.229 18.5659 10.3384C18.5971 10.3071 18.6284 10.2681 18.6596 10.2212C18.7065 10.1743 18.7377 10.1431 18.7534 10.1274C19.0034 9.76807 19.2455 9.45557 19.4799 9.18994C19.7143 8.90869 19.9565 8.65088 20.2065 8.4165C20.4565 8.1665 20.7299 7.90869 21.0268 7.64307C21.3393 7.36182 21.6987 7.0415 22.1049 6.68213C22.1987 6.604 22.269 6.54932 22.3159 6.51807C22.3627 6.47119 22.4018 6.43994 22.433 6.42432C22.4799 6.39307 22.5268 6.37744 22.5737 6.37744C22.6205 6.36182 22.683 6.354 22.7612 6.354C23.0268 6.354 23.2924 6.44775 23.558 6.63525C23.8393 6.80713 23.9799 7.04932 23.9799 7.36182C23.9799 7.47119 23.9409 7.58838 23.8627 7.71338C23.7846 7.82275 23.6909 7.93213 23.5815 8.0415C23.4721 8.13525 23.3549 8.22119 23.2299 8.29932C23.1205 8.37744 23.019 8.43213 22.9252 8.46338C22.519 8.82275 22.0893 9.23682 21.6362 9.70557C21.183 10.1587 20.7612 10.6509 20.3705 11.1821C19.9799 11.7134 19.6596 12.2681 19.4096 12.8462C19.1596 13.4243 19.0346 14.0024 19.0346 14.5806C19.0346 15.1118 19.0737 15.6353 19.1518 16.1509C19.2299 16.6665 19.269 17.1899 19.269 17.7212V18.5415C19.144 18.6665 19.0346 18.7681 18.9409 18.8462C18.8471 18.9243 18.7143 18.9634 18.5424 18.9634C18.2768 18.9634 18.019 18.854 17.769 18.6353C17.519 18.4009 17.3549 18.1665 17.2768 17.9321ZM38.769 8.65088C38.7534 8.52588 38.7299 8.36963 38.6987 8.18213C38.683 7.979 38.6596 7.7915 38.6284 7.61963C38.6127 7.43213 38.5971 7.27588 38.5815 7.15088C38.5659 7.02588 38.558 6.96338 38.558 6.96338H38.3705L35.6987 7.76025C35.6205 7.88525 35.4877 7.94775 35.3002 7.94775C35.1284 7.94775 34.9955 7.94775 34.9018 7.94775C34.683 7.94775 34.4565 7.854 34.2221 7.6665C34.0034 7.46338 33.894 7.24463 33.894 7.01025C33.894 6.83838 33.9487 6.67432 34.058 6.51807C34.183 6.34619 34.3315 6.229 34.5034 6.1665L38.2768 4.97119C38.3237 4.79932 38.4096 4.62744 38.5346 4.45557C38.6752 4.26807 38.8549 4.17432 39.0737 4.17432C39.2924 4.17432 39.4721 4.229 39.6127 4.33838C39.769 4.44775 39.9409 4.53369 40.1284 4.59619C40.269 4.58057 40.5034 4.53369 40.8315 4.45557C41.1596 4.37744 41.5034 4.29932 41.8627 4.22119C42.2377 4.12744 42.5893 4.0415 42.9174 3.96338C43.2455 3.88525 43.4721 3.83057 43.5971 3.79932C43.7846 3.76807 43.9252 3.729 44.019 3.68213C44.1127 3.63525 44.2612 3.61182 44.4643 3.61182C44.7299 3.61182 45.0034 3.68994 45.2846 3.84619C45.5659 4.00244 45.7065 4.23682 45.7065 4.54932C45.7065 4.75244 45.6362 4.93213 45.4955 5.08838C45.3549 5.229 45.183 5.32275 44.9799 5.36963L40.5268 6.49463V6.70557C40.5268 7.18994 40.5659 7.6665 40.644 8.13525C40.7377 8.604 40.769 9.07275 40.7377 9.5415L41.5346 16.7837V17.2993C41.5346 17.4868 41.5268 17.6821 41.5112 17.8853C41.5112 18.0728 41.4799 18.2446 41.4174 18.4009C41.3705 18.5571 41.2846 18.6899 41.1596 18.7993C41.0346 18.8931 40.8471 18.9399 40.5971 18.9399C40.4096 18.9399 40.2065 18.8618 39.9877 18.7056C39.7846 18.5493 39.6752 18.3618 39.6596 18.1431L38.769 8.83838V8.65088ZM54.519 12.2837C54.4877 12.5649 54.4487 12.7837 54.4018 12.9399C54.3705 13.0962 54.308 13.2368 54.2143 13.3618C54.1205 13.4868 53.9877 13.6196 53.8159 13.7603C53.644 13.8853 53.4096 14.0728 53.1127 14.3228C52.8159 14.5571 52.4487 14.8696 52.0112 15.2603C51.5737 15.6509 51.0424 16.1587 50.4174 16.7837C50.1674 17.0181 49.9096 17.2603 49.644 17.5103C49.3784 17.7603 49.0971 17.9868 48.8002 18.1899C48.519 18.3774 48.2221 18.5337 47.9096 18.6587C47.5971 18.7837 47.269 18.8462 46.9252 18.8462C46.2534 18.8462 45.7612 18.6196 45.4487 18.1665C45.1362 17.7134 44.9799 17.1899 44.9799 16.5962C44.9799 16.2056 44.9877 15.8774 45.0034 15.6118C45.0346 15.3462 45.0971 15.0024 45.1909 14.5806C45.019 14.4243 44.8705 14.2915 44.7455 14.1821C44.6205 14.0571 44.558 13.8931 44.558 13.6899C44.558 13.5024 44.5971 13.3774 44.6752 13.3149C44.769 13.2524 44.8705 13.2134 44.9799 13.1978C45.1049 13.1665 45.2221 13.1353 45.3315 13.104C45.4409 13.0728 45.519 13.0103 45.5659 12.9165C45.5971 12.8228 45.6518 12.6509 45.7299 12.4009C45.8237 12.1509 45.9174 11.8931 46.0112 11.6274C46.1049 11.3462 46.1909 11.0884 46.269 10.854C46.3627 10.604 46.4252 10.4321 46.4565 10.3384C46.5659 10.0728 46.683 9.80713 46.808 9.5415C46.9487 9.26025 47.1049 9.01025 47.2768 8.7915C47.4643 8.57275 47.6752 8.39307 47.9096 8.25244C48.1596 8.11182 48.4487 8.0415 48.7768 8.0415C48.9643 8.0415 49.1909 8.12744 49.4565 8.29932C49.7377 8.47119 50.0034 8.68213 50.2534 8.93213C50.5034 9.1665 50.7143 9.4165 50.8862 9.68213C51.058 9.94775 51.144 10.1743 51.144 10.3618C51.144 10.5962 51.0893 10.8149 50.9799 11.0181C50.8705 11.2056 50.7299 11.3853 50.558 11.5571C50.4018 11.7134 50.2299 11.8618 50.0424 12.0024C49.8549 12.1431 49.683 12.2759 49.5268 12.4009C49.5112 12.4009 49.4799 12.4165 49.433 12.4478C49.3862 12.479 49.3471 12.5024 49.3159 12.5181C49.3002 12.5337 49.2612 12.5728 49.1987 12.6353C49.1518 12.6821 49.0971 12.7368 49.0346 12.7993C48.9721 12.8618 48.9096 12.9243 48.8471 12.9868C48.8002 13.0493 48.769 13.0884 48.7534 13.104C48.7065 13.1509 48.6127 13.229 48.4721 13.3384C48.3471 13.4321 48.2065 13.5415 48.0502 13.6665C47.894 13.7759 47.7455 13.8853 47.6049 13.9946C47.4799 14.0884 47.394 14.1509 47.3471 14.1821L47.2534 14.3696C47.2221 14.4321 47.1909 14.5728 47.1596 14.7915C47.144 14.9946 47.1205 15.229 47.0893 15.4946C47.058 15.7603 47.0268 16.0337 46.9955 16.3149C46.9799 16.5806 46.9721 16.7993 46.9721 16.9712C46.9721 16.9868 46.9799 17.0024 46.9955 17.0181C47.0268 17.0493 47.0502 17.0649 47.0659 17.0649C47.1909 17.0649 47.308 17.0103 47.4174 16.9009C47.5268 16.7915 47.644 16.7134 47.769 16.6665L51.519 13.1978L52.4799 11.7212C52.558 11.6118 52.7065 11.4946 52.9252 11.3696C53.1596 11.229 53.394 11.1587 53.6284 11.1587C53.8627 11.1431 54.0659 11.2134 54.2377 11.3696C54.4252 11.5259 54.519 11.8306 54.519 12.2837ZM49.3627 10.4556C49.4409 10.3931 49.4721 10.2993 49.4565 10.1743C49.4409 10.0493 49.394 9.93994 49.3159 9.84619C49.2534 9.75244 49.1674 9.69775 49.058 9.68213C48.9487 9.65088 48.8471 9.70557 48.7534 9.84619C48.7065 9.90869 48.6205 10.0337 48.4955 10.2212C48.3862 10.4087 48.269 10.604 48.144 10.8071C48.0346 10.9946 47.9409 11.1587 47.8627 11.2993C47.7846 11.4399 47.769 11.4946 47.8159 11.4634L49.3627 10.4556ZM58.6909 18.0493C58.6909 17.9712 58.6909 17.9009 58.6909 17.8384C58.7065 17.7759 58.7455 17.7134 58.808 17.6509C58.9955 17.4165 59.2065 17.1743 59.4409 16.9243C59.6752 16.6587 59.9018 16.4009 60.1205 16.1509C60.3393 15.8853 60.5424 15.6118 60.7299 15.3306C60.9174 15.0493 61.0737 14.7681 61.1987 14.4868V14.3462L58.1284 14.979H57.7768C57.558 14.979 57.2846 14.9634 56.9565 14.9321C56.644 14.9009 56.3315 14.8384 56.019 14.7446C55.7221 14.6353 55.4643 14.4868 55.2455 14.2993C55.0424 14.1118 54.9409 13.8618 54.9409 13.5493C54.9565 13.1899 55.144 12.7915 55.5034 12.354C55.8627 11.9165 56.2846 11.4868 56.769 11.0649C57.2534 10.6431 57.7377 10.2524 58.2221 9.89307C58.7221 9.53369 59.1205 9.25244 59.4174 9.04932C59.7455 8.86182 60.1362 8.71338 60.5893 8.604C61.0424 8.479 61.4565 8.4165 61.8315 8.4165C62.144 8.4165 62.4174 8.479 62.6518 8.604C62.8862 8.71338 63.0034 8.93994 63.0034 9.28369C63.0034 9.42432 62.9877 9.55713 62.9565 9.68213C62.9409 9.80713 62.8471 9.89307 62.6752 9.93994C62.1752 9.89307 61.7065 9.93213 61.269 10.0571C60.8315 10.1665 60.4174 10.3384 60.0268 10.5728C59.6362 10.8071 59.269 11.0884 58.9252 11.4165C58.5815 11.729 58.2455 12.0571 57.9174 12.4009C57.8237 12.5103 57.7065 12.6665 57.5659 12.8696C57.4252 13.0571 57.3549 13.1665 57.3549 13.1978V13.2212C57.7612 13.2212 58.1596 13.1821 58.5502 13.104C58.9565 13.0259 59.3549 12.9478 59.7455 12.8696C60.1518 12.7759 60.5502 12.6899 60.9409 12.6118C61.3471 12.5337 61.7612 12.4946 62.183 12.4946C62.3393 12.4946 62.5112 12.5103 62.6987 12.5415C62.8862 12.5571 63.058 12.604 63.2143 12.6821C63.3862 12.7603 63.519 12.8696 63.6127 13.0103C63.7221 13.1353 63.7768 13.2993 63.7768 13.5024C63.7768 13.7993 63.6987 14.0884 63.5424 14.3696C63.4018 14.6353 63.183 14.9634 62.8862 15.354C62.6049 15.729 62.2377 16.1899 61.7846 16.7368C61.3471 17.2837 60.8237 17.9868 60.2143 18.8462C60.183 18.8931 60.1049 18.9243 59.9799 18.9399C59.8705 18.9556 59.7768 18.9634 59.6987 18.9634C59.4799 18.9634 59.2534 18.8696 59.019 18.6821C58.8002 18.4946 58.6909 18.2837 58.6909 18.0493ZM67.058 12.0962C66.8393 12.0962 66.644 12.1509 66.4721 12.2603C66.3002 12.3696 66.0971 12.4243 65.8627 12.4243C65.8315 12.4243 65.7455 12.4243 65.6049 12.4243C65.4799 12.4087 65.4018 12.4009 65.3705 12.4009C65.308 12.3228 65.2377 12.2603 65.1596 12.2134C65.0815 12.1665 65.0034 12.1196 64.9252 12.0728C64.8471 12.0103 64.7768 11.9399 64.7143 11.8618C64.6674 11.7837 64.644 11.6743 64.644 11.5337C64.644 11.2993 64.7377 11.1118 64.9252 10.9712C65.1127 10.8149 65.3315 10.6821 65.5815 10.5728C65.8315 10.4634 66.0815 10.3618 66.3315 10.2681C66.5971 10.1743 66.808 10.0649 66.9643 9.93994V8.90869C66.9643 7.75244 66.9096 6.59619 66.8002 5.43994C66.6909 4.26807 66.6362 3.11182 66.6362 1.97119C66.6362 1.65869 66.7143 1.45557 66.8705 1.36182C67.0268 1.26807 67.2377 1.22119 67.5034 1.22119C67.8159 1.22119 68.0424 1.31494 68.183 1.50244C68.3393 1.67432 68.4487 1.89307 68.5112 2.15869C68.5737 2.40869 68.6049 2.68213 68.6049 2.979C68.6049 3.26025 68.6127 3.50244 68.6284 3.70557C68.6284 3.90869 68.644 4.26807 68.6752 4.78369C68.7065 5.29932 68.7377 5.84619 68.769 6.42432C68.8002 7.00244 68.8315 7.54932 68.8627 8.06494C68.894 8.58057 68.9174 8.93994 68.933 9.14307C68.9955 9.12744 69.1127 9.08838 69.2846 9.02588C69.4721 8.94775 69.6674 8.87744 69.8705 8.81494C70.0737 8.73682 70.2612 8.6665 70.433 8.604C70.6205 8.5415 70.7534 8.49463 70.8315 8.46338C71.2377 8.2915 71.6596 8.104 72.0971 7.90088C72.5346 7.68213 72.9799 7.57275 73.433 7.57275C73.7455 7.57275 73.9799 7.68213 74.1362 7.90088C74.308 8.104 74.394 8.34619 74.394 8.62744C74.394 8.83057 74.3159 8.979 74.1596 9.07275C74.0034 9.1665 73.8393 9.25244 73.6674 9.33057L69.4018 10.9243C69.3549 10.9556 69.308 10.9868 69.2612 11.0181C69.2143 11.0337 69.1674 11.0649 69.1205 11.1118V11.8618C69.1205 12.4087 69.1284 12.979 69.144 13.5728C69.1752 14.1509 69.2299 14.7134 69.308 15.2603C69.3862 15.729 69.4721 16.1899 69.5659 16.6431C69.6596 17.0962 69.7065 17.5571 69.7065 18.0259C69.7065 18.1665 69.6596 18.354 69.5659 18.5884C69.4721 18.8228 69.3237 18.9399 69.1205 18.9399C68.6987 18.9399 68.3549 18.8149 68.0893 18.5649C67.8237 18.3149 67.6752 17.979 67.644 17.5571C67.5659 16.7446 67.4799 15.854 67.3862 14.8853C67.308 13.9165 67.2299 12.9868 67.1518 12.0962H67.058ZM76.2455 18.0493C76.0893 16.4868 75.9565 15.1509 75.8471 14.0415C75.7377 12.9321 75.644 12.0024 75.5659 11.2524C75.4877 10.5024 75.4174 9.90869 75.3549 9.47119C75.308 9.01807 75.269 8.68213 75.2377 8.46338C75.2065 8.229 75.183 8.07275 75.1674 7.99463C75.1518 7.9165 75.144 7.86963 75.144 7.854V7.76025C75.144 7.58838 75.2143 7.44775 75.3549 7.33838C75.5112 7.21338 75.6674 7.15088 75.8237 7.15088C76.058 7.15088 76.308 7.18994 76.5737 7.26807C76.8549 7.34619 77.0424 7.51025 77.1362 7.76025C77.2768 8.52588 77.3705 9.29932 77.4174 10.0806C77.4799 10.8618 77.5268 11.6431 77.558 12.4243C77.6049 13.1899 77.6596 13.9634 77.7221 14.7446C77.8002 15.5259 77.933 16.2993 78.1205 17.0649C78.1205 17.0962 78.1284 17.1587 78.144 17.2524C78.1752 17.3462 78.1987 17.4478 78.2143 17.5571C78.2455 17.6665 78.269 17.7681 78.2846 17.8618C78.3002 17.9556 78.308 18.0181 78.308 18.0493V18.0962C78.308 18.1118 78.3159 18.1274 78.3315 18.1431C78.3315 18.3306 78.2455 18.5181 78.0737 18.7056C77.9018 18.8931 77.7221 18.9712 77.5346 18.9399C77.4877 18.9243 77.3705 18.9009 77.183 18.8696C77.0112 18.8228 76.894 18.7837 76.8315 18.7524C76.7846 18.7368 76.7221 18.7056 76.644 18.6587C76.5659 18.5962 76.4877 18.5337 76.4096 18.4712C76.3471 18.4087 76.2924 18.3384 76.2455 18.2603C76.1987 18.1821 76.1987 18.1118 76.2455 18.0493ZM74.933 0.963379C74.933 0.854004 75.019 0.760254 75.1909 0.682129C75.3784 0.588379 75.519 0.541504 75.6127 0.541504C75.8471 0.541504 76.1049 0.611816 76.3862 0.752441C76.683 0.877441 76.8315 1.07275 76.8315 1.33838C76.8315 1.604 76.7924 1.78369 76.7143 1.87744C76.6518 1.97119 76.4877 2.01807 76.2221 2.01807C75.9409 2.01807 75.6518 1.92432 75.3549 1.73682C75.0737 1.54932 74.933 1.2915 74.933 0.963379ZM79.5502 11.2993C79.519 10.8931 79.4799 10.4868 79.433 10.0806C79.4018 9.65869 79.3471 9.24463 79.269 8.83838C79.269 8.49463 79.3784 8.27588 79.5971 8.18213C79.8315 8.08838 80.0815 8.0415 80.3471 8.0415H80.8159C81.0502 8.15088 81.2143 8.28369 81.308 8.43994C81.4018 8.59619 81.4643 8.76807 81.4955 8.95557C81.5268 9.14307 81.5346 9.33838 81.519 9.5415C81.519 9.74463 81.5268 9.93994 81.5424 10.1274C81.558 10.2056 81.5659 10.3384 81.5659 10.5259C81.5659 10.7134 81.5659 10.9087 81.5659 11.1118C81.5815 11.3149 81.5971 11.5024 81.6127 11.6743C81.644 11.8462 81.683 11.9556 81.7299 12.0024L83.7924 8.13525C83.8862 7.96338 84.019 7.82275 84.1909 7.71338C84.3784 7.58838 84.5815 7.5415 84.8002 7.57275C85.144 7.604 85.4018 7.67432 85.5737 7.78369C85.7455 7.87744 85.8627 8.01025 85.9252 8.18213C86.0034 8.33838 86.0424 8.53369 86.0424 8.76807C86.058 9.00244 86.0737 9.26025 86.0893 9.5415C86.0893 9.63525 86.0971 9.81494 86.1127 10.0806C86.1284 10.3306 86.144 10.5962 86.1596 10.8774C86.1909 11.1587 86.2143 11.4243 86.2299 11.6743C86.2612 11.9243 86.2846 12.0962 86.3002 12.1899H86.394C86.4252 12.0806 86.4799 11.8696 86.558 11.5571C86.6518 11.2446 86.7534 10.9165 86.8627 10.5728C86.9721 10.229 87.0737 9.90088 87.1674 9.58838C87.2612 9.27588 87.3315 9.05713 87.3784 8.93213C87.394 8.90088 87.4252 8.83838 87.4721 8.74463C87.519 8.63525 87.5659 8.52588 87.6127 8.4165C87.6596 8.2915 87.7065 8.18213 87.7534 8.08838C87.8002 7.979 87.8315 7.90088 87.8471 7.854C87.9565 7.68213 88.0659 7.59619 88.1752 7.59619C88.3002 7.58057 88.433 7.57275 88.5737 7.57275C88.9643 7.57275 89.2612 7.67432 89.4643 7.87744C89.683 8.06494 89.8393 8.30713 89.933 8.604C90.0424 8.90088 90.1205 9.229 90.1674 9.58838C90.2143 9.93213 90.269 10.2524 90.3315 10.5493C90.3471 10.5493 90.3549 10.5649 90.3549 10.5962C90.3549 10.6118 90.3471 10.6274 90.3315 10.6431L91.6205 17.4634C91.683 17.5259 91.7143 17.5806 91.7143 17.6274C91.7299 17.6743 91.7377 17.7368 91.7377 17.8149C91.7377 17.9868 91.6518 18.1587 91.4799 18.3306C91.3237 18.4868 91.1596 18.5649 90.9877 18.5649C90.7534 18.5649 90.4799 18.479 90.1674 18.3071C89.8705 18.1353 89.6987 17.9165 89.6518 17.6509L88.5737 12.0962L88.4565 11.9087C88.4252 11.9868 88.3549 12.2134 88.2455 12.5884C88.1518 12.9478 88.0346 13.4087 87.894 13.9712C87.7534 14.5181 87.5893 15.1353 87.4018 15.8228C87.2299 16.5103 87.0502 17.2134 86.8627 17.9321C86.8315 18.0728 86.7377 18.1821 86.5815 18.2603C86.4409 18.3228 86.3159 18.354 86.2065 18.354C85.8784 18.354 85.6127 18.3149 85.4096 18.2368C85.2065 18.1587 85.0502 18.0415 84.9409 17.8853C84.8315 17.729 84.7534 17.5415 84.7065 17.3228C84.6596 17.104 84.6205 16.854 84.5893 16.5728C84.5893 16.5103 84.5737 16.2915 84.5424 15.9165C84.5112 15.5259 84.4721 15.0884 84.4252 14.604C84.394 14.104 84.3549 13.604 84.308 13.104C84.2612 12.604 84.2299 12.2056 84.2143 11.9087C84.2143 11.8462 84.2143 11.7993 84.2143 11.7681C84.2143 11.7368 84.2143 11.7134 84.2143 11.6978C84.2143 11.6665 84.2065 11.6353 84.1909 11.604C84.1752 11.5571 84.144 11.4868 84.0971 11.3931L83.4174 13.0103L82.3393 16.9712L82.1049 18.4243C82.0893 18.5181 82.0424 18.604 81.9643 18.6821C81.9018 18.7446 81.8237 18.7993 81.7299 18.8462C81.6362 18.8774 81.5424 18.9009 81.4487 18.9165C81.3549 18.9321 81.2768 18.9399 81.2143 18.9399C80.8705 18.9399 80.5737 18.8149 80.3237 18.5649C80.0893 18.3149 79.9643 18.0415 79.9487 17.7446C79.933 17.6353 79.9174 17.4243 79.9018 17.1118C79.8862 16.7837 79.8627 16.4009 79.8315 15.9634C79.8002 15.5259 79.769 15.0649 79.7377 14.5806C79.7221 14.0962 79.6987 13.6353 79.6674 13.1978C79.6362 12.7603 79.6049 12.3774 79.5737 12.0493C79.558 11.7212 79.5502 11.5024 79.5502 11.3931V11.2993ZM92.8862 15.354L93.7534 9.33057C93.7846 9.12744 93.8705 8.979 94.0112 8.88525C94.1674 8.7915 94.3393 8.74463 94.5268 8.74463C94.8705 8.74463 95.144 8.84619 95.3471 9.04932C95.5502 9.23682 95.7221 9.47119 95.8627 9.75244H95.8862C96.0737 9.75244 96.2377 9.72119 96.3784 9.65869C96.5346 9.58057 96.7221 9.5415 96.9409 9.5415C97.4409 9.5415 97.8627 9.69775 98.2065 10.0103C98.5659 10.3228 98.8549 10.7056 99.0737 11.1587C99.2924 11.5962 99.4487 12.0728 99.5424 12.5884C99.6518 13.104 99.7065 13.5571 99.7065 13.9478C99.7065 14.4165 99.5815 14.9399 99.3315 15.5181C99.0971 16.0962 98.7768 16.6431 98.3705 17.1587C97.9799 17.6743 97.5346 18.104 97.0346 18.4478C96.5346 18.7915 96.0268 18.9634 95.5112 18.9634C95.0424 18.9634 94.6362 18.854 94.2924 18.6353C93.9643 18.4165 93.6909 18.1431 93.4721 17.8149C93.269 17.4712 93.1205 17.0884 93.0268 16.6665C92.933 16.2446 92.8862 15.8306 92.8862 15.4243V15.354ZM94.8549 15.4946C94.8862 15.6509 94.9174 15.8306 94.9487 16.0337C94.9799 16.2368 95.0268 16.4243 95.0893 16.5962C95.1518 16.7524 95.2377 16.8774 95.3471 16.9712C95.4721 17.0493 95.644 17.0493 95.8627 16.9712C96.0659 16.7837 96.2846 16.5728 96.519 16.3384C96.7534 16.104 96.9721 15.854 97.1752 15.5884C97.394 15.3228 97.5737 15.0415 97.7143 14.7446C97.8549 14.4478 97.9252 14.1353 97.9252 13.8071C97.9877 13.2759 97.9487 12.7915 97.808 12.354C97.6674 11.9009 97.4643 11.5806 97.1987 11.3931C96.9487 11.1899 96.6596 11.1665 96.3315 11.3228C96.0034 11.4634 95.6752 11.8618 95.3471 12.5181C95.1596 12.9243 95.0268 13.4009 94.9487 13.9478C94.8862 14.479 94.8549 14.9712 94.8549 15.4243V15.4946ZM107.417 18.1431C107.199 17.8306 107.011 17.4009 106.855 16.854C106.714 16.2915 106.574 15.7056 106.433 15.0962C106.308 14.4712 106.191 13.8696 106.081 13.2915C105.972 12.6978 105.855 12.229 105.73 11.8853C105.621 11.5259 105.496 11.3228 105.355 11.2759C105.214 11.229 105.05 11.4399 104.863 11.9087L102.824 18.1899C102.746 18.4087 102.652 18.5649 102.542 18.6587C102.433 18.7368 102.253 18.7759 102.003 18.7759C101.878 18.7759 101.746 18.7603 101.605 18.729C101.464 18.6821 101.331 18.6196 101.206 18.5415C101.081 18.4634 100.972 18.3696 100.878 18.2603C100.8 18.1509 100.753 18.0259 100.738 17.8853C100.785 17.6978 100.824 17.354 100.855 16.854C100.902 16.354 100.933 15.7759 100.949 15.1196C100.964 14.4634 100.972 13.7759 100.972 13.0571C100.988 12.3228 100.988 11.6431 100.972 11.0181C100.972 10.3774 100.964 9.83057 100.949 9.37744C100.933 8.90869 100.917 8.604 100.902 8.46338C100.902 8.30713 100.902 8.15088 100.902 7.99463C100.917 7.82275 100.941 7.6665 100.972 7.52588C101.019 7.38525 101.089 7.27588 101.183 7.19775C101.292 7.104 101.456 7.05713 101.675 7.05713C101.972 7.05713 102.246 7.18213 102.496 7.43213C102.761 7.68213 102.894 7.94775 102.894 8.229C102.894 8.63525 102.871 9.0415 102.824 9.44775C102.792 9.83838 102.777 10.2368 102.777 10.6431C102.777 10.8931 102.777 11.104 102.777 11.2759C102.777 11.4478 102.808 11.6587 102.871 11.9087C102.917 11.7837 102.996 11.5649 103.105 11.2524C103.214 10.9399 103.331 10.6118 103.456 10.2681C103.597 9.92432 103.722 9.604 103.831 9.30713C103.941 8.99463 104.019 8.77588 104.066 8.65088C104.175 8.33838 104.339 8.0415 104.558 7.76025C104.777 7.46338 105.066 7.29932 105.425 7.26807C105.66 7.25244 105.871 7.31494 106.058 7.45557C106.261 7.59619 106.433 7.78369 106.574 8.01807C106.714 8.23682 106.831 8.47119 106.925 8.72119C107.019 8.95557 107.089 9.15869 107.136 9.33057L108.402 15.1665L109.386 17.8384C109.402 17.854 109.41 17.9009 109.41 17.979C109.41 18.0415 109.41 18.0884 109.41 18.1196C109.41 18.3071 109.363 18.4946 109.269 18.6821C109.191 18.854 109.042 18.9399 108.824 18.9399C108.558 18.9399 108.285 18.8696 108.003 18.729C107.722 18.5728 107.527 18.3774 107.417 18.1431ZM111.542 18.0493C111.386 16.4868 111.253 15.1509 111.144 14.0415C111.035 12.9321 110.941 12.0024 110.863 11.2524C110.785 10.5024 110.714 9.90869 110.652 9.47119C110.605 9.01807 110.566 8.68213 110.535 8.46338C110.503 8.229 110.48 8.07275 110.464 7.99463C110.449 7.9165 110.441 7.86963 110.441 7.854V7.76025C110.441 7.58838 110.511 7.44775 110.652 7.33838C110.808 7.21338 110.964 7.15088 111.121 7.15088C111.355 7.15088 111.605 7.18994 111.871 7.26807C112.152 7.34619 112.339 7.51025 112.433 7.76025C112.574 8.52588 112.667 9.29932 112.714 10.0806C112.777 10.8618 112.824 11.6431 112.855 12.4243C112.902 13.1899 112.956 13.9634 113.019 14.7446C113.097 15.5259 113.23 16.2993 113.417 17.0649C113.417 17.0962 113.425 17.1587 113.441 17.2524C113.472 17.3462 113.496 17.4478 113.511 17.5571C113.542 17.6665 113.566 17.7681 113.581 17.8618C113.597 17.9556 113.605 18.0181 113.605 18.0493V18.0962C113.605 18.1118 113.613 18.1274 113.628 18.1431C113.628 18.3306 113.542 18.5181 113.371 18.7056C113.199 18.8931 113.019 18.9712 112.831 18.9399C112.785 18.9243 112.667 18.9009 112.48 18.8696C112.308 18.8228 112.191 18.7837 112.128 18.7524C112.081 18.7368 112.019 18.7056 111.941 18.6587C111.863 18.5962 111.785 18.5337 111.706 18.4712C111.644 18.4087 111.589 18.3384 111.542 18.2603C111.496 18.1821 111.496 18.1118 111.542 18.0493ZM110.23 0.963379C110.23 0.854004 110.316 0.760254 110.488 0.682129C110.675 0.588379 110.816 0.541504 110.91 0.541504C111.144 0.541504 111.402 0.611816 111.683 0.752441C111.98 0.877441 112.128 1.07275 112.128 1.33838C112.128 1.604 112.089 1.78369 112.011 1.87744C111.949 1.97119 111.785 2.01807 111.519 2.01807C111.238 2.01807 110.949 1.92432 110.652 1.73682C110.371 1.54932 110.23 1.2915 110.23 0.963379ZM119.956 12.4009C119.816 12.6509 119.652 12.9556 119.464 13.3149C119.292 13.6587 119.105 14.0337 118.902 14.4399C118.699 14.8306 118.472 15.229 118.222 15.6353C117.988 16.0259 117.738 16.3853 117.472 16.7134C117.222 17.0415 116.956 17.3228 116.675 17.5571C116.394 17.7759 116.105 17.9087 115.808 17.9556C115.683 17.9556 115.542 17.9478 115.386 17.9321C115.23 17.9009 115.074 17.8618 114.917 17.8149C114.761 17.7524 114.628 17.6743 114.519 17.5806C114.425 17.4712 114.378 17.3306 114.378 17.1587C114.394 15.5649 114.511 14.1196 114.73 12.8228C114.949 11.5103 115.292 10.3618 115.761 9.37744C116.23 8.37744 116.831 7.54932 117.566 6.89307C118.3 6.23682 119.191 5.76807 120.238 5.48682C120.269 5.48682 120.324 5.48682 120.402 5.48682C120.496 5.47119 120.558 5.46338 120.589 5.46338C121.058 5.44775 121.394 5.6665 121.597 6.11963C121.816 6.55713 121.972 7.26025 122.066 8.229C122.175 9.18213 122.246 10.4165 122.277 11.9321C122.324 13.4321 122.41 15.2368 122.535 17.3462C122.581 17.5181 122.605 17.6665 122.605 17.7915C122.621 17.9165 122.628 18.0649 122.628 18.2368C122.628 18.4712 122.558 18.6509 122.417 18.7759C122.277 18.8853 122.097 18.9399 121.878 18.9399C121.425 18.9399 121.105 18.8149 120.917 18.5649C120.73 18.3149 120.605 17.979 120.542 17.5571C120.542 17.5415 120.527 17.4165 120.496 17.1821C120.48 16.9478 120.449 16.6821 120.402 16.3853C120.371 16.0728 120.339 15.7603 120.308 15.4478C120.277 15.1353 120.253 14.8774 120.238 14.6743V14.5806C120.206 14.4243 120.183 14.229 120.167 13.9946C120.167 13.7603 120.152 13.5337 120.121 13.3149C120.089 13.0493 120.066 12.7837 120.05 12.5181L119.956 12.4009ZM119.441 7.76025C119.019 8.07275 118.605 8.49463 118.199 9.02588C117.792 9.55713 117.503 10.0728 117.331 10.5728C117.253 10.8071 117.167 11.1274 117.074 11.5337C116.98 11.9399 116.894 12.3462 116.816 12.7524C116.753 13.1431 116.699 13.5103 116.652 13.854C116.605 14.1821 116.581 14.3931 116.581 14.4868C116.597 14.4868 116.613 14.4712 116.628 14.4399C116.66 14.4087 116.683 14.3853 116.699 14.3696C117.667 13.4321 118.347 12.4243 118.738 11.3462C119.144 10.2524 119.378 9.05713 119.441 7.76025ZM124.035 17.2993C124.035 16.6431 124.05 16.0024 124.081 15.3774C124.113 14.7524 124.128 14.1118 124.128 13.4556C124.081 11.6743 124.066 9.93213 124.081 8.229C124.097 6.51025 124.019 4.75244 123.847 2.95557C123.847 2.65869 123.917 2.46338 124.058 2.36963C124.199 2.26025 124.41 2.20557 124.691 2.20557C125.05 2.20557 125.355 2.31494 125.605 2.53369C125.871 2.73682 126.011 3.02588 126.027 3.40088C125.996 5.61963 126.019 7.82275 126.097 10.0103C126.191 12.1821 126.238 14.3853 126.238 16.6196V18.4243C126.144 18.5493 126.011 18.6743 125.839 18.7993C125.667 18.9243 125.496 18.9712 125.324 18.9399C124.871 18.8618 124.542 18.6821 124.339 18.4009C124.136 18.104 124.035 17.7368 124.035 17.2993ZM130.972 18.0493C130.972 17.9712 130.972 17.9009 130.972 17.8384C130.988 17.7759 131.027 17.7134 131.089 17.6509C131.277 17.4165 131.488 17.1743 131.722 16.9243C131.956 16.6587 132.183 16.4009 132.402 16.1509C132.621 15.8853 132.824 15.6118 133.011 15.3306C133.199 15.0493 133.355 14.7681 133.48 14.4868V14.3462L130.41 14.979H130.058C129.839 14.979 129.566 14.9634 129.238 14.9321C128.925 14.9009 128.613 14.8384 128.3 14.7446C128.003 14.6353 127.746 14.4868 127.527 14.2993C127.324 14.1118 127.222 13.8618 127.222 13.5493C127.238 13.1899 127.425 12.7915 127.785 12.354C128.144 11.9165 128.566 11.4868 129.05 11.0649C129.535 10.6431 130.019 10.2524 130.503 9.89307C131.003 9.53369 131.402 9.25244 131.699 9.04932C132.027 8.86182 132.417 8.71338 132.871 8.604C133.324 8.479 133.738 8.4165 134.113 8.4165C134.425 8.4165 134.699 8.479 134.933 8.604C135.167 8.71338 135.285 8.93994 135.285 9.28369C135.285 9.42432 135.269 9.55713 135.238 9.68213C135.222 9.80713 135.128 9.89307 134.956 9.93994C134.456 9.89307 133.988 9.93213 133.55 10.0571C133.113 10.1665 132.699 10.3384 132.308 10.5728C131.917 10.8071 131.55 11.0884 131.206 11.4165C130.863 11.729 130.527 12.0571 130.199 12.4009C130.105 12.5103 129.988 12.6665 129.847 12.8696C129.706 13.0571 129.636 13.1665 129.636 13.1978V13.2212C130.042 13.2212 130.441 13.1821 130.831 13.104C131.238 13.0259 131.636 12.9478 132.027 12.8696C132.433 12.7759 132.831 12.6899 133.222 12.6118C133.628 12.5337 134.042 12.4946 134.464 12.4946C134.621 12.4946 134.792 12.5103 134.98 12.5415C135.167 12.5571 135.339 12.604 135.496 12.6821C135.667 12.7603 135.8 12.8696 135.894 13.0103C136.003 13.1353 136.058 13.2993 136.058 13.5024C136.058 13.7993 135.98 14.0884 135.824 14.3696C135.683 14.6353 135.464 14.9634 135.167 15.354C134.886 15.729 134.519 16.1899 134.066 16.7368C133.628 17.2837 133.105 17.9868 132.496 18.8462C132.464 18.8931 132.386 18.9243 132.261 18.9399C132.152 18.9556 132.058 18.9634 131.98 18.9634C131.761 18.9634 131.535 18.8696 131.3 18.6821C131.081 18.4946 130.972 18.2837 130.972 18.0493Z" fill="#EEC044"/>
</svg>
