<svg width="15" height="18" viewBox="0 0 15 18" fill="none" xmlns="http://www.w3.org/2000/svg">
<g clip-path="url(#clip0_4140_673)">
<path d="M14.5654 12.4629C14.5654 12.6387 14.5303 12.873 14.46 13.166C14.3896 13.459 14.3193 13.6875 14.249 13.8516C14.1084 14.1914 13.6982 14.5488 13.0186 14.9238C12.3857 15.2637 11.7646 15.4336 11.1553 15.4336C10.9678 15.4336 10.792 15.4219 10.6279 15.3984C10.4521 15.375 10.2588 15.334 10.0479 15.2754C9.83691 15.2051 9.67871 15.1523 9.57324 15.1172C9.46777 15.082 9.28027 15.0176 9.01074 14.9238C8.74121 14.8184 8.57715 14.7539 8.51855 14.7305C7.8623 14.4961 7.27637 14.2207 6.76074 13.9043C5.91699 13.377 5.03223 12.6504 4.10645 11.7246C3.19238 10.8105 2.47168 9.93164 1.94434 9.08789C1.61621 8.57227 1.33496 7.98633 1.10059 7.33008C1.08887 7.25977 1.03027 7.0957 0.924805 6.83789C0.831055 6.56836 0.760742 6.38086 0.713867 6.27539C0.678711 6.16992 0.631836 6.01172 0.573242 5.80078C0.514648 5.58984 0.473633 5.39648 0.450195 5.2207C0.426758 5.04492 0.415039 4.86914 0.415039 4.69336C0.415039 4.07227 0.584961 3.45117 0.924805 2.83008C1.2998 2.15039 1.65723 1.74023 1.99707 1.59961C2.16113 1.5293 2.38965 1.45898 2.68262 1.38867C2.97559 1.31836 3.20996 1.2832 3.38574 1.2832C3.47949 1.2832 3.5498 1.29492 3.59668 1.31836C3.71387 1.35352 3.88965 1.60547 4.12402 2.07422C4.20605 2.20312 4.31152 2.38477 4.44043 2.61914C4.55762 2.85352 4.6748 3.06445 4.79199 3.25195C4.89746 3.45117 4.99707 3.63281 5.09082 3.79688C5.11426 3.82031 5.17285 3.90234 5.2666 4.04297C5.37207 4.18359 5.44824 4.30664 5.49512 4.41211C5.54199 4.50586 5.56543 4.59961 5.56543 4.69336C5.56543 4.82227 5.46582 4.98633 5.2666 5.18555C5.0791 5.39648 4.87402 5.58398 4.65137 5.74805C4.42871 5.91211 4.21777 6.08789 4.01855 6.27539C3.83105 6.46289 3.7373 6.61523 3.7373 6.73242C3.7373 6.80273 3.75488 6.87891 3.79004 6.96094C3.8252 7.05469 3.85449 7.125 3.87793 7.17188C3.90137 7.21875 3.94824 7.30078 4.01855 7.41797C4.08887 7.52344 4.12402 7.58789 4.12402 7.61133C4.63965 8.52539 5.22559 9.31055 5.88184 9.9668C6.53809 10.623 7.32324 11.2031 8.2373 11.707C8.24902 11.7188 8.31348 11.7598 8.43066 11.8301C8.54785 11.9004 8.62988 11.9473 8.67676 11.9707C8.72363 11.9941 8.78809 12.0234 8.87012 12.0586C8.96387 12.0938 9.04004 12.1113 9.09863 12.1113C9.22754 12.1113 9.38574 12.0117 9.57324 11.8125C9.76074 11.625 9.93652 11.4199 10.1006 11.1973C10.2646 10.9746 10.4463 10.7637 10.6455 10.5645C10.8447 10.377 11.0146 10.2832 11.1553 10.2832C11.249 10.2832 11.3428 10.3066 11.4365 10.3535C11.5303 10.4004 11.6475 10.4707 11.7881 10.5645C11.9287 10.6699 12.0166 10.7285 12.0518 10.7402C12.2158 10.8457 12.3916 10.9512 12.5791 11.0566C12.7783 11.1621 12.9951 11.2793 13.2295 11.4082C13.4639 11.5371 13.6396 11.6367 13.7568 11.707C14.2256 11.9414 14.4834 12.123 14.5303 12.252C14.5537 12.2988 14.5654 12.3691 14.5654 12.4629Z" fill="#EEC044"/>
</g>
<defs>
<clipPath id="clip0_4140_673">
<rect width="14.16" height="18" fill="white" transform="matrix(1 0 0 -1 0.410156 18)"/>
</clipPath>
</defs>
</svg>
