<svg width="31" height="31" viewBox="0 0 31 31" fill="none" xmlns="http://www.w3.org/2000/svg">
<g clip-path="url(#clip0_4138_1015)">
<path d="M29.7183 24.2168L23.8296 18.3281C23.4976 17.9961 23.0826 17.8301 22.5845 17.8301C22.0865 17.8301 21.6617 17.9961 21.3101 18.3281L19.7574 19.8809C19.523 20.1152 19.3667 20.3936 19.2886 20.7158C19.2105 21.0381 19.2202 21.3457 19.3179 21.6387L18.732 22.2246C18.5367 22.4199 17.8677 22.3027 16.7251 21.873C15.5826 21.4434 14.2398 20.457 12.6968 18.9141C11.1538 17.3711 10.1675 16.0283 9.73783 14.8857C9.30814 13.7432 9.19095 13.0742 9.38626 12.8789L9.9722 12.293C10.0503 12.3125 10.1333 12.332 10.2212 12.3516C10.3091 12.3711 10.3921 12.3809 10.4702 12.3809C10.7046 12.3809 10.9292 12.3369 11.1441 12.249C11.3589 12.1611 11.5542 12.0293 11.73 11.8535L13.2827 10.3008C13.6148 9.94922 13.7808 9.52441 13.7808 9.02637C13.7808 8.52832 13.6148 8.11328 13.2827 7.78125L7.39408 1.89258C7.2183 1.7168 7.02298 1.58496 6.80814 1.49707C6.5933 1.40918 6.35892 1.36523 6.10501 1.36523C5.87064 1.36523 5.64603 1.40918 5.43119 1.49707C5.21634 1.58496 5.02103 1.7168 4.84525 1.89258L3.32181 3.41602C3.08744 3.65039 2.93119 3.92871 2.85306 4.25098C2.77494 4.57324 2.77494 4.89062 2.85306 5.20312C2.85306 5.20312 2.77005 5.28613 2.60404 5.45215C2.43802 5.61816 2.35501 5.70117 2.35501 5.70117C1.5347 6.61914 1.0513 7.7666 0.90482 9.14355C0.758335 10.5205 0.958531 12.0586 1.50541 13.7578C1.75931 14.5977 2.09134 15.4473 2.5015 16.3066C2.91166 17.1465 3.39017 17.9863 3.93705 18.8262C4.48392 19.666 5.08939 20.4961 5.75345 21.3164C6.41751 22.1367 7.13041 22.9375 7.89212 23.7188C8.67337 24.4805 9.47416 25.1934 10.2945 25.8574C11.1148 26.5215 11.9449 27.127 12.7847 27.6738C13.6245 28.2207 14.4644 28.6992 15.3042 29.1094C16.1636 29.5195 17.0132 29.8516 17.8531 30.1055C18.5171 30.3203 19.1617 30.4814 19.7867 30.5889C20.4117 30.6963 21.0074 30.75 21.5738 30.75C22.5113 30.75 23.3609 30.6084 24.1226 30.3252C24.8843 30.042 25.5386 29.627 26.0855 29.0801L26.4077 28.7578C26.5054 28.7773 26.5933 28.792 26.6714 28.8018C26.7495 28.8115 26.8277 28.8164 26.9058 28.8164C27.1597 28.8164 27.3941 28.7725 27.6089 28.6846C27.8238 28.5967 28.0191 28.4648 28.1949 28.2891L29.7183 26.7656C30.0699 26.4141 30.2456 25.9893 30.2456 25.4912C30.2456 24.9932 30.0699 24.5684 29.7183 24.2168ZM6.10501 3.15234L11.9937 9.04102L10.4702 10.5645L4.58158 4.67578L6.10501 3.15234ZM24.8257 27.791C24.1812 28.4355 23.3023 28.8115 22.189 28.9189C21.0757 29.0264 19.8062 28.8555 18.3804 28.4062C17.6187 28.1523 16.8472 27.8398 16.066 27.4688C15.2847 27.0781 14.5035 26.6338 13.7222 26.1357C12.941 25.6377 12.1695 25.0762 11.4077 24.4512C10.646 23.8262 9.90384 23.1523 9.18119 22.4297C8.45853 21.707 7.7847 20.9648 7.1597 20.2031C6.5347 19.4414 5.97318 18.6699 5.47513 17.8887C4.97709 17.1074 4.53275 16.3262 4.14212 15.5449C3.77103 14.7637 3.45853 13.9922 3.20462 13.2305C2.75541 11.8047 2.58451 10.5352 2.69193 9.42188C2.79935 8.30859 3.17533 7.42969 3.81986 6.78516L3.96634 6.60938L8.53666 11.1797L8.1265 11.5898C7.69681 12.0391 7.48197 12.5957 7.48197 13.2598C7.5015 13.9238 7.67728 14.6465 8.00931 15.4277C8.34134 16.209 8.81009 17.0195 9.41556 17.8594C10.021 18.6797 10.6851 19.4609 11.4077 20.2031C12.521 21.2969 13.7076 22.2246 14.9673 22.9863C16.2271 23.748 17.355 24.1289 18.3511 24.1289C18.6636 24.1289 18.9615 24.0752 19.2447 23.9678C19.5279 23.8604 19.7867 23.6992 20.021 23.4844L20.4312 23.0742L25.0015 27.6445L24.8257 27.791ZM26.9351 27.0293L21.0464 21.1406L22.5699 19.6172L28.4585 25.5059C28.4585 25.5059 28.2046 25.7598 27.6968 26.2676C27.189 26.7754 26.9351 27.0293 26.9351 27.0293ZM23.6538 7.95703C22.7945 7.11719 21.813 6.46777 20.7095 6.00879C19.606 5.5498 18.4488 5.32031 17.2378 5.32031C16.9839 5.32031 16.7691 5.4082 16.5933 5.58398C16.4175 5.75977 16.3296 5.96484 16.3296 6.19922C16.3296 6.45312 16.4175 6.66797 16.5933 6.84375C16.7691 7.01953 16.9839 7.10742 17.2378 7.10742C18.2144 7.10742 19.1421 7.29297 20.021 7.66406C20.8999 8.03516 21.6812 8.5625 22.3648 9.24609C23.0484 9.92969 23.5757 10.7109 23.9468 11.5898C24.3179 12.4688 24.5035 13.3965 24.5035 14.373C24.5035 14.627 24.5913 14.8418 24.7671 15.0176C24.9429 15.1934 25.1577 15.2812 25.4117 15.2812C25.646 15.2812 25.8511 15.1934 26.0269 15.0176C26.2027 14.8418 26.2906 14.627 26.2906 14.373C26.2906 13.1621 26.0611 12.0049 25.6021 10.9014C25.1431 9.79785 24.4937 8.81641 23.6538 7.95703ZM26.8765 4.73438C26.232 4.08984 25.5386 3.52344 24.7964 3.03516C24.0542 2.52734 23.273 2.10742 22.4527 1.77539C21.6324 1.44336 20.7827 1.18945 19.9038 1.01367C19.0445 0.837891 18.1558 0.75 17.2378 0.75C16.9839 0.75 16.7691 0.837891 16.5933 1.01367C16.4175 1.18945 16.3296 1.4043 16.3296 1.6582C16.3296 1.89258 16.4175 2.09766 16.5933 2.27344C16.7691 2.44922 16.9839 2.53711 17.2378 2.53711C18.8199 2.53711 20.3286 2.83496 21.7642 3.43066C23.1997 4.02637 24.4742 4.89062 25.5874 6.02344C26.7202 7.13672 27.5845 8.41113 28.1802 9.84668C28.7759 11.2822 29.0738 12.791 29.0738 14.373C29.0738 14.627 29.1617 14.8418 29.3374 15.0176C29.5132 15.1934 29.7183 15.2812 29.9527 15.2812C30.2066 15.2812 30.4214 15.1934 30.5972 15.0176C30.773 14.8418 30.8609 14.627 30.8609 14.373C30.8609 13.4551 30.773 12.5664 30.5972 11.707C30.4214 10.8281 30.1675 9.97852 29.8355 9.1582C29.5035 8.33789 29.0835 7.55664 28.5757 6.81445C28.0874 6.07227 27.521 5.37891 26.8765 4.73438ZM20.4019 11.209C19.9722 10.7598 19.4888 10.4277 18.9517 10.2129C18.4146 9.99805 17.8433 9.89062 17.2378 9.89062C16.9839 9.89062 16.7691 9.97852 16.5933 10.1543C16.4175 10.3301 16.3296 10.5352 16.3296 10.7695C16.3296 11.0234 16.4175 11.2383 16.5933 11.4141C16.7691 11.5898 16.9839 11.6777 17.2378 11.6777C17.6089 11.6777 17.9556 11.7461 18.2779 11.8828C18.6001 12.0195 18.8882 12.2148 19.1421 12.4688C19.396 12.7227 19.5913 13.0107 19.7281 13.333C19.8648 13.6553 19.9331 14.002 19.9331 14.373C19.9331 14.627 20.021 14.8418 20.1968 15.0176C20.3726 15.1934 20.5874 15.2812 20.8413 15.2812C21.0757 15.2812 21.2808 15.1934 21.4566 15.0176C21.6324 14.8418 21.7202 14.627 21.7202 14.373C21.7202 13.7676 21.6128 13.1963 21.398 12.6592C21.1831 12.1221 20.8511 11.6387 20.4019 11.209Z" fill="#4BAF47"/>
</g>
<defs>
<clipPath id="clip0_4138_1015">
<rect width="30" height="30" fill="white" transform="matrix(1 0 0 -1 0.860352 30.75)"/>
</clipPath>
</defs>
</svg>
