<svg width="12" height="15" viewBox="0 0 12 15" fill="none" xmlns="http://www.w3.org/2000/svg">
<g clip-path="url(#clip0_4138_1009)">
<path d="M6.18848 0.927734C6.83561 0.927734 7.4554 1.03255 8.04785 1.24219C8.6403 1.46094 9.16211 1.76628 9.61328 2.1582C10.0645 2.55013 10.4268 3.01953 10.7002 3.56641C10.9736 4.1224 11.1104 4.73763 11.1104 5.41211C11.1104 6.05013 11.0283 6.68815 10.8643 7.32617C10.7002 7.97331 10.445 8.55208 10.0986 9.0625C9.75228 9.57292 9.31478 9.99219 8.78613 10.3203C8.25749 10.6393 7.62858 10.7988 6.89941 10.7988C6.55306 10.7988 6.19303 10.7145 5.81934 10.5459C5.44564 10.3773 5.17676 10.1335 5.0127 9.81445C4.69369 11.0449 4.45898 11.904 4.30859 12.3916C4.1582 12.8792 3.74121 13.5924 3.05762 14.5312C2.9847 14.5586 2.94596 14.5723 2.94141 14.5723C2.93685 14.5723 2.91178 14.5449 2.86621 14.4902C2.83887 14.235 2.81152 13.9798 2.78418 13.7246C2.75684 13.4694 2.74316 13.2142 2.74316 12.959C2.74316 12.5397 2.78418 12.0794 2.86621 11.5781C2.94824 11.0859 3.05078 10.5846 3.17383 10.0742C3.29688 9.5638 3.4222 9.06706 3.5498 8.58398C3.68652 8.0918 3.80046 7.64062 3.8916 7.23047C3.79134 7.02083 3.72298 6.79525 3.68652 6.55371C3.65007 6.31217 3.63184 6.07747 3.63184 5.84961C3.63184 5.30273 3.764 4.87435 4.02832 4.56445C4.29264 4.25456 4.58659 4.06543 4.91016 3.99707C5.23372 3.92871 5.52767 3.99023 5.79199 4.18164C6.06543 4.37305 6.20215 4.69206 6.20215 5.13867C6.20215 5.67643 6.08138 6.19824 5.83984 6.7041C5.59831 7.20996 5.47754 7.72266 5.47754 8.24219C5.47754 8.59766 5.60286 8.88704 5.85352 9.11035C6.10417 9.33366 6.39811 9.44531 6.73535 9.44531C7.20931 9.44531 7.60579 9.29492 7.9248 8.99414C8.2347 8.69336 8.48535 8.32878 8.67676 7.90039C8.86816 7.47201 9.00488 7.01628 9.08691 6.5332C9.16895 6.05013 9.20996 5.6263 9.20996 5.26172C9.20996 4.77865 9.12793 4.35026 8.96387 3.97656C8.7998 3.60286 8.57422 3.28841 8.28711 3.0332C8 2.778 7.65592 2.58659 7.25488 2.45898C6.86296 2.33138 6.43457 2.26758 5.96973 2.26758C5.42285 2.26758 4.91699 2.35872 4.45215 2.54102C3.9873 2.72331 3.58171 2.98079 3.23535 3.31348C2.889 3.64616 2.62012 4.04492 2.42871 4.50977C2.22819 4.9655 2.12793 5.47135 2.12793 6.02734C2.12793 6.55599 2.23503 6.96387 2.44922 7.25098C2.66341 7.53809 2.77051 7.74544 2.77051 7.87305C2.77051 7.98242 2.73405 8.17155 2.66113 8.44043C2.58822 8.70931 2.4834 8.84375 2.34668 8.84375C2.01855 8.84375 1.64714 8.58171 1.23242 8.05762C0.817708 7.53353 0.610352 6.78841 0.610352 5.82227C0.610352 5.06575 0.769857 4.38672 1.08887 3.78516C1.40788 3.17448 1.82715 2.6595 2.34668 2.24023C2.86621 1.82096 3.46322 1.4974 4.1377 1.26953C4.80306 1.04167 5.48665 0.927734 6.18848 0.927734Z" fill="#1F1E17"/>
</g>
<defs>
<clipPath id="clip0_4138_1009">
<rect width="10.5" height="14" fill="white" transform="matrix(1 0 0 -1 0.610352 14.75)"/>
</clipPath>
</defs>
</svg>
