<svg width="24" height="25" viewBox="0 0 24 25" fill="none" xmlns="http://www.w3.org/2000/svg">
<g clip-path="url(#clip0_4138_1058)">
<path d="M23.7891 23.2812L17.9531 17.4453C18.7344 16.5391 19.3477 15.5156 19.793 14.375C20.2383 13.2344 20.4609 12.0234 20.4609 10.7422C20.4609 9.32031 20.1953 7.99219 19.6641 6.75781C19.1328 5.50781 18.4023 4.42188 17.4727 3.5C16.543 2.57812 15.4531 1.84375 14.2031 1.29688C12.9688 0.765625 11.6484 0.5 10.2422 0.5C8.82031 0.5 7.49219 0.765625 6.25781 1.29688C5.00781 1.84375 3.92188 2.57812 3 3.5C2.07812 4.42188 1.34375 5.50781 0.796875 6.75781C0.265625 7.99219 0 9.32031 0 10.7422C0 12.1484 0.265625 13.4688 0.796875 14.7031C1.34375 15.9531 2.07812 17.0391 3 17.9609C3.92188 18.8828 5.00781 19.6172 6.25781 20.1641C7.49219 20.6953 8.82031 20.9609 10.2422 20.9609C11.5234 20.9609 12.7344 20.7383 13.875 20.293C15.0156 19.8477 16.0391 19.2344 16.9453 18.4531L22.7812 24.2891C22.8438 24.3516 22.9219 24.4023 23.0156 24.4414C23.1094 24.4805 23.1953 24.5 23.2734 24.5C23.3672 24.5 23.4609 24.4844 23.5547 24.4531C23.6484 24.4219 23.7266 24.3672 23.7891 24.2891C23.9297 24.1484 24 23.9805 24 23.7852C24 23.5898 23.9297 23.4219 23.7891 23.2812ZM1.42969 10.7422C1.42969 9.52344 1.66406 8.38281 2.13281 7.32031C2.58594 6.24219 3.21094 5.30469 4.00781 4.50781C4.80469 3.71094 5.74219 3.08594 6.82031 2.63281C7.88281 2.16406 9.02344 1.92969 10.2422 1.92969C11.4453 1.92969 12.5859 2.16406 13.6641 2.63281C14.7266 3.08594 15.6562 3.71094 16.4531 4.50781C17.25 5.30469 17.875 6.24219 18.3281 7.32031C18.7969 8.38281 19.0312 9.52344 19.0312 10.7422C19.0312 11.9453 18.7969 13.0859 18.3281 14.1641C17.875 15.2266 17.25 16.1562 16.4531 16.9531C15.6562 17.75 14.7266 18.3828 13.6641 18.8516C12.5859 19.3047 11.4453 19.5312 10.2422 19.5312C9.02344 19.5312 7.88281 19.3047 6.82031 18.8516C5.74219 18.3828 4.80469 17.75 4.00781 16.9531C3.21094 16.1562 2.58594 15.2266 2.13281 14.1641C1.66406 13.0859 1.42969 11.9453 1.42969 10.7422Z" fill="#1F1E17"/>
</g>
<defs>
<clipPath id="clip0_4138_1058">
<rect width="24" height="24" fill="white" transform="matrix(1 0 0 -1 0 24.5)"/>
</clipPath>
</defs>
</svg>
