<svg width="51" height="51" viewBox="0 0 51 51" fill="none" xmlns="http://www.w3.org/2000/svg">
<rect x="0.980469" y="0.0898438" width="50" height="50" rx="10" fill="#4BAF47"/>
<path d="M38.4805 29.5332C40.9544 29.5332 43.0622 30.404 44.8037 32.1455C46.5452 33.887 47.416 35.9948 47.416 38.4688C47.416 40.9427 46.5452 43.0505 44.8037 44.792C43.0622 46.5335 40.9544 47.4043 38.4805 47.4043C36.0065 47.4043 33.8988 46.5335 32.1572 44.792C30.4157 43.0505 29.5449 40.9427 29.5449 38.4688C29.5449 38.3385 29.5531 38.1921 29.5693 38.0293C29.5856 37.8665 29.5938 37.7038 29.5938 37.541L19.5352 32.5117C18.7539 33.2604 17.8424 33.8464 16.8008 34.2695C15.7591 34.6927 14.6523 34.9043 13.4805 34.9043C11.0065 34.9043 8.89876 34.0335 7.15723 32.292C5.41569 30.5505 4.54492 28.4427 4.54492 25.9688C4.54492 23.4948 5.41569 21.387 7.15723 19.6455C8.89876 17.904 11.0065 17.0332 13.4805 17.0332C14.6523 17.0332 15.7591 17.2529 16.8008 17.6924C17.8424 18.1318 18.7539 18.7259 19.5352 19.4746L29.5938 14.4453C29.5938 14.2826 29.5856 14.1198 29.5693 13.957C29.5531 13.7943 29.5449 13.6315 29.5449 13.4688C29.5449 10.9948 30.4157 8.88704 32.1572 7.14551C33.8988 5.40397 36.0065 4.5332 38.4805 4.5332C40.9544 4.5332 43.0622 5.40397 44.8037 7.14551C46.5452 8.88704 47.416 10.9948 47.416 13.4688C47.416 15.9427 46.5452 18.0505 44.8037 19.792C43.0622 21.5335 40.9544 22.4043 38.4805 22.4043C37.3086 22.4043 36.2018 22.1927 35.1602 21.7695C34.1185 21.3464 33.1908 20.7604 32.377 20.0117L22.3672 25.041C22.3672 25.2038 22.3753 25.3665 22.3916 25.5293C22.4079 25.6921 22.416 25.8385 22.416 25.9688C22.416 26.1315 22.4079 26.2943 22.3916 26.457C22.3753 26.6198 22.3672 26.7826 22.3672 26.9453L32.377 31.9746C33.1908 31.2259 34.1185 30.6318 35.1602 30.1924C36.2018 29.7529 37.3086 29.5332 38.4805 29.5332Z" fill="white"/>
</svg>
