<svg xmlns="http://www.w3.org/2000/svg" viewBox="0 0 1400 100">
  <!-- Dark background area with frequent tears and moderate height variation -->
  <path d="M0,100 L1400,100 L1400,50 
    C1395,55 1390,45 1385,53
    C1380,46 1375,54 1370,47
    C1365,55 1360,45 1355,53
    C1350,46 1345,54 1340,47
    C1335,55 1330,45 1325,53
    C1320,46 1315,54 1310,47
    C1305,55 1300,45 1295,53
    C1290,46 1285,54 1280,47
    C1275,55 1270,45 1265,53
    C1260,46 1255,54 1250,47
    C1245,55 1240,45 1235,53
    C1230,46 1225,54 1220,47
    C1215,55 1210,45 1205,53
    C1200,46 1195,54 1190,47
    C1185,55 1180,45 1175,53
    C1170,46 1165,54 1160,47
    C1155,55 1150,45 1145,53
    C1140,46 1135,54 1130,47
    C1125,55 1120,45 1115,53
    C1110,46 1105,54 1100,47
    C1095,55 1090,45 1085,53
    C1080,46 1075,54 1070,47
    C1065,55 1060,45 1055,53
    C1050,46 1045,54 1040,47
    C1035,55 1030,45 1025,53
    C1020,46 1015,54 1010,47
    C1005,55 1000,45 995,53
    C990,46 985,54 980,47
    C975,55 970,45 965,53
    C960,46 955,54 950,47
    C945,55 940,45 935,53
    C930,46 925,54 920,47
    C915,55 910,45 905,53
    C900,46 895,54 890,47
    C885,55 880,45 875,53
    C870,46 865,54 860,47
    C855,55 850,45 845,53
    C840,46 835,54 830,47
    C825,55 820,45 815,53
    C810,46 805,54 800,47
    C795,55 790,45 785,53
    C780,46 775,54 770,47
    C765,55 760,45 755,53
    C750,46 745,54 740,47
    C735,55 730,45 725,53
    C720,46 715,54 710,47
    C705,55 700,45 695,53
    C690,46 685,54 680,47
    C675,55 670,45 665,53
    C660,46 655,54 650,47
    C645,55 640,45 635,53
    C630,46 625,54 620,47
    C615,55 610,45 605,53
    C600,46 595,54 590,47
    C585,55 580,45 575,53
    C570,46 565,54 560,47
    C555,55 550,45 545,53
    C540,46 535,54 530,47
    C525,55 520,45 515,53
    C510,46 505,54 500,47
    C495,55 490,45 485,53
    C480,46 475,54 470,47
    C465,55 460,45 455,53
    C450,46 445,54 440,47
    C435,55 430,45 425,53
    C420,46 415,54 410,47
    C405,55 400,45 395,53
    C390,46 385,54 380,47
    C375,55 370,45 365,53
    C360,46 355,54 350,47
    C345,55 340,45 335,53
    C330,46 325,54 320,47
    C315,55 310,45 305,53
    C300,46 295,54 290,47
    C285,55 280,45 275,53
    C270,46 265,54 260,47
    C255,55 250,45 245,53
    C240,46 235,54 230,47
    C225,55 220,45 215,53
    C210,46 205,54 200,47
    C195,55 190,45 185,53
    C180,46 175,54 170,47
    C165,55 160,45 155,53
    C150,46 145,54 140,47
    C135,55 130,45 125,53
    C120,46 115,54 110,47
    C105,55 100,45 95,53
    C90,46 85,54 80,47
    C75,55 70,45 65,53
    C60,46 55,54 50,47
    C45,55 40,45 35,53
    C30,46 25,54 20,47
    C15,55 10,45 5,53
    C0,46 0,50 0,50 Z" 
    fill="#374851"/>
    
  <!-- White background area with frequent tears and moderate height variation -->
  <path d="M0,0 L1400,0 L1400,50 
    C1395,55 1390,45 1385,53
    C1380,46 1375,54 1370,47
    C1365,55 1360,45 1355,53
    C1350,46 1345,54 1340,47
    C1335,55 1330,45 1325,53
    C1320,46 1315,54 1310,47
    C1305,55 1300,45 1295,53
    C1290,46 1285,54 1280,47
    C1275,55 1270,45 1265,53
    C1260,46 1255,54 1250,47
    C1245,55 1240,45 1235,53
    C1230,46 1225,54 1220,47
    C1215,55 1210,45 1205,53
    C1200,46 1195,54 1190,47
    C1185,55 1180,45 1175,53
    C1170,46 1165,54 1160,47
    C1155,55 1150,45 1145,53
    C1140,46 1135,54 1130,47
    C1125,55 1120,45 1115,53
    C1110,46 1105,54 1100,47
    C1095,55 1090,45 1085,53
    C1080,46 1075,54 1070,47
    C1065,55 1060,45 1055,53
    C1050,46 1045,54 1040,47
    C1035,55 1030,45 1025,53
    C1020,46 1015,54 1010,47
    C1005,55 1000,45 995,53
    C990,46 985,54 980,47
    C975,55 970,45 965,53
    C960,46 955,54 950,47
    C945,55 940,45 935,53
    C930,46 925,54 920,47
    C915,55 910,45 905,53
    C900,46 895,54 890,47
    C885,55 880,45 875,53
    C870,46 865,54 860,47
    C855,55 850,45 845,53
    C840,46 835,54 830,47
    C825,55 820,45 815,53
    C810,46 805,54 800,47
    C795,55 790,45 785,53
    C780,46 775,54 770,47
    C765,55 760,45 755,53
    C750,46 745,54 740,47
    C735,55 730,45 725,53
    C720,46 715,54 710,47
    C705,55 700,45 695,53
    C690,46 685,54 680,47
    C675,55 670,45 665,53
    C660,46 655,54 650,47
    C645,55 640,45 635,53
    C630,46 625,54 620,47
    C615,55 610,45 605,53
    C600,46 595,54 590,47
    C585,55 580,45 575,53
    C570,46 565,54 560,47
    C555,55 550,45 545,53
    C540,46 535,54 530,47
    C525,55 520,45 515,53
    C510,46 505,54 500,47
    C495,55 490,45 485,53
    C480,46 475,54 470,47
    C465,55 460,45 455,53
    C450,46 445,54 440,47
    C435,55 430,45 425,53
    C420,46 415,54 410,47
    C405,55 400,45 395,53
    C390,46 385,54 380,47
    C375,55 370,45 365,53
    C360,46 355,54 350,47
    C345,55 340,45 335,53
    C330,46 325,54 320,47
    C315,55 310,45 305,53
    C300,46 295,54 290,47
    C285,55 280,45 275,53
    C270,46 265,54 260,47
    C255,55 250,45 245,53
    C240,46 235,54 230,47
    C225,55 220,45 215,53
    C210,46 205,54 200,47
    C195,55 190,45 185,53
    C180,46 175,54 170,47
    C165,55 160,45 155,53
    C150,46 145,54 140,47
    C135,55 130,45 125,53
    C120,46 115,54 110,47
    C105,55 100,45 95,53
    C90,46 85,54 80,47
    C75,55 70,45 65,53
    C60,46 55,54 50,47
    C45,55 40,45 35,53
    C30,46 25,54 20,47
    C15,55 10,45 5,53
    C0,46 0,0 0,0 Z" 
    fill="#ffffff"/>
</svg>
