<svg width="83" height="83" viewBox="0 0 83 83" fill="none" xmlns="http://www.w3.org/2000/svg">
<rect x="0.980225" y="0.75" width="82" height="82" rx="10" fill="#C5CE38"/>
<g clip-path="url(#clip0_4137_432)">
<path d="M50.1423 43.1445C48.2556 43.1445 46.6355 43.8145 45.282 45.1543C43.9285 46.4941 43.2517 48.1074 43.2517 49.9941C43.2517 51.9082 43.9285 53.5352 45.282 54.875C46.6355 56.2148 48.2556 56.8848 50.1423 56.8848C52.0291 56.8848 53.6423 56.2148 54.9822 54.875C56.322 53.5352 56.9919 51.9082 56.9919 49.9941C56.9919 48.1074 56.322 46.4941 54.9822 45.1543C53.6423 43.8145 52.0291 43.1445 50.1423 43.1445ZM50.1423 55.6543C48.5837 55.6543 47.2576 55.1006 46.1638 53.9932C45.0701 52.8857 44.5232 51.5527 44.5232 49.9941C44.5232 48.4629 45.0701 47.1436 46.1638 46.0361C47.2576 44.9287 48.5837 44.375 50.1423 44.375C51.7009 44.375 53.0271 44.9287 54.1208 46.0361C55.2146 47.1436 55.7615 48.4629 55.7615 49.9941C55.7615 51.5527 55.2146 52.8857 54.1208 53.9932C53.0271 55.1006 51.7009 55.6543 50.1423 55.6543ZM50.1423 47.041C49.322 47.041 48.6179 47.3281 48.03 47.9023C47.4421 48.4766 47.1482 49.1738 47.1482 49.9941C47.1482 50.8145 47.4421 51.5186 48.03 52.1064C48.6179 52.6943 49.322 52.9883 50.1423 52.9883C50.9626 52.9883 51.6599 52.6943 52.2341 52.1064C52.8083 51.5186 53.0955 50.8145 53.0955 49.9941C53.0955 49.1738 52.8083 48.4766 52.2341 47.9023C51.6599 47.3281 50.9626 47.041 50.1423 47.041ZM50.1423 51.7578C49.6501 51.7578 49.24 51.5869 48.9119 51.2451C48.5837 50.9033 48.4197 50.4863 48.4197 49.9941C48.4197 49.5293 48.5837 49.126 48.9119 48.7842C49.24 48.4424 49.6501 48.2715 50.1423 48.2715C50.6072 48.2715 51.0105 48.4424 51.3523 48.7842C51.6941 49.126 51.865 49.5293 51.865 49.9941C51.865 50.4863 51.6941 50.9033 51.3523 51.2451C51.0105 51.5869 50.6072 51.7578 50.1423 51.7578ZM56.9099 39.125V26.123C56.9099 25.9316 56.8552 25.7744 56.7458 25.6514C56.6365 25.5283 56.4861 25.4668 56.2947 25.4668H53.9978C53.8337 25.4668 53.6902 25.5283 53.5671 25.6514C53.4441 25.7744 53.3826 25.9316 53.3826 26.123C53.3826 26.2871 53.4441 26.4307 53.5671 26.5537C53.6902 26.6768 53.8337 26.7383 53.9978 26.7383H55.6794V27.8867H35.6638V26.7383H51.0857C51.2498 26.7383 51.3933 26.6768 51.5164 26.5537C51.6394 26.4307 51.7009 26.2871 51.7009 26.123C51.7009 25.9316 51.6394 25.7744 51.5164 25.6514C51.3933 25.5283 51.2498 25.4668 51.0857 25.4668H35.0486C34.8845 25.4668 34.741 25.5283 34.6179 25.6514C34.4949 25.7744 34.4333 25.9316 34.4333 26.123V28.502C34.4333 28.666 34.4949 28.8096 34.6179 28.9326C34.741 29.0557 34.8845 29.1172 35.0486 29.1172H38.1658L35.6638 38.3867H31.4392V31.4141C31.4392 30.9219 31.2615 30.498 30.906 30.1426C30.5505 29.7871 30.1267 29.6094 29.6345 29.6094H29.3884V25.5488C29.3884 25.1387 29.532 24.79 29.8191 24.5029C30.1062 24.2158 30.4548 24.0723 30.865 24.0723H31.4802C31.6716 24.0723 31.822 24.0176 31.9314 23.9082C32.0408 23.7988 32.0955 23.6484 32.0955 23.457C32.0955 23.293 32.0408 23.1494 31.9314 23.0264C31.822 22.9033 31.6716 22.8418 31.4802 22.8418H30.865C30.0994 22.8418 29.4568 23.1084 28.9373 23.6416C28.4177 24.1748 28.158 24.8105 28.158 25.5488V29.6094H28.0349C27.5427 29.6094 27.1257 29.7871 26.7839 30.1426C26.4421 30.498 26.2712 30.9219 26.2712 31.4141V38.3867H24.4255C23.4685 38.3867 22.655 38.7217 21.9851 39.3916C21.3152 40.0615 20.9802 40.875 20.9802 41.832V53.5625C20.9802 55.5312 21.6707 57.2061 23.0515 58.5869C24.4324 59.9678 26.1072 60.6582 28.0759 60.6582C29.9353 60.6582 31.5349 60.0293 32.8748 58.7715C34.2146 57.5137 34.9666 55.9824 35.1306 54.1777H40.3396C41.1599 56.0918 42.4519 57.6504 44.2156 58.8535C45.9792 60.0566 47.9548 60.6582 50.1423 60.6582C51.5642 60.6582 52.8904 60.3984 54.1208 59.8789C55.3787 59.3594 56.4861 58.6484 57.4431 57.7461C58.4001 56.8438 59.1794 55.7773 59.781 54.5469C60.3552 53.3438 60.6833 52.0449 60.7654 50.6504H62.365C62.5291 50.6504 62.6726 50.5889 62.7957 50.4658C62.9187 50.3428 62.9802 50.1855 62.9802 49.9941C62.9802 48.8457 62.8298 47.7383 62.5291 46.6719C62.2556 45.6328 61.8523 44.6416 61.3191 43.6982C60.7859 42.7549 60.1501 41.9004 59.4119 41.1348C58.6736 40.3691 57.8396 39.6992 56.9099 39.125ZM27.5017 31.4141C27.5017 31.25 27.5564 31.1133 27.6658 31.0039C27.7751 30.8945 27.8982 30.8398 28.0349 30.8398H29.6345C29.7986 30.8398 29.9285 30.8945 30.0242 31.0039C30.1199 31.1133 30.1677 31.25 30.1677 31.4141V38.3867H27.5017V31.4141ZM28.0759 59.4277C26.4626 59.4277 25.0818 58.8535 23.9333 57.7051C22.7849 56.5566 22.2107 55.1758 22.2107 53.5625C22.238 51.9492 22.8191 50.5752 23.9539 49.4404C25.0886 48.3057 26.4626 47.7383 28.0759 47.7383C29.6892 47.7383 31.0632 48.3057 32.198 49.4404C33.3328 50.5752 33.9001 51.9492 33.9001 53.5625C33.9001 55.1758 33.3328 56.5566 32.198 57.7051C31.0632 58.8535 29.6892 59.4277 28.0759 59.4277ZM37.3044 52.9473H36.7712V47.8203C36.7712 47.6289 36.7097 47.4717 36.5867 47.3486C36.4636 47.2256 36.3201 47.1641 36.156 47.1641C35.9646 47.1641 35.8074 47.2256 35.6843 47.3486C35.5613 47.4717 35.4998 47.6289 35.4998 47.8203V52.9473H35.1306C34.9666 51.1426 34.2146 49.6113 32.8748 48.3535C31.5349 47.0957 29.9353 46.4668 28.0759 46.4668C26.8728 46.4668 25.7585 46.7471 24.7332 47.3076C23.7078 47.8682 22.8669 48.6133 22.2107 49.543V41.832C22.2107 41.2305 22.4294 40.7178 22.8669 40.2939C23.3044 39.8701 23.824 39.6582 24.4255 39.6582H35.4998V44.9082C35.4998 45.0723 35.5613 45.2158 35.6843 45.3389C35.8074 45.4619 35.9646 45.5234 36.156 45.5234C36.3201 45.5234 36.4636 45.4619 36.5867 45.3389C36.7097 45.2158 36.7712 45.0723 36.7712 44.9082V39.125L39.4783 29.1172H55.6794V38.4277C55.488 38.3457 55.3035 38.2637 55.1257 38.1816C54.948 38.0996 54.7634 38.0312 54.572 37.9766V30.8809C54.572 30.6895 54.5105 30.5322 54.3875 30.4092C54.2644 30.2861 54.1208 30.2246 53.9568 30.2246H40.7908C40.6541 30.2246 40.531 30.2725 40.4216 30.3682C40.3123 30.4639 40.2439 30.5801 40.2166 30.7168L37.9197 39.166C37.865 39.3027 37.8582 39.4326 37.8992 39.5557C37.9402 39.6787 38.0154 39.7812 38.1248 39.8633C38.1794 39.8906 38.241 39.9111 38.3093 39.9248C38.3777 39.9385 38.4529 39.9453 38.5349 39.9453L42.1033 39.9863C40.6267 41.1621 39.4578 42.625 38.5964 44.375C37.7351 46.125 37.3044 47.998 37.3044 49.9941V52.9473ZM53.3005 31.4961V37.5664C52.8083 37.4297 52.2957 37.3271 51.7625 37.2588C51.2292 37.1904 50.6892 37.1562 50.1423 37.1562C49.0212 37.1562 47.9343 37.2998 46.8816 37.5869C45.8289 37.874 44.8513 38.2637 43.949 38.7559L39.3142 38.7148L41.283 31.4961H53.3005ZM50.1423 59.4277C48.8298 59.4277 47.613 59.1816 46.4919 58.6895C45.3435 58.1699 44.3455 57.4863 43.4978 56.6387C42.6501 55.791 41.9802 54.8066 41.488 53.6855C40.9958 52.5371 40.7498 51.3066 40.7498 49.9941C40.7498 48.709 40.9958 47.4922 41.488 46.3438C41.9802 45.2227 42.6501 44.2314 43.4978 43.3701C44.3455 42.5088 45.3435 41.832 46.4919 41.3398C47.613 40.8477 48.8298 40.6016 50.1423 40.6016C51.4275 40.6016 52.6443 40.8477 53.7927 41.3398C54.9412 41.832 55.9392 42.5088 56.7869 43.3701C57.6345 44.2314 58.3044 45.2227 58.7966 46.3438C59.2888 47.4922 59.5349 48.709 59.5349 49.9941C59.5349 51.3066 59.2888 52.5371 58.7966 53.6855C58.3044 54.8066 57.6345 55.791 56.7869 56.6387C55.9392 57.4863 54.9412 58.1699 53.7927 58.6895C52.6443 59.1816 51.4275 59.4277 50.1423 59.4277ZM60.7654 49.3789C60.6833 47.9844 60.3552 46.6855 59.781 45.4824C59.1794 44.252 58.4001 43.1855 57.4431 42.2832C56.4861 41.3809 55.3787 40.6699 54.1208 40.1504C52.8904 39.6309 51.5642 39.3711 50.1423 39.3711C48.6658 39.3711 47.2849 39.6445 45.9998 40.1914C44.7146 40.7656 43.5867 41.5312 42.616 42.4883C41.6453 43.4453 40.8865 44.5801 40.3396 45.8926C39.7654 47.1777 39.4783 48.5449 39.4783 49.9941C39.4783 50.5137 39.5125 51.0195 39.5808 51.5117C39.6492 52.0039 39.7517 52.4824 39.8884 52.9473H38.5349V49.9941C38.5349 48.4082 38.8357 46.9043 39.4373 45.4824C40.0662 44.0879 40.9001 42.8643 41.9392 41.8115C42.9783 40.7588 44.2087 39.9316 45.6306 39.3301C47.0251 38.7285 48.5291 38.4277 50.1423 38.4277C51.6736 38.4277 53.1228 38.7148 54.49 39.2891C55.8845 39.8359 57.1013 40.6084 58.1404 41.6064C59.1794 42.6045 60.0134 43.7734 60.6423 45.1133C61.2712 46.4258 61.6267 47.8477 61.7087 49.3789H60.7654ZM28.0759 49.8301C27.0369 49.8301 26.1482 50.1924 25.4099 50.917C24.6716 51.6416 24.3025 52.5234 24.3025 53.5625C24.3025 54.6016 24.6716 55.4902 25.4099 56.2285C26.1482 56.9668 27.0369 57.3359 28.0759 57.3359C29.115 57.3359 29.9968 56.9668 30.7214 56.2285C31.446 55.4902 31.8083 54.6016 31.8083 53.5625C31.8083 52.5234 31.446 51.6416 30.7214 50.917C29.9968 50.1924 29.115 49.8301 28.0759 49.8301ZM28.0759 56.0645C27.3923 56.0645 26.8044 55.8184 26.3123 55.3262C25.8201 54.834 25.574 54.2461 25.574 53.5625C25.574 52.8789 25.8201 52.291 26.3123 51.7988C26.8044 51.3066 27.3923 51.0605 28.0759 51.0605C28.7595 51.0605 29.3474 51.3066 29.8396 51.7988C30.3318 52.291 30.5779 52.8789 30.5779 53.5625C30.5779 54.2461 30.3318 54.834 29.8396 55.3262C29.3474 55.8184 28.7595 56.0645 28.0759 56.0645ZM23.8513 40.8477C23.6873 40.8477 23.5437 40.9092 23.4207 41.0322C23.2976 41.1553 23.2361 41.3125 23.2361 41.5039V45.8105C23.2361 45.9746 23.2976 46.1182 23.4207 46.2412C23.5437 46.3643 23.6873 46.4258 23.8513 46.4258C24.6169 46.4258 25.2732 46.1523 25.8201 45.6055C26.3669 45.0586 26.6404 44.4023 26.6404 43.6367C26.6404 42.8711 26.3669 42.2148 25.8201 41.668C25.2732 41.1211 24.6169 40.8477 23.8513 40.8477ZM24.4666 45.0723V42.2422C24.74 42.3516 24.9656 42.5361 25.1433 42.7959C25.321 43.0557 25.4099 43.3359 25.4099 43.6367C25.4099 43.9648 25.321 44.252 25.1433 44.498C24.9656 44.7441 24.74 44.9355 24.4666 45.0723ZM32.9978 40.4785H30.1677C30.0037 40.4785 29.8601 40.54 29.7371 40.6631C29.614 40.7861 29.5525 40.9297 29.5525 41.0938C29.5525 41.2578 29.614 41.4014 29.7371 41.5244C29.8601 41.6475 30.0037 41.709 30.1677 41.709H32.9978C33.1892 41.709 33.3464 41.6475 33.4695 41.5244C33.5925 41.4014 33.6541 41.2578 33.6541 41.0938C33.6541 40.9297 33.5925 40.7861 33.4695 40.6631C33.3464 40.54 33.1892 40.4785 32.9978 40.4785ZM32.9978 42.4473H30.1677C30.0037 42.4473 29.8601 42.5088 29.7371 42.6318C29.614 42.7549 29.5525 42.8984 29.5525 43.0625C29.5525 43.2266 29.614 43.3701 29.7371 43.4932C29.8601 43.6162 30.0037 43.6777 30.1677 43.6777H32.9978C33.1892 43.6777 33.3464 43.6162 33.4695 43.4932C33.5925 43.3701 33.6541 43.2266 33.6541 43.0625C33.6541 42.8984 33.5925 42.7549 33.4695 42.6318C33.3464 42.5088 33.1892 42.4473 32.9978 42.4473ZM32.9978 44.416H30.1677C30.0037 44.416 29.8601 44.4775 29.7371 44.6006C29.614 44.7236 29.5525 44.8672 29.5525 45.0312C29.5525 45.1953 29.614 45.3389 29.7371 45.4619C29.8601 45.585 30.0037 45.6465 30.1677 45.6465H32.9978C33.1892 45.6465 33.3464 45.585 33.4695 45.4619C33.5925 45.3389 33.6541 45.1953 33.6541 45.0312C33.6541 44.8672 33.5925 44.7236 33.4695 44.6006C33.3464 44.4775 33.1892 44.416 32.9978 44.416Z" fill="white"/>
</g>
<defs>
<clipPath id="clip0_4137_432">
<rect width="42" height="42" fill="white" transform="matrix(1 0 0 -1 20.9802 62.75)"/>
</clipPath>
</defs>
</svg>
