<svg width="15" height="15" viewBox="0 0 15 15" fill="none" xmlns="http://www.w3.org/2000/svg">
<g clip-path="url(#clip0_4138_1003)">
<path d="M13.4248 4.89258C13.4248 4.95638 13.4248 5.02018 13.4248 5.08398C13.4248 5.14779 13.4248 5.21159 13.4248 5.27539C13.4248 6.22331 13.2471 7.18034 12.8916 8.14648C12.5361 9.11263 12.0143 9.98763 11.3262 10.7715C10.638 11.5553 9.78353 12.1979 8.7627 12.6992C7.75098 13.1914 6.58431 13.4375 5.2627 13.4375C4.86165 13.4375 4.46517 13.4102 4.07324 13.3555C3.68132 13.2917 3.30078 13.2051 2.93164 13.0957C2.5625 12.9863 2.20475 12.8542 1.8584 12.6992C1.51204 12.5352 1.17936 12.3529 0.860352 12.1523C0.978841 12.1615 1.09505 12.1683 1.20898 12.1729C1.32292 12.1774 1.43913 12.1797 1.55762 12.1797C2.22298 12.1797 2.85872 12.0726 3.46484 11.8584C4.07096 11.6442 4.62012 11.3457 5.1123 10.9629C4.4834 10.9447 3.92513 10.7487 3.4375 10.375C2.94987 10.0013 2.61491 9.5319 2.43262 8.9668C2.52376 8.97591 2.61263 8.98503 2.69922 8.99414C2.78581 9.00326 2.87923 9.00781 2.97949 9.00781C3.1071 9.00781 3.2347 9.00098 3.3623 8.9873C3.48991 8.97363 3.61296 8.94857 3.73145 8.91211C3.0752 8.77539 2.52832 8.44727 2.09082 7.92773C1.65332 7.4082 1.43457 6.79753 1.43457 6.0957V6.06836C1.62598 6.16862 1.83105 6.25065 2.0498 6.31445C2.26855 6.37826 2.49186 6.41471 2.71973 6.42383C2.33691 6.16862 2.0293 5.83138 1.79688 5.41211C1.56445 4.99284 1.44824 4.53255 1.44824 4.03125C1.44824 3.76693 1.48242 3.514 1.55078 3.27246C1.61914 3.03092 1.71257 2.80534 1.83105 2.5957C2.18652 3.02409 2.58301 3.41602 3.02051 3.77148C3.45801 4.12695 3.92741 4.43457 4.42871 4.69434C4.93001 4.9541 5.46322 5.16146 6.02832 5.31641C6.58431 5.47135 7.15853 5.5625 7.75098 5.58984C7.73275 5.48047 7.7168 5.37109 7.70312 5.26172C7.68945 5.15234 7.68262 5.04297 7.68262 4.93359C7.68262 4.54167 7.75553 4.16797 7.90137 3.8125C8.05631 3.46615 8.26367 3.16309 8.52344 2.90332C8.7832 2.64355 9.08626 2.44075 9.43262 2.29492C9.77897 2.13997 10.1527 2.0625 10.5537 2.0625C10.9639 2.0625 11.349 2.14453 11.709 2.30859C12.069 2.47266 12.3812 2.69141 12.6455 2.96484C12.9736 2.91016 13.2904 2.82357 13.5957 2.70508C13.901 2.58659 14.1904 2.44531 14.4639 2.28125C14.3636 2.60938 14.2041 2.91016 13.9854 3.18359C13.7666 3.45703 13.5068 3.68034 13.2061 3.85352C13.4977 3.82617 13.7826 3.77376 14.0605 3.69629C14.3385 3.61882 14.6051 3.52539 14.8604 3.41602C14.6689 3.69857 14.4502 3.96517 14.2041 4.21582C13.958 4.46647 13.6982 4.69206 13.4248 4.89258Z" fill="#1F1E17"/>
</g>
<defs>
<clipPath id="clip0_4138_1003">
<rect width="14" height="14" fill="white" transform="matrix(1 0 0 -1 0.860352 14.75)"/>
</clipPath>
</defs>
</svg>
