<svg width="25" height="35" viewBox="0 0 25 35" fill="none" xmlns="http://www.w3.org/2000/svg">
<path d="M12.4215 31.0625C12.2653 31.0625 12.1246 31.0156 11.9996 30.9219C11.8746 30.8281 11.7809 30.7188 11.7184 30.5938C11.2184 29.1875 10.5309 27.8984 9.65589 26.7266C8.78089 25.5547 7.85902 24.3906 6.89027 23.2344C6.01527 22.1719 5.14808 21.0781 4.2887 19.9531C3.42933 18.8281 2.70277 17.6094 2.10902 16.2969C2.04652 16.1094 2.05433 15.9141 2.13245 15.7109C2.21058 15.5078 2.34339 15.375 2.53089 15.3125C2.71839 15.2188 2.90589 15.2109 3.09339 15.2891C3.28089 15.3672 3.42152 15.5 3.51527 15.6875C4.04652 16.9062 4.71058 18.0391 5.50745 19.0859C6.30433 20.1328 7.14027 21.1875 8.01527 22.25C9.01527 23.4375 9.9762 24.6562 10.8981 25.9062C11.82 27.1562 12.5621 28.5469 13.1246 30.0781C13.1871 30.2656 13.1793 30.4531 13.1012 30.6406C13.0231 30.8281 12.8903 30.9531 12.7028 31.0156C12.6403 31.0469 12.5856 31.0625 12.5387 31.0625C12.4918 31.0625 12.4528 31.0625 12.4215 31.0625ZM12.4215 31.0625C12.3903 31.0625 12.3512 31.0625 12.3043 31.0625C12.2575 31.0625 12.2184 31.0469 12.1871 31.0156C11.9684 30.9531 11.82 30.8281 11.7418 30.6406C11.6637 30.4531 11.6559 30.2656 11.7184 30.0781C12.2809 28.5469 13.0231 27.1562 13.945 25.9062C14.8668 24.6562 15.8278 23.4375 16.8278 22.25C17.7028 21.1875 18.5387 20.1328 19.3356 19.0859C20.1325 18.0391 20.7965 16.9062 21.3278 15.6875C21.4215 15.5 21.5621 15.3672 21.7496 15.2891C21.9371 15.2109 22.1403 15.2188 22.359 15.3125C22.5465 15.375 22.6715 15.5078 22.734 15.7109C22.7965 15.9141 22.7965 16.1094 22.734 16.2969C22.1403 17.6094 21.4215 18.8281 20.5778 19.9531C19.734 21.0781 18.859 22.1719 17.9528 23.2344C16.984 24.3906 16.0621 25.5547 15.1871 26.7266C14.3121 27.8984 13.6246 29.1875 13.1246 30.5938C13.0621 30.7188 12.9684 30.8281 12.8434 30.9219C12.7184 31.0156 12.5778 31.0625 12.4215 31.0625ZM12.4215 17.75C10.7965 17.75 9.39027 17.1562 8.20277 15.9688C7.01527 14.7812 6.42152 13.375 6.42152 11.75C6.42152 10.125 7.01527 8.71875 8.20277 7.53125C9.39027 6.34375 10.7965 5.75 12.4215 5.75C14.0465 5.75 15.4528 6.34375 16.6403 7.53125C17.8278 8.71875 18.4215 10.125 18.4215 11.75C18.4215 13.375 17.8278 14.7812 16.6403 15.9688C15.4528 17.1562 14.0465 17.75 12.4215 17.75ZM12.4215 7.25C11.2028 7.25 10.1481 7.69531 9.25745 8.58594C8.36683 9.47656 7.92152 10.5312 7.92152 11.75C7.92152 12.9688 8.36683 14.0234 9.25745 14.9141C10.1481 15.8047 11.2028 16.25 12.4215 16.25C13.6403 16.25 14.695 15.8047 15.5856 14.9141C16.4762 14.0234 16.9215 12.9688 16.9215 11.75C16.9215 10.5312 16.4762 9.47656 15.5856 8.58594C14.695 7.69531 13.6403 7.25 12.4215 7.25ZM22.0309 16.7188C21.9684 16.7188 21.9137 16.7188 21.8668 16.7188C21.82 16.7188 21.7809 16.7031 21.7496 16.6719C21.5621 16.5781 21.4293 16.4375 21.3512 16.25C21.2731 16.0625 21.2653 15.875 21.3278 15.6875C21.9528 14.25 22.2184 12.7656 22.1246 11.2344C22.0309 9.70312 21.5934 8.25 20.8121 6.875C19.9996 5.5 18.945 4.39062 17.6481 3.54688C16.3512 2.70312 14.9371 2.20312 13.4059 2.04688C11.9059 1.89062 10.4371 2.08594 8.99964 2.63281C7.56214 3.17969 6.32777 4.01562 5.29652 5.14062C3.98402 6.54688 3.1637 8.21875 2.83558 10.1562C2.50745 12.0938 2.73402 13.9375 3.51527 15.6875C3.57777 15.875 3.57777 16.0625 3.51527 16.25C3.45277 16.4375 3.32777 16.5781 3.14027 16.6719C2.92152 16.7656 2.71839 16.7734 2.53089 16.6953C2.34339 16.6172 2.20277 16.4844 2.10902 16.2969C1.23402 14.2656 0.984017 12.1328 1.35902 9.89844C1.73402 7.66406 2.67152 5.73438 4.17152 4.10938C5.35902 2.82812 6.78089 1.875 8.43714 1.25C10.0934 0.625 11.7965 0.390625 13.5465 0.546875C15.3278 0.734375 16.9684 1.3125 18.4684 2.28125C19.9684 3.25 21.1715 4.53125 22.0778 6.125C23.0153 7.71875 23.5387 9.39844 23.6481 11.1641C23.7575 12.9297 23.4528 14.6406 22.734 16.2969C22.6715 16.4219 22.5778 16.5234 22.4528 16.6016C22.3278 16.6797 22.1871 16.7188 22.0309 16.7188ZM12.4684 35C11.1871 35 9.79652 34.9219 8.29652 34.7656C6.79652 34.6094 5.34339 34.2812 3.93714 33.7812C3.37464 33.5938 2.50745 33.1719 1.33558 32.5156C0.163705 31.8594 -0.219108 30.9062 0.187142 29.6562C0.280892 29.3125 0.468392 28.9844 0.749642 28.6719C1.03089 28.3594 1.39027 28.0781 1.82777 27.8281C2.51527 27.3906 3.23402 27.0547 3.98402 26.8203C4.73402 26.5859 5.43714 26.3906 6.09339 26.2344C6.28089 26.2031 6.46839 26.2422 6.65589 26.3516C6.84339 26.4609 6.95277 26.6094 6.98402 26.7969C7.04652 27.0156 7.02308 27.2109 6.9137 27.3828C6.80433 27.5547 6.64027 27.6562 6.42152 27.6875C5.67152 27.875 4.98402 28.0703 4.35902 28.2734C3.73402 28.4766 3.15589 28.75 2.62464 29.0938C2.34339 29.25 2.11683 29.4141 1.94495 29.5859C1.77308 29.7578 1.65589 29.9375 1.59339 30.125C1.49964 30.5 1.68714 30.875 2.15589 31.25C2.62464 31.625 3.39027 32 4.45277 32.375C5.92152 32.9062 7.45277 33.2266 9.04652 33.3359C10.6403 33.4453 12.0778 33.5 13.359 33.5C15.1403 33.4688 16.7184 33.3203 18.0934 33.0547C19.4684 32.7891 20.6715 32.3906 21.7028 31.8594C22.0153 31.7031 22.3903 31.4531 22.8278 31.1094C23.2653 30.7656 23.3903 30.3906 23.2028 29.9844C22.859 29.2969 22.2028 28.7969 21.234 28.4844C20.2653 28.1719 19.4059 27.9375 18.6559 27.7812L18.4215 27.6875C18.234 27.6562 18.0778 27.5547 17.9528 27.3828C17.8278 27.2109 17.7965 27.0156 17.859 26.7969C17.8903 26.6094 17.9996 26.4609 18.1871 26.3516C18.3746 26.2422 18.5621 26.2031 18.7496 26.2344L18.984 26.2812C19.8903 26.5 20.9137 26.8125 22.0543 27.2188C23.195 27.625 24.0153 28.3125 24.5153 29.2812C24.859 30 24.8434 30.7031 24.4684 31.3906C24.0934 32.0781 23.4059 32.6719 22.4059 33.1719C21.2496 33.7656 19.9293 34.2109 18.445 34.5078C16.9606 34.8047 15.2809 34.9688 13.4059 35C13.2496 35 13.0934 35 12.9371 35C12.7809 35 12.6246 35 12.4684 35Z" fill="#4BAF47"/>
</svg>
